{
	"asset":{
		"generator":"Khronos glTF Blender I/O v3.5.30",
		"version":"2.0"
	},
	"scene":0,
	"scenes":[
		{
			"name":"Scene",
			"nodes":[
				9
			]
		}
	],
	"nodes":[
		{
			"name":"Tail",
			"rotation":[
				-0.02032698504626751,
				0.0006916025886312127,
				-0.06709896773099899,
				0.9975389838218689
			],
			"scale":[
				0.9999998807907104,
				0.9999998211860657,
				0.9999998807907104
			],
			"translation":[
				-7.462222129106522e-08,
				2.35111141204834,
				4.6566128730773926e-09
			]
		},
		{
			"children":[
				0
			],
			"name":"Spine3",
			"rotation":[
				0.01744353398680687,
				2.41192574321758e-05,
				-0.09860558807849884,
				0.9949737787246704
			],
			"scale":[
				0.9999999403953552,
				1,
				0.9999999403953552
			],
			"translation":[
				-3.096647560596466e-08,
				4.216277599334717,
				-2.153683453798294e-09
			]
		},
		{
			"children":[
				1
			],
			"name":"Spine2",
			"rotation":[
				0.017743296921253204,
				0.0018542991019785404,
				-0.08129248768091202,
				0.9965306520462036
			],
			"scale":[
				1,
				1,
				0.9999999403953552
			],
			"translation":[
				7.983302907632606e-11,
				3.0228168964385986,
				-8.372670556866524e-09
			]
		},
		{
			"name":"Bone",
			"rotation":[
				-0.203976571559906,
				0.08854550123214722,
				-0.36788448691368103,
				0.9028921723365784
			],
			"scale":[
				1,
				0.9999999403953552,
				1
			],
			"translation":[
				1.9546313285827637,
				1.970046043395996,
				-1.1270039081573486
			]
		},
		{
			"name":"Bone.001",
			"rotation":[
				-0.19429998099803925,
				-0.0862509235739708,
				0.41835466027259827,
				0.8830558657646179
			],
			"scale":[
				1,
				0.9999998807907104,
				0.9999999403953552
			],
			"translation":[
				-1.756178379058838,
				1.941799521446228,
				-1.024015188217163
			]
		},
		{
			"children":[
				2,
				3,
				4
			],
			"name":"Spine1",
			"rotation":[
				-0.7287107110023499,
				-7.972992932536727e-08,
				8.87762681145432e-08,
				0.6848216652870178
			],
			"translation":[
				0.00386482710018754,
				1.218401312828064,
				3.594031572341919
			]
		},
		{
			"name":"Face",
			"rotation":[
				0.6964812874794006,
				1.007647256301425e-06,
				1.0170695077249547e-06,
				0.717574954032898
			],
			"scale":[
				1,
				1,
				0.9999999403953552
			],
			"translation":[
				0.003864861326292157,
				1.461769461631775,
				5.176570892333984
			]
		},
		{
			"children":[
				5,
				6
			],
			"name":"Root",
			"translation":[
				0,
				-0.7958227396011353,
				0
			]
		},
		{
			"mesh":0,
			"name":"Shark",
			"skin":0
		},
		{
			"children":[
				8,
				7
			],
			"name":"Armature",
			"translation":[
				0,
				0,
				0.44635745882987976
			]
		}
	],
	"animations":[
		{
			"channels":[
				{
					"sampler":0,
					"target":{
						"node":7,
						"path":"translation"
					}
				},
				{
					"sampler":1,
					"target":{
						"node":7,
						"path":"rotation"
					}
				},
				{
					"sampler":2,
					"target":{
						"node":7,
						"path":"scale"
					}
				},
				{
					"sampler":3,
					"target":{
						"node":5,
						"path":"translation"
					}
				},
				{
					"sampler":4,
					"target":{
						"node":5,
						"path":"rotation"
					}
				},
				{
					"sampler":5,
					"target":{
						"node":5,
						"path":"scale"
					}
				},
				{
					"sampler":6,
					"target":{
						"node":2,
						"path":"translation"
					}
				},
				{
					"sampler":7,
					"target":{
						"node":2,
						"path":"rotation"
					}
				},
				{
					"sampler":8,
					"target":{
						"node":2,
						"path":"scale"
					}
				},
				{
					"sampler":9,
					"target":{
						"node":1,
						"path":"translation"
					}
				},
				{
					"sampler":10,
					"target":{
						"node":1,
						"path":"rotation"
					}
				},
				{
					"sampler":11,
					"target":{
						"node":1,
						"path":"scale"
					}
				},
				{
					"sampler":12,
					"target":{
						"node":0,
						"path":"translation"
					}
				},
				{
					"sampler":13,
					"target":{
						"node":0,
						"path":"rotation"
					}
				},
				{
					"sampler":14,
					"target":{
						"node":0,
						"path":"scale"
					}
				},
				{
					"sampler":15,
					"target":{
						"node":3,
						"path":"translation"
					}
				},
				{
					"sampler":16,
					"target":{
						"node":3,
						"path":"rotation"
					}
				},
				{
					"sampler":17,
					"target":{
						"node":3,
						"path":"scale"
					}
				},
				{
					"sampler":18,
					"target":{
						"node":4,
						"path":"translation"
					}
				},
				{
					"sampler":19,
					"target":{
						"node":4,
						"path":"rotation"
					}
				},
				{
					"sampler":20,
					"target":{
						"node":4,
						"path":"scale"
					}
				},
				{
					"sampler":21,
					"target":{
						"node":6,
						"path":"translation"
					}
				},
				{
					"sampler":22,
					"target":{
						"node":6,
						"path":"rotation"
					}
				},
				{
					"sampler":23,
					"target":{
						"node":6,
						"path":"scale"
					}
				}
			],
			"name":"Swim",
			"samplers":[
				{
					"input":11,
					"interpolation":"LINEAR",
					"output":12
				},
				{
					"input":11,
					"interpolation":"LINEAR",
					"output":13
				},
				{
					"input":11,
					"interpolation":"LINEAR",
					"output":14
				},
				{
					"input":11,
					"interpolation":"LINEAR",
					"output":15
				},
				{
					"input":11,
					"interpolation":"LINEAR",
					"output":16
				},
				{
					"input":11,
					"interpolation":"LINEAR",
					"output":17
				},
				{
					"input":11,
					"interpolation":"LINEAR",
					"output":18
				},
				{
					"input":11,
					"interpolation":"LINEAR",
					"output":19
				},
				{
					"input":11,
					"interpolation":"LINEAR",
					"output":20
				},
				{
					"input":11,
					"interpolation":"LINEAR",
					"output":21
				},
				{
					"input":11,
					"interpolation":"LINEAR",
					"output":22
				},
				{
					"input":11,
					"interpolation":"LINEAR",
					"output":23
				},
				{
					"input":11,
					"interpolation":"LINEAR",
					"output":24
				},
				{
					"input":11,
					"interpolation":"LINEAR",
					"output":25
				},
				{
					"input":11,
					"interpolation":"LINEAR",
					"output":26
				},
				{
					"input":11,
					"interpolation":"LINEAR",
					"output":27
				},
				{
					"input":11,
					"interpolation":"LINEAR",
					"output":28
				},
				{
					"input":11,
					"interpolation":"LINEAR",
					"output":29
				},
				{
					"input":11,
					"interpolation":"LINEAR",
					"output":30
				},
				{
					"input":11,
					"interpolation":"LINEAR",
					"output":31
				},
				{
					"input":11,
					"interpolation":"LINEAR",
					"output":32
				},
				{
					"input":11,
					"interpolation":"LINEAR",
					"output":33
				},
				{
					"input":11,
					"interpolation":"LINEAR",
					"output":34
				},
				{
					"input":11,
					"interpolation":"LINEAR",
					"output":35
				}
			]
		}
	],
	"materials":[
		{
			"doubleSided":true,
			"name":"Top",
			"pbrMetallicRoughness":{
				"baseColorFactor":[
					0.10489845275878906,
					0.21402454376220703,
					0.33432459831237793,
					1
				],
				"metallicFactor":0,
				"roughnessFactor":0.5
			}
		},
		{
			"doubleSided":true,
			"name":"Bottom",
			"pbrMetallicRoughness":{
				"baseColorFactor":[
					0.685957133769989,
					0.685957133769989,
					0.685957133769989,
					1
				],
				"metallicFactor":0,
				"roughnessFactor":0.5
			}
		}
	],
	"meshes":[
		{
			"name":"Cylinder",
			"primitives":[
				{
					"attributes":{
						"POSITION":0,
						"NORMAL":1,
						"JOINTS_0":2,
						"WEIGHTS_0":3
					},
					"indices":4,
					"material":0
				},
				{
					"attributes":{
						"POSITION":5,
						"NORMAL":6,
						"JOINTS_0":7,
						"WEIGHTS_0":8
					},
					"indices":9,
					"material":1
				}
			]
		}
	],
	"skins":[
		{
			"inverseBindMatrices":10,
			"joints":[
				7,
				5,
				2,
				1,
				0,
				3,
				4,
				6
			],
			"name":"Armature"
		}
	],
	"accessors":[
		{
			"bufferView":0,
			"componentType":5126,
			"count":894,
			"max":[
				2.9143333435058594,
				3.6407132148742676,
				7.8498735427856445
			],
			"min":[
				-2.9143333435058594,
				-1.5444344282150269,
				-7.981416702270508
			],
			"type":"VEC3"
		},
		{
			"bufferView":1,
			"componentType":5126,
			"count":894,
			"type":"VEC3"
		},
		{
			"bufferView":2,
			"componentType":5121,
			"count":894,
			"type":"VEC4"
		},
		{
			"bufferView":3,
			"componentType":5126,
			"count":894,
			"type":"VEC4"
		},
		{
			"bufferView":4,
			"componentType":5123,
			"count":1440,
			"type":"SCALAR"
		},
		{
			"bufferView":5,
			"componentType":5126,
			"count":332,
			"max":[
				1.4339509010314941,
				0.33482855558395386,
				7.144186019897461
			],
			"min":[
				-1.4339509010314941,
				-1.0568979978561401,
				-5.634120941162109
			],
			"type":"VEC3"
		},
		{
			"bufferView":6,
			"componentType":5126,
			"count":332,
			"type":"VEC3"
		},
		{
			"bufferView":7,
			"componentType":5121,
			"count":332,
			"type":"VEC4"
		},
		{
			"bufferView":8,
			"componentType":5126,
			"count":332,
			"type":"VEC4"
		},
		{
			"bufferView":9,
			"componentType":5123,
			"count":492,
			"type":"SCALAR"
		},
		{
			"bufferView":10,
			"componentType":5126,
			"count":8,
			"type":"MAT4"
		},
		{
			"bufferView":11,
			"componentType":5126,
			"count":31,
			"max":[
				1.25
			],
			"min":[
				0
			],
			"type":"SCALAR"
		},
		{
			"bufferView":12,
			"componentType":5126,
			"count":31,
			"type":"VEC3"
		},
		{
			"bufferView":13,
			"componentType":5126,
			"count":31,
			"type":"VEC4"
		},
		{
			"bufferView":14,
			"componentType":5126,
			"count":31,
			"type":"VEC3"
		},
		{
			"bufferView":15,
			"componentType":5126,
			"count":31,
			"type":"VEC3"
		},
		{
			"bufferView":16,
			"componentType":5126,
			"count":31,
			"type":"VEC4"
		},
		{
			"bufferView":17,
			"componentType":5126,
			"count":31,
			"type":"VEC3"
		},
		{
			"bufferView":18,
			"componentType":5126,
			"count":31,
			"type":"VEC3"
		},
		{
			"bufferView":19,
			"componentType":5126,
			"count":31,
			"type":"VEC4"
		},
		{
			"bufferView":20,
			"componentType":5126,
			"count":31,
			"type":"VEC3"
		},
		{
			"bufferView":21,
			"componentType":5126,
			"count":31,
			"type":"VEC3"
		},
		{
			"bufferView":22,
			"componentType":5126,
			"count":31,
			"type":"VEC4"
		},
		{
			"bufferView":23,
			"componentType":5126,
			"count":31,
			"type":"VEC3"
		},
		{
			"bufferView":24,
			"componentType":5126,
			"count":31,
			"type":"VEC3"
		},
		{
			"bufferView":25,
			"componentType":5126,
			"count":31,
			"type":"VEC4"
		},
		{
			"bufferView":26,
			"componentType":5126,
			"count":31,
			"type":"VEC3"
		},
		{
			"bufferView":27,
			"componentType":5126,
			"count":31,
			"type":"VEC3"
		},
		{
			"bufferView":28,
			"componentType":5126,
			"count":31,
			"type":"VEC4"
		},
		{
			"bufferView":29,
			"componentType":5126,
			"count":31,
			"type":"VEC3"
		},
		{
			"bufferView":30,
			"componentType":5126,
			"count":31,
			"type":"VEC3"
		},
		{
			"bufferView":31,
			"componentType":5126,
			"count":31,
			"type":"VEC4"
		},
		{
			"bufferView":32,
			"componentType":5126,
			"count":31,
			"type":"VEC3"
		},
		{
			"bufferView":33,
			"componentType":5126,
			"count":31,
			"type":"VEC3"
		},
		{
			"bufferView":34,
			"componentType":5126,
			"count":31,
			"type":"VEC4"
		},
		{
			"bufferView":35,
			"componentType":5126,
			"count":31,
			"type":"VEC3"
		}
	],
	"bufferViews":[
		{
			"buffer":0,
			"byteLength":10728,
			"byteOffset":0,
			"target":34962
		},
		{
			"buffer":0,
			"byteLength":10728,
			"byteOffset":10728,
			"target":34962
		},
		{
			"buffer":0,
			"byteLength":3576,
			"byteOffset":21456,
			"target":34962
		},
		{
			"buffer":0,
			"byteLength":14304,
			"byteOffset":25032,
			"target":34962
		},
		{
			"buffer":0,
			"byteLength":2880,
			"byteOffset":39336,
			"target":34963
		},
		{
			"buffer":0,
			"byteLength":3984,
			"byteOffset":42216,
			"target":34962
		},
		{
			"buffer":0,
			"byteLength":3984,
			"byteOffset":46200,
			"target":34962
		},
		{
			"buffer":0,
			"byteLength":1328,
			"byteOffset":50184,
			"target":34962
		},
		{
			"buffer":0,
			"byteLength":5312,
			"byteOffset":51512,
			"target":34962
		},
		{
			"buffer":0,
			"byteLength":984,
			"byteOffset":56824,
			"target":34963
		},
		{
			"buffer":0,
			"byteLength":512,
			"byteOffset":57808
		},
		{
			"buffer":0,
			"byteLength":124,
			"byteOffset":58320
		},
		{
			"buffer":0,
			"byteLength":372,
			"byteOffset":58444
		},
		{
			"buffer":0,
			"byteLength":496,
			"byteOffset":58816
		},
		{
			"buffer":0,
			"byteLength":372,
			"byteOffset":59312
		},
		{
			"buffer":0,
			"byteLength":372,
			"byteOffset":59684
		},
		{
			"buffer":0,
			"byteLength":496,
			"byteOffset":60056
		},
		{
			"buffer":0,
			"byteLength":372,
			"byteOffset":60552
		},
		{
			"buffer":0,
			"byteLength":372,
			"byteOffset":60924
		},
		{
			"buffer":0,
			"byteLength":496,
			"byteOffset":61296
		},
		{
			"buffer":0,
			"byteLength":372,
			"byteOffset":61792
		},
		{
			"buffer":0,
			"byteLength":372,
			"byteOffset":62164
		},
		{
			"buffer":0,
			"byteLength":496,
			"byteOffset":62536
		},
		{
			"buffer":0,
			"byteLength":372,
			"byteOffset":63032
		},
		{
			"buffer":0,
			"byteLength":372,
			"byteOffset":63404
		},
		{
			"buffer":0,
			"byteLength":496,
			"byteOffset":63776
		},
		{
			"buffer":0,
			"byteLength":372,
			"byteOffset":64272
		},
		{
			"buffer":0,
			"byteLength":372,
			"byteOffset":64644
		},
		{
			"buffer":0,
			"byteLength":496,
			"byteOffset":65016
		},
		{
			"buffer":0,
			"byteLength":372,
			"byteOffset":65512
		},
		{
			"buffer":0,
			"byteLength":372,
			"byteOffset":65884
		},
		{
			"buffer":0,
			"byteLength":496,
			"byteOffset":66256
		},
		{
			"buffer":0,
			"byteLength":372,
			"byteOffset":66752
		},
		{
			"buffer":0,
			"byteLength":372,
			"byteOffset":67124
		},
		{
			"buffer":0,
			"byteLength":496,
			"byteOffset":67496
		},
		{
			"buffer":0,
			"byteLength":372,
			"byteOffset":67992
		}
	],
	"buffers":[
		{
			"byteLength":68364,
			"uri":"shark.bin"
		}
	]
}
