{
	"asset":{
		"generator":"Khronos glTF Blender I/O v3.5.30",
		"version":"2.0"
	},
	"scene":0,
	"scenes":[
		{
			"name":"Scene",
			"nodes":[
				14
			]
		}
	],
	"nodes":[
		{
			"name":"Tail",
			"rotation":[
				0.020381446927785873,
				-2.6444587838958533e-11,
				-7.450281724885599e-09,
				0.9997922778129578
			],
			"translation":[
				-5.46993284000763e-10,
				2.0756609439849854,
				1.4904280476457643e-08
			]
		},
		{
			"children":[
				0
			],
			"name":"Spine4",
			"rotation":[
				-0.012378009036183357,
				-1.339536814803921e-10,
				7.1781944832594036e-09,
				0.9999234080314636
			],
			"translation":[
				8.034137799484142e-10,
				1.716078519821167,
				1.4900932931993793e-08
			]
		},
		{
			"children":[
				1
			],
			"name":"Spine3",
			"rotation":[
				0.049396079033613205,
				-5.1806742703774944e-05,
				-0.003025899874046445,
				0.9987746477127075
			],
			"scale":[
				1,
				1.0000001192092896,
				0.9999999403953552
			],
			"translation":[
				-2.3101165425032377e-10,
				1.6553820371627808,
				7.469907359336503e-09
			]
		},
		{
			"children":[
				2
			],
			"name":"Spine2",
			"rotation":[
				0.0016663620481267571,
				-0.00010276499961037189,
				0.003024597419425845,
				0.9999940395355225
			],
			"translation":[
				-4.656612873077393e-10,
				1.5576502084732056,
				-1.4086253941059113e-08
			]
		},
		{
			"name":"BottomFlipper.L",
			"rotation":[
				-0.14939606189727783,
				0.12974099814891815,
				0.2090720683336258,
				0.9576727151870728
			],
			"scale":[
				1,
				1.0000001192092896,
				1
			],
			"translation":[
				4.470348358154297e-08,
				0.7310982942581177,
				-2.7939677238464355e-08
			]
		},
		{
			"children":[
				4
			],
			"name":"MidFlipper.L",
			"rotation":[
				0.08006531000137329,
				0.03269863873720169,
				-0.027545714750885963,
				0.9958722591400146
			],
			"scale":[
				1,
				1,
				0.9999998807907104
			],
			"translation":[
				-2.2351741790771484e-08,
				1.1422356367111206,
				0
			]
		},
		{
			"children":[
				5
			],
			"name":"TopFlipper.L",
			"rotation":[
				-0.18616798520088196,
				-0.2154243141412735,
				-0.593660295009613,
				0.7526628375053406
			],
			"scale":[
				0.9999999403953552,
				1,
				1
			],
			"translation":[
				0.859198808670044,
				1.3206363916397095,
				-0.00876088347285986
			]
		},
		{
			"name":"BottomFlipper.R",
			"rotation":[
				-0.11202540248632431,
				-0.08462180942296982,
				-0.12423058599233627,
				0.9822709560394287
			],
			"scale":[
				1,
				1,
				1.0000001192092896
			],
			"translation":[
				4.842877388000488e-08,
				1.0446362495422363,
				7.450580596923828e-08
			]
		},
		{
			"children":[
				7
			],
			"name":"MidFlipper.R",
			"rotation":[
				0.23045071959495544,
				-0.0994497761130333,
				-0.13715551793575287,
				0.9582226276397705
			],
			"scale":[
				1,
				0.9999999403953552,
				1
			],
			"translation":[
				-7.450580596923828e-09,
				1.211815357208252,
				-1.4901161193847656e-08
			]
		},
		{
			"children":[
				8
			],
			"name":"TopFlipper.R",
			"rotation":[
				-0.26770254969596863,
				0.23105357587337494,
				0.6487996578216553,
				0.673801600933075
			],
			"scale":[
				1.0000001192092896,
				1.0000001192092896,
				1
			],
			"translation":[
				-1.003987193107605,
				1.3153647184371948,
				-0.08153290301561356
			]
		},
		{
			"children":[
				3,
				6,
				9
			],
			"name":"Spine1",
			"rotation":[
				-0.7273682951927185,
				-5.8792958051518075e-18,
				5.982539939717307e-18,
				0.6862473487854004
			],
			"scale":[
				1,
				1.0000001192092896,
				1.0000001192092896
			],
			"translation":[
				0.0024281740188598633,
				0.5012310147285461,
				1.5354440212249756
			]
		},
		{
			"name":"Head",
			"rotation":[
				0.6714101433753967,
				4.118861852475675e-06,
				4.141011686442653e-06,
				0.7410860061645508
			],
			"scale":[
				1,
				1.0000001192092896,
				1
			],
			"translation":[
				0.0024281740188598633,
				0.5525209307670593,
				1.984605312347412
			]
		},
		{
			"children":[
				10,
				11
			],
			"name":"Root",
			"translation":[
				0,
				-0.5,
				0
			]
		},
		{
			"mesh":0,
			"name":"MantaRay",
			"skin":0
		},
		{
			"children":[
				13,
				12
			],
			"name":"Armature"
		}
	],
	"animations":[
		{
			"channels":[
				{
					"sampler":0,
					"target":{
						"node":12,
						"path":"translation"
					}
				},
				{
					"sampler":1,
					"target":{
						"node":12,
						"path":"rotation"
					}
				},
				{
					"sampler":2,
					"target":{
						"node":12,
						"path":"scale"
					}
				},
				{
					"sampler":3,
					"target":{
						"node":10,
						"path":"translation"
					}
				},
				{
					"sampler":4,
					"target":{
						"node":10,
						"path":"rotation"
					}
				},
				{
					"sampler":5,
					"target":{
						"node":10,
						"path":"scale"
					}
				},
				{
					"sampler":6,
					"target":{
						"node":3,
						"path":"translation"
					}
				},
				{
					"sampler":7,
					"target":{
						"node":3,
						"path":"rotation"
					}
				},
				{
					"sampler":8,
					"target":{
						"node":3,
						"path":"scale"
					}
				},
				{
					"sampler":9,
					"target":{
						"node":2,
						"path":"translation"
					}
				},
				{
					"sampler":10,
					"target":{
						"node":2,
						"path":"rotation"
					}
				},
				{
					"sampler":11,
					"target":{
						"node":2,
						"path":"scale"
					}
				},
				{
					"sampler":12,
					"target":{
						"node":1,
						"path":"translation"
					}
				},
				{
					"sampler":13,
					"target":{
						"node":1,
						"path":"rotation"
					}
				},
				{
					"sampler":14,
					"target":{
						"node":1,
						"path":"scale"
					}
				},
				{
					"sampler":15,
					"target":{
						"node":0,
						"path":"translation"
					}
				},
				{
					"sampler":16,
					"target":{
						"node":0,
						"path":"rotation"
					}
				},
				{
					"sampler":17,
					"target":{
						"node":0,
						"path":"scale"
					}
				},
				{
					"sampler":18,
					"target":{
						"node":6,
						"path":"translation"
					}
				},
				{
					"sampler":19,
					"target":{
						"node":6,
						"path":"rotation"
					}
				},
				{
					"sampler":20,
					"target":{
						"node":6,
						"path":"scale"
					}
				},
				{
					"sampler":21,
					"target":{
						"node":5,
						"path":"translation"
					}
				},
				{
					"sampler":22,
					"target":{
						"node":5,
						"path":"rotation"
					}
				},
				{
					"sampler":23,
					"target":{
						"node":5,
						"path":"scale"
					}
				},
				{
					"sampler":24,
					"target":{
						"node":4,
						"path":"translation"
					}
				},
				{
					"sampler":25,
					"target":{
						"node":4,
						"path":"rotation"
					}
				},
				{
					"sampler":26,
					"target":{
						"node":4,
						"path":"scale"
					}
				},
				{
					"sampler":27,
					"target":{
						"node":9,
						"path":"translation"
					}
				},
				{
					"sampler":28,
					"target":{
						"node":9,
						"path":"rotation"
					}
				},
				{
					"sampler":29,
					"target":{
						"node":9,
						"path":"scale"
					}
				},
				{
					"sampler":30,
					"target":{
						"node":8,
						"path":"translation"
					}
				},
				{
					"sampler":31,
					"target":{
						"node":8,
						"path":"rotation"
					}
				},
				{
					"sampler":32,
					"target":{
						"node":8,
						"path":"scale"
					}
				},
				{
					"sampler":33,
					"target":{
						"node":7,
						"path":"translation"
					}
				},
				{
					"sampler":34,
					"target":{
						"node":7,
						"path":"rotation"
					}
				},
				{
					"sampler":35,
					"target":{
						"node":7,
						"path":"scale"
					}
				},
				{
					"sampler":36,
					"target":{
						"node":11,
						"path":"translation"
					}
				},
				{
					"sampler":37,
					"target":{
						"node":11,
						"path":"rotation"
					}
				},
				{
					"sampler":38,
					"target":{
						"node":11,
						"path":"scale"
					}
				}
			],
			"name":"Swim",
			"samplers":[
				{
					"input":15,
					"interpolation":"LINEAR",
					"output":16
				},
				{
					"input":15,
					"interpolation":"LINEAR",
					"output":17
				},
				{
					"input":15,
					"interpolation":"LINEAR",
					"output":18
				},
				{
					"input":15,
					"interpolation":"LINEAR",
					"output":19
				},
				{
					"input":15,
					"interpolation":"LINEAR",
					"output":20
				},
				{
					"input":15,
					"interpolation":"LINEAR",
					"output":21
				},
				{
					"input":15,
					"interpolation":"LINEAR",
					"output":22
				},
				{
					"input":15,
					"interpolation":"LINEAR",
					"output":23
				},
				{
					"input":15,
					"interpolation":"LINEAR",
					"output":24
				},
				{
					"input":15,
					"interpolation":"LINEAR",
					"output":25
				},
				{
					"input":15,
					"interpolation":"LINEAR",
					"output":26
				},
				{
					"input":15,
					"interpolation":"LINEAR",
					"output":27
				},
				{
					"input":15,
					"interpolation":"LINEAR",
					"output":28
				},
				{
					"input":15,
					"interpolation":"LINEAR",
					"output":29
				},
				{
					"input":15,
					"interpolation":"LINEAR",
					"output":30
				},
				{
					"input":15,
					"interpolation":"LINEAR",
					"output":31
				},
				{
					"input":15,
					"interpolation":"LINEAR",
					"output":32
				},
				{
					"input":15,
					"interpolation":"LINEAR",
					"output":33
				},
				{
					"input":15,
					"interpolation":"LINEAR",
					"output":34
				},
				{
					"input":15,
					"interpolation":"LINEAR",
					"output":35
				},
				{
					"input":15,
					"interpolation":"LINEAR",
					"output":36
				},
				{
					"input":15,
					"interpolation":"LINEAR",
					"output":37
				},
				{
					"input":15,
					"interpolation":"LINEAR",
					"output":38
				},
				{
					"input":15,
					"interpolation":"LINEAR",
					"output":39
				},
				{
					"input":15,
					"interpolation":"LINEAR",
					"output":40
				},
				{
					"input":15,
					"interpolation":"LINEAR",
					"output":41
				},
				{
					"input":15,
					"interpolation":"LINEAR",
					"output":42
				},
				{
					"input":15,
					"interpolation":"LINEAR",
					"output":43
				},
				{
					"input":15,
					"interpolation":"LINEAR",
					"output":44
				},
				{
					"input":15,
					"interpolation":"LINEAR",
					"output":45
				},
				{
					"input":15,
					"interpolation":"LINEAR",
					"output":46
				},
				{
					"input":15,
					"interpolation":"LINEAR",
					"output":47
				},
				{
					"input":15,
					"interpolation":"LINEAR",
					"output":48
				},
				{
					"input":15,
					"interpolation":"LINEAR",
					"output":49
				},
				{
					"input":15,
					"interpolation":"LINEAR",
					"output":50
				},
				{
					"input":15,
					"interpolation":"LINEAR",
					"output":51
				},
				{
					"input":15,
					"interpolation":"LINEAR",
					"output":52
				},
				{
					"input":15,
					"interpolation":"LINEAR",
					"output":53
				},
				{
					"input":15,
					"interpolation":"LINEAR",
					"output":54
				}
			]
		}
	],
	"materials":[
		{
			"doubleSided":true,
			"name":"Top",
			"pbrMetallicRoughness":{
				"baseColorFactor":[
					0.08123026043176651,
					0.15398947894573212,
					0.3343237340450287,
					1
				],
				"metallicFactor":0,
				"roughnessFactor":0.5
			}
		},
		{
			"doubleSided":true,
			"name":"Bottom",
			"pbrMetallicRoughness":{}
		}
	],
	"meshes":[
		{
			"name":"MantaRay",
			"primitives":[
				{
					"attributes":{
						"POSITION":0,
						"NORMAL":1,
						"JOINTS_0":2,
						"JOINTS_1":3,
						"WEIGHTS_0":4,
						"WEIGHTS_1":5
					},
					"indices":6,
					"material":0
				},
				{
					"attributes":{
						"POSITION":7,
						"NORMAL":8,
						"JOINTS_0":9,
						"JOINTS_1":10,
						"WEIGHTS_0":11,
						"WEIGHTS_1":12
					},
					"indices":13,
					"material":1
				}
			]
		}
	],
	"skins":[
		{
			"inverseBindMatrices":14,
			"joints":[
				12,
				10,
				3,
				2,
				1,
				0,
				6,
				5,
				4,
				9,
				8,
				7,
				11
			],
			"name":"Armature"
		}
	],
	"accessors":[
		{
			"bufferView":0,
			"componentType":5126,
			"count":1002,
			"max":[
				4.19429874420166,
				0.6716662049293518,
				3.405341386795044
			],
			"min":[
				-4.194297790527344,
				-0.1882639080286026,
				-8.320599555969238
			],
			"type":"VEC3"
		},
		{
			"bufferView":1,
			"componentType":5126,
			"count":1002,
			"type":"VEC3"
		},
		{
			"bufferView":2,
			"componentType":5121,
			"count":1002,
			"type":"VEC4"
		},
		{
			"bufferView":3,
			"componentType":5121,
			"count":1002,
			"type":"VEC4"
		},
		{
			"bufferView":4,
			"componentType":5126,
			"count":1002,
			"type":"VEC4"
		},
		{
			"bufferView":5,
			"componentType":5126,
			"count":1002,
			"type":"VEC4"
		},
		{
			"bufferView":6,
			"componentType":5123,
			"count":1494,
			"type":"SCALAR"
		},
		{
			"bufferView":7,
			"componentType":5126,
			"count":387,
			"max":[
				4.19429874420166,
				0.33085334300994873,
				3.2903451919555664
			],
			"min":[
				-4.194297790527344,
				-0.6703043580055237,
				-2.9130406379699707
			],
			"type":"VEC3"
		},
		{
			"bufferView":8,
			"componentType":5126,
			"count":387,
			"type":"VEC3"
		},
		{
			"bufferView":9,
			"componentType":5121,
			"count":387,
			"type":"VEC4"
		},
		{
			"bufferView":10,
			"componentType":5121,
			"count":387,
			"type":"VEC4"
		},
		{
			"bufferView":11,
			"componentType":5126,
			"count":387,
			"type":"VEC4"
		},
		{
			"bufferView":12,
			"componentType":5126,
			"count":387,
			"type":"VEC4"
		},
		{
			"bufferView":13,
			"componentType":5123,
			"count":594,
			"type":"SCALAR"
		},
		{
			"bufferView":14,
			"componentType":5126,
			"count":13,
			"type":"MAT4"
		},
		{
			"bufferView":15,
			"componentType":5126,
			"count":102,
			"max":[
				4.208333333333333
			],
			"min":[
				0
			],
			"type":"SCALAR"
		},
		{
			"bufferView":16,
			"componentType":5126,
			"count":102,
			"type":"VEC3"
		},
		{
			"bufferView":17,
			"componentType":5126,
			"count":102,
			"type":"VEC4"
		},
		{
			"bufferView":18,
			"componentType":5126,
			"count":102,
			"type":"VEC3"
		},
		{
			"bufferView":19,
			"componentType":5126,
			"count":102,
			"type":"VEC3"
		},
		{
			"bufferView":20,
			"componentType":5126,
			"count":102,
			"type":"VEC4"
		},
		{
			"bufferView":21,
			"componentType":5126,
			"count":102,
			"type":"VEC3"
		},
		{
			"bufferView":22,
			"componentType":5126,
			"count":102,
			"type":"VEC3"
		},
		{
			"bufferView":23,
			"componentType":5126,
			"count":102,
			"type":"VEC4"
		},
		{
			"bufferView":24,
			"componentType":5126,
			"count":102,
			"type":"VEC3"
		},
		{
			"bufferView":25,
			"componentType":5126,
			"count":102,
			"type":"VEC3"
		},
		{
			"bufferView":26,
			"componentType":5126,
			"count":102,
			"type":"VEC4"
		},
		{
			"bufferView":27,
			"componentType":5126,
			"count":102,
			"type":"VEC3"
		},
		{
			"bufferView":28,
			"componentType":5126,
			"count":102,
			"type":"VEC3"
		},
		{
			"bufferView":29,
			"componentType":5126,
			"count":102,
			"type":"VEC4"
		},
		{
			"bufferView":30,
			"componentType":5126,
			"count":102,
			"type":"VEC3"
		},
		{
			"bufferView":31,
			"componentType":5126,
			"count":102,
			"type":"VEC3"
		},
		{
			"bufferView":32,
			"componentType":5126,
			"count":102,
			"type":"VEC4"
		},
		{
			"bufferView":33,
			"componentType":5126,
			"count":102,
			"type":"VEC3"
		},
		{
			"bufferView":34,
			"componentType":5126,
			"count":102,
			"type":"VEC3"
		},
		{
			"bufferView":35,
			"componentType":5126,
			"count":102,
			"type":"VEC4"
		},
		{
			"bufferView":36,
			"componentType":5126,
			"count":102,
			"type":"VEC3"
		},
		{
			"bufferView":37,
			"componentType":5126,
			"count":102,
			"type":"VEC3"
		},
		{
			"bufferView":38,
			"componentType":5126,
			"count":102,
			"type":"VEC4"
		},
		{
			"bufferView":39,
			"componentType":5126,
			"count":102,
			"type":"VEC3"
		},
		{
			"bufferView":40,
			"componentType":5126,
			"count":102,
			"type":"VEC3"
		},
		{
			"bufferView":41,
			"componentType":5126,
			"count":102,
			"type":"VEC4"
		},
		{
			"bufferView":42,
			"componentType":5126,
			"count":102,
			"type":"VEC3"
		},
		{
			"bufferView":43,
			"componentType":5126,
			"count":102,
			"type":"VEC3"
		},
		{
			"bufferView":44,
			"componentType":5126,
			"count":102,
			"type":"VEC4"
		},
		{
			"bufferView":45,
			"componentType":5126,
			"count":102,
			"type":"VEC3"
		},
		{
			"bufferView":46,
			"componentType":5126,
			"count":102,
			"type":"VEC3"
		},
		{
			"bufferView":47,
			"componentType":5126,
			"count":102,
			"type":"VEC4"
		},
		{
			"bufferView":48,
			"componentType":5126,
			"count":102,
			"type":"VEC3"
		},
		{
			"bufferView":49,
			"componentType":5126,
			"count":102,
			"type":"VEC3"
		},
		{
			"bufferView":50,
			"componentType":5126,
			"count":102,
			"type":"VEC4"
		},
		{
			"bufferView":51,
			"componentType":5126,
			"count":102,
			"type":"VEC3"
		},
		{
			"bufferView":52,
			"componentType":5126,
			"count":102,
			"type":"VEC3"
		},
		{
			"bufferView":53,
			"componentType":5126,
			"count":102,
			"type":"VEC4"
		},
		{
			"bufferView":54,
			"componentType":5126,
			"count":102,
			"type":"VEC3"
		}
	],
	"bufferViews":[
		{
			"buffer":0,
			"byteLength":12024,
			"byteOffset":0,
			"target":34962
		},
		{
			"buffer":0,
			"byteLength":12024,
			"byteOffset":12024,
			"target":34962
		},
		{
			"buffer":0,
			"byteLength":4008,
			"byteOffset":24048,
			"target":34962
		},
		{
			"buffer":0,
			"byteLength":4008,
			"byteOffset":28056,
			"target":34962
		},
		{
			"buffer":0,
			"byteLength":16032,
			"byteOffset":32064,
			"target":34962
		},
		{
			"buffer":0,
			"byteLength":16032,
			"byteOffset":48096,
			"target":34962
		},
		{
			"buffer":0,
			"byteLength":2988,
			"byteOffset":64128,
			"target":34963
		},
		{
			"buffer":0,
			"byteLength":4644,
			"byteOffset":67116,
			"target":34962
		},
		{
			"buffer":0,
			"byteLength":4644,
			"byteOffset":71760,
			"target":34962
		},
		{
			"buffer":0,
			"byteLength":1548,
			"byteOffset":76404,
			"target":34962
		},
		{
			"buffer":0,
			"byteLength":1548,
			"byteOffset":77952,
			"target":34962
		},
		{
			"buffer":0,
			"byteLength":6192,
			"byteOffset":79500,
			"target":34962
		},
		{
			"buffer":0,
			"byteLength":6192,
			"byteOffset":85692,
			"target":34962
		},
		{
			"buffer":0,
			"byteLength":1188,
			"byteOffset":91884,
			"target":34963
		},
		{
			"buffer":0,
			"byteLength":832,
			"byteOffset":93072
		},
		{
			"buffer":0,
			"byteLength":408,
			"byteOffset":93904
		},
		{
			"buffer":0,
			"byteLength":1224,
			"byteOffset":94312
		},
		{
			"buffer":0,
			"byteLength":1632,
			"byteOffset":95536
		},
		{
			"buffer":0,
			"byteLength":1224,
			"byteOffset":97168
		},
		{
			"buffer":0,
			"byteLength":1224,
			"byteOffset":98392
		},
		{
			"buffer":0,
			"byteLength":1632,
			"byteOffset":99616
		},
		{
			"buffer":0,
			"byteLength":1224,
			"byteOffset":101248
		},
		{
			"buffer":0,
			"byteLength":1224,
			"byteOffset":102472
		},
		{
			"buffer":0,
			"byteLength":1632,
			"byteOffset":103696
		},
		{
			"buffer":0,
			"byteLength":1224,
			"byteOffset":105328
		},
		{
			"buffer":0,
			"byteLength":1224,
			"byteOffset":106552
		},
		{
			"buffer":0,
			"byteLength":1632,
			"byteOffset":107776
		},
		{
			"buffer":0,
			"byteLength":1224,
			"byteOffset":109408
		},
		{
			"buffer":0,
			"byteLength":1224,
			"byteOffset":110632
		},
		{
			"buffer":0,
			"byteLength":1632,
			"byteOffset":111856
		},
		{
			"buffer":0,
			"byteLength":1224,
			"byteOffset":113488
		},
		{
			"buffer":0,
			"byteLength":1224,
			"byteOffset":114712
		},
		{
			"buffer":0,
			"byteLength":1632,
			"byteOffset":115936
		},
		{
			"buffer":0,
			"byteLength":1224,
			"byteOffset":117568
		},
		{
			"buffer":0,
			"byteLength":1224,
			"byteOffset":118792
		},
		{
			"buffer":0,
			"byteLength":1632,
			"byteOffset":120016
		},
		{
			"buffer":0,
			"byteLength":1224,
			"byteOffset":121648
		},
		{
			"buffer":0,
			"byteLength":1224,
			"byteOffset":122872
		},
		{
			"buffer":0,
			"byteLength":1632,
			"byteOffset":124096
		},
		{
			"buffer":0,
			"byteLength":1224,
			"byteOffset":125728
		},
		{
			"buffer":0,
			"byteLength":1224,
			"byteOffset":126952
		},
		{
			"buffer":0,
			"byteLength":1632,
			"byteOffset":128176
		},
		{
			"buffer":0,
			"byteLength":1224,
			"byteOffset":129808
		},
		{
			"buffer":0,
			"byteLength":1224,
			"byteOffset":131032
		},
		{
			"buffer":0,
			"byteLength":1632,
			"byteOffset":132256
		},
		{
			"buffer":0,
			"byteLength":1224,
			"byteOffset":133888
		},
		{
			"buffer":0,
			"byteLength":1224,
			"byteOffset":135112
		},
		{
			"buffer":0,
			"byteLength":1632,
			"byteOffset":136336
		},
		{
			"buffer":0,
			"byteLength":1224,
			"byteOffset":137968
		},
		{
			"buffer":0,
			"byteLength":1224,
			"byteOffset":139192
		},
		{
			"buffer":0,
			"byteLength":1632,
			"byteOffset":140416
		},
		{
			"buffer":0,
			"byteLength":1224,
			"byteOffset":142048
		},
		{
			"buffer":0,
			"byteLength":1224,
			"byteOffset":143272
		},
		{
			"buffer":0,
			"byteLength":1632,
			"byteOffset":144496
		},
		{
			"buffer":0,
			"byteLength":1224,
			"byteOffset":146128
		}
	],
	"buffers":[
		{
			"byteLength":147352,
			"uri":"mantaray.bin"
		}
	]
}
