{
	"asset":{
		"generator":"Khronos glTF Blender I/O v3.5.30",
		"version":"2.0"
	},
	"scene":0,
	"scenes":[
		{
			"name":"Scene",
			"nodes":[
				9
			]
		}
	],
	"nodes":[
		{
			"name":"Tail",
			"rotation":[
				-0.06658892333507538,
				-0.0005011198227293789,
				-0.03110971488058567,
				0.9972952604293823
			],
			"scale":[
				1.0000001192092896,
				1.0000001192092896,
				1
			],
			"translation":[
				6.5338099375367165e-09,
				1.7248070240020752,
				-2.724846126511693e-08
			]
		},
		{
			"children":[
				0
			],
			"name":"Spine3",
			"rotation":[
				0.007373221218585968,
				-0.001042220159433782,
				-0.018009010702371597,
				0.9998101592063904
			],
			"scale":[
				0.9999998807907104,
				0.9999999403953552,
				0.9999999403953552
			],
			"translation":[
				-6.475602276623249e-10,
				1.659000277519226,
				1.2865001508544083e-08
			]
		},
		{
			"children":[
				1
			],
			"name":"Spine2",
			"rotation":[
				0.007264929823577404,
				-2.9158567485865206e-05,
				0.003018035553395748,
				0.9999690651893616
			],
			"scale":[
				0.9999999403953552,
				1,
				1
			],
			"translation":[
				-2.3283064365386963e-10,
				1.5615965127944946,
				-4.656612873077393e-10
			]
		},
		{
			"children":[
				2
			],
			"name":"Spine1",
			"rotation":[
				-0.6807580590248108,
				0,
				0,
				0.7325083613395691
			],
			"translation":[
				0.0024281740188598633,
				0.4141339957714081,
				1.5354441404342651
			]
		},
		{
			"name":"Bone",
			"rotation":[
				-0.9949305653572083,
				-0.09846143424510956,
				-0.004150287248194218,
				0.020029747858643532
			],
			"scale":[
				1.0000091791152954,
				1.0000004768371582,
				1.0000003576278687
			],
			"translation":[
				0.4186767637729645,
				-0.8311824798583984,
				-0.4938742518424988
			]
		},
		{
			"name":"Bone.001",
			"rotation":[
				-0.9965047240257263,
				0.08114717155694962,
				-0.0005608391365967691,
				0.01983281411230564
			],
			"scale":[
				0.9999896883964539,
				0.9999995827674866,
				0.9999993443489075
			],
			"translation":[
				-0.4668068587779999,
				-0.7839348912239075,
				-0.48950305581092834
			]
		},
		{
			"children":[
				4,
				5
			],
			"name":"Face",
			"rotation":[
				0.6737329363822937,
				8.809418545752123e-07,
				8.031661309360061e-07,
				0.738974928855896
			],
			"translation":[
				0.0024281740188598633,
				0.3733499348163605,
				1.820365309715271
			]
		},
		{
			"children":[
				3,
				6
			],
			"name":"Root",
			"rotation":[
				-0.019704004749655724,
				0,
				0,
				0.9998058676719666
			],
			"translation":[
				0,
				-0.4151533246040344,
				0
			]
		},
		{
			"mesh":0,
			"name":"Fish",
			"skin":0
		},
		{
			"children":[
				8,
				7
			],
			"name":"Armature"
		}
	],
	"animations":[
		{
			"channels":[
				{
					"sampler":0,
					"target":{
						"node":7,
						"path":"translation"
					}
				},
				{
					"sampler":1,
					"target":{
						"node":7,
						"path":"rotation"
					}
				},
				{
					"sampler":2,
					"target":{
						"node":7,
						"path":"scale"
					}
				},
				{
					"sampler":3,
					"target":{
						"node":3,
						"path":"translation"
					}
				},
				{
					"sampler":4,
					"target":{
						"node":3,
						"path":"rotation"
					}
				},
				{
					"sampler":5,
					"target":{
						"node":3,
						"path":"scale"
					}
				},
				{
					"sampler":6,
					"target":{
						"node":2,
						"path":"translation"
					}
				},
				{
					"sampler":7,
					"target":{
						"node":2,
						"path":"rotation"
					}
				},
				{
					"sampler":8,
					"target":{
						"node":2,
						"path":"scale"
					}
				},
				{
					"sampler":9,
					"target":{
						"node":1,
						"path":"translation"
					}
				},
				{
					"sampler":10,
					"target":{
						"node":1,
						"path":"rotation"
					}
				},
				{
					"sampler":11,
					"target":{
						"node":1,
						"path":"scale"
					}
				},
				{
					"sampler":12,
					"target":{
						"node":0,
						"path":"translation"
					}
				},
				{
					"sampler":13,
					"target":{
						"node":0,
						"path":"rotation"
					}
				},
				{
					"sampler":14,
					"target":{
						"node":0,
						"path":"scale"
					}
				},
				{
					"sampler":15,
					"target":{
						"node":6,
						"path":"translation"
					}
				},
				{
					"sampler":16,
					"target":{
						"node":6,
						"path":"rotation"
					}
				},
				{
					"sampler":17,
					"target":{
						"node":6,
						"path":"scale"
					}
				},
				{
					"sampler":18,
					"target":{
						"node":4,
						"path":"translation"
					}
				},
				{
					"sampler":19,
					"target":{
						"node":4,
						"path":"rotation"
					}
				},
				{
					"sampler":20,
					"target":{
						"node":4,
						"path":"scale"
					}
				},
				{
					"sampler":21,
					"target":{
						"node":5,
						"path":"translation"
					}
				},
				{
					"sampler":22,
					"target":{
						"node":5,
						"path":"rotation"
					}
				},
				{
					"sampler":23,
					"target":{
						"node":5,
						"path":"scale"
					}
				}
			],
			"name":"Swim",
			"samplers":[
				{
					"input":16,
					"interpolation":"LINEAR",
					"output":17
				},
				{
					"input":16,
					"interpolation":"LINEAR",
					"output":18
				},
				{
					"input":16,
					"interpolation":"LINEAR",
					"output":19
				},
				{
					"input":16,
					"interpolation":"LINEAR",
					"output":20
				},
				{
					"input":16,
					"interpolation":"LINEAR",
					"output":21
				},
				{
					"input":16,
					"interpolation":"LINEAR",
					"output":22
				},
				{
					"input":16,
					"interpolation":"LINEAR",
					"output":23
				},
				{
					"input":16,
					"interpolation":"LINEAR",
					"output":24
				},
				{
					"input":16,
					"interpolation":"LINEAR",
					"output":25
				},
				{
					"input":16,
					"interpolation":"LINEAR",
					"output":26
				},
				{
					"input":16,
					"interpolation":"LINEAR",
					"output":27
				},
				{
					"input":16,
					"interpolation":"LINEAR",
					"output":28
				},
				{
					"input":16,
					"interpolation":"LINEAR",
					"output":29
				},
				{
					"input":16,
					"interpolation":"LINEAR",
					"output":30
				},
				{
					"input":16,
					"interpolation":"LINEAR",
					"output":31
				},
				{
					"input":16,
					"interpolation":"LINEAR",
					"output":32
				},
				{
					"input":16,
					"interpolation":"LINEAR",
					"output":33
				},
				{
					"input":16,
					"interpolation":"LINEAR",
					"output":34
				},
				{
					"input":16,
					"interpolation":"LINEAR",
					"output":35
				},
				{
					"input":16,
					"interpolation":"LINEAR",
					"output":36
				},
				{
					"input":16,
					"interpolation":"LINEAR",
					"output":37
				},
				{
					"input":16,
					"interpolation":"LINEAR",
					"output":38
				},
				{
					"input":16,
					"interpolation":"LINEAR",
					"output":39
				},
				{
					"input":16,
					"interpolation":"LINEAR",
					"output":40
				}
			]
		}
	],
	"materials":[
		{
			"doubleSided":true,
			"name":"Bottom",
			"pbrMetallicRoughness":{
				"baseColorFactor":[
					0.6845993995666504,
					0.8000138998031616,
					0.727851390838623,
					1
				],
				"metallicFactor":0,
				"roughnessFactor":0.5
			}
		},
		{
			"doubleSided":true,
			"name":"Top",
			"pbrMetallicRoughness":{
				"baseColorFactor":[
					0.800017237663269,
					0.35866376757621765,
					0.2407217174768448,
					1
				],
				"metallicFactor":0,
				"roughnessFactor":0.5
			}
		},
		{
			"doubleSided":true,
			"name":"Fins",
			"pbrMetallicRoughness":{
				"baseColorFactor":[
					0.8000023365020752,
					0.6559876799583435,
					0.4017064571380615,
					1
				],
				"metallicFactor":0,
				"roughnessFactor":0.5
			}
		}
	],
	"meshes":[
		{
			"name":"Cube",
			"primitives":[
				{
					"attributes":{
						"POSITION":0,
						"NORMAL":1,
						"JOINTS_0":2,
						"WEIGHTS_0":3
					},
					"indices":4,
					"material":0
				},
				{
					"attributes":{
						"POSITION":5,
						"NORMAL":6,
						"JOINTS_0":7,
						"WEIGHTS_0":8
					},
					"indices":9,
					"material":1
				},
				{
					"attributes":{
						"POSITION":10,
						"NORMAL":11,
						"JOINTS_0":12,
						"WEIGHTS_0":13
					},
					"indices":14,
					"material":2
				}
			]
		}
	],
	"skins":[
		{
			"inverseBindMatrices":15,
			"joints":[
				7,
				3,
				2,
				1,
				0,
				6,
				4,
				5
			],
			"name":"Armature"
		}
	],
	"accessors":[
		{
			"bufferView":0,
			"componentType":5126,
			"count":392,
			"max":[
				0.40653109550476074,
				0.619388222694397,
				3.0258779525756836
			],
			"min":[
				-0.40653109550476074,
				-0.978499174118042,
				-4.059358596801758
			],
			"type":"VEC3"
		},
		{
			"bufferView":1,
			"componentType":5126,
			"count":392,
			"type":"VEC3"
		},
		{
			"bufferView":2,
			"componentType":5121,
			"count":392,
			"type":"VEC4"
		},
		{
			"bufferView":3,
			"componentType":5126,
			"count":392,
			"type":"VEC4"
		},
		{
			"bufferView":4,
			"componentType":5123,
			"count":564,
			"type":"SCALAR"
		},
		{
			"bufferView":5,
			"componentType":5126,
			"count":188,
			"max":[
				0.35130706429481506,
				1.1192981004714966,
				2.177490234375
			],
			"min":[
				-0.35130706429481506,
				-0.10147120803594589,
				-4.059358596801758
			],
			"type":"VEC3"
		},
		{
			"bufferView":6,
			"componentType":5126,
			"count":188,
			"type":"VEC3"
		},
		{
			"bufferView":7,
			"componentType":5121,
			"count":188,
			"type":"VEC4"
		},
		{
			"bufferView":8,
			"componentType":5126,
			"count":188,
			"type":"VEC4"
		},
		{
			"bufferView":9,
			"componentType":5123,
			"count":282,
			"type":"SCALAR"
		},
		{
			"bufferView":10,
			"componentType":5126,
			"count":518,
			"max":[
				0.5767703652381897,
				1.4666905403137207,
				1.0695481300354004
			],
			"min":[
				-0.5767703652381897,
				-1.1992310285568237,
				-4.957615375518799
			],
			"type":"VEC3"
		},
		{
			"bufferView":11,
			"componentType":5126,
			"count":518,
			"type":"VEC3"
		},
		{
			"bufferView":12,
			"componentType":5121,
			"count":518,
			"type":"VEC4"
		},
		{
			"bufferView":13,
			"componentType":5126,
			"count":518,
			"type":"VEC4"
		},
		{
			"bufferView":14,
			"componentType":5123,
			"count":786,
			"type":"SCALAR"
		},
		{
			"bufferView":15,
			"componentType":5126,
			"count":8,
			"type":"MAT4"
		},
		{
			"bufferView":16,
			"componentType":5126,
			"count":32,
			"max":[
				1.2916666666666667
			],
			"min":[
				0
			],
			"type":"SCALAR"
		},
		{
			"bufferView":17,
			"componentType":5126,
			"count":32,
			"type":"VEC3"
		},
		{
			"bufferView":18,
			"componentType":5126,
			"count":32,
			"type":"VEC4"
		},
		{
			"bufferView":19,
			"componentType":5126,
			"count":32,
			"type":"VEC3"
		},
		{
			"bufferView":20,
			"componentType":5126,
			"count":32,
			"type":"VEC3"
		},
		{
			"bufferView":21,
			"componentType":5126,
			"count":32,
			"type":"VEC4"
		},
		{
			"bufferView":22,
			"componentType":5126,
			"count":32,
			"type":"VEC3"
		},
		{
			"bufferView":23,
			"componentType":5126,
			"count":32,
			"type":"VEC3"
		},
		{
			"bufferView":24,
			"componentType":5126,
			"count":32,
			"type":"VEC4"
		},
		{
			"bufferView":25,
			"componentType":5126,
			"count":32,
			"type":"VEC3"
		},
		{
			"bufferView":26,
			"componentType":5126,
			"count":32,
			"type":"VEC3"
		},
		{
			"bufferView":27,
			"componentType":5126,
			"count":32,
			"type":"VEC4"
		},
		{
			"bufferView":28,
			"componentType":5126,
			"count":32,
			"type":"VEC3"
		},
		{
			"bufferView":29,
			"componentType":5126,
			"count":32,
			"type":"VEC3"
		},
		{
			"bufferView":30,
			"componentType":5126,
			"count":32,
			"type":"VEC4"
		},
		{
			"bufferView":31,
			"componentType":5126,
			"count":32,
			"type":"VEC3"
		},
		{
			"bufferView":32,
			"componentType":5126,
			"count":32,
			"type":"VEC3"
		},
		{
			"bufferView":33,
			"componentType":5126,
			"count":32,
			"type":"VEC4"
		},
		{
			"bufferView":34,
			"componentType":5126,
			"count":32,
			"type":"VEC3"
		},
		{
			"bufferView":35,
			"componentType":5126,
			"count":32,
			"type":"VEC3"
		},
		{
			"bufferView":36,
			"componentType":5126,
			"count":32,
			"type":"VEC4"
		},
		{
			"bufferView":37,
			"componentType":5126,
			"count":32,
			"type":"VEC3"
		},
		{
			"bufferView":38,
			"componentType":5126,
			"count":32,
			"type":"VEC3"
		},
		{
			"bufferView":39,
			"componentType":5126,
			"count":32,
			"type":"VEC4"
		},
		{
			"bufferView":40,
			"componentType":5126,
			"count":32,
			"type":"VEC3"
		}
	],
	"bufferViews":[
		{
			"buffer":0,
			"byteLength":4704,
			"byteOffset":0,
			"target":34962
		},
		{
			"buffer":0,
			"byteLength":4704,
			"byteOffset":4704,
			"target":34962
		},
		{
			"buffer":0,
			"byteLength":1568,
			"byteOffset":9408,
			"target":34962
		},
		{
			"buffer":0,
			"byteLength":6272,
			"byteOffset":10976,
			"target":34962
		},
		{
			"buffer":0,
			"byteLength":1128,
			"byteOffset":17248,
			"target":34963
		},
		{
			"buffer":0,
			"byteLength":2256,
			"byteOffset":18376,
			"target":34962
		},
		{
			"buffer":0,
			"byteLength":2256,
			"byteOffset":20632,
			"target":34962
		},
		{
			"buffer":0,
			"byteLength":752,
			"byteOffset":22888,
			"target":34962
		},
		{
			"buffer":0,
			"byteLength":3008,
			"byteOffset":23640,
			"target":34962
		},
		{
			"buffer":0,
			"byteLength":564,
			"byteOffset":26648,
			"target":34963
		},
		{
			"buffer":0,
			"byteLength":6216,
			"byteOffset":27212,
			"target":34962
		},
		{
			"buffer":0,
			"byteLength":6216,
			"byteOffset":33428,
			"target":34962
		},
		{
			"buffer":0,
			"byteLength":2072,
			"byteOffset":39644,
			"target":34962
		},
		{
			"buffer":0,
			"byteLength":8288,
			"byteOffset":41716,
			"target":34962
		},
		{
			"buffer":0,
			"byteLength":1572,
			"byteOffset":50004,
			"target":34963
		},
		{
			"buffer":0,
			"byteLength":512,
			"byteOffset":51576
		},
		{
			"buffer":0,
			"byteLength":128,
			"byteOffset":52088
		},
		{
			"buffer":0,
			"byteLength":384,
			"byteOffset":52216
		},
		{
			"buffer":0,
			"byteLength":512,
			"byteOffset":52600
		},
		{
			"buffer":0,
			"byteLength":384,
			"byteOffset":53112
		},
		{
			"buffer":0,
			"byteLength":384,
			"byteOffset":53496
		},
		{
			"buffer":0,
			"byteLength":512,
			"byteOffset":53880
		},
		{
			"buffer":0,
			"byteLength":384,
			"byteOffset":54392
		},
		{
			"buffer":0,
			"byteLength":384,
			"byteOffset":54776
		},
		{
			"buffer":0,
			"byteLength":512,
			"byteOffset":55160
		},
		{
			"buffer":0,
			"byteLength":384,
			"byteOffset":55672
		},
		{
			"buffer":0,
			"byteLength":384,
			"byteOffset":56056
		},
		{
			"buffer":0,
			"byteLength":512,
			"byteOffset":56440
		},
		{
			"buffer":0,
			"byteLength":384,
			"byteOffset":56952
		},
		{
			"buffer":0,
			"byteLength":384,
			"byteOffset":57336
		},
		{
			"buffer":0,
			"byteLength":512,
			"byteOffset":57720
		},
		{
			"buffer":0,
			"byteLength":384,
			"byteOffset":58232
		},
		{
			"buffer":0,
			"byteLength":384,
			"byteOffset":58616
		},
		{
			"buffer":0,
			"byteLength":512,
			"byteOffset":59000
		},
		{
			"buffer":0,
			"byteLength":384,
			"byteOffset":59512
		},
		{
			"buffer":0,
			"byteLength":384,
			"byteOffset":59896
		},
		{
			"buffer":0,
			"byteLength":512,
			"byteOffset":60280
		},
		{
			"buffer":0,
			"byteLength":384,
			"byteOffset":60792
		},
		{
			"buffer":0,
			"byteLength":384,
			"byteOffset":61176
		},
		{
			"buffer":0,
			"byteLength":512,
			"byteOffset":61560
		},
		{
			"buffer":0,
			"byteLength":384,
			"byteOffset":62072
		}
	],
	"buffers":[
		{
			"byteLength":62456,
			"uri":"fish.bin"
		}
	]
}
