<svg width="673" height="591" viewBox="0 0 673 591" fill="none" xmlns="http://www.w3.org/2000/svg">
<path d="M532.523 206.826C416.143 120.353 256.857 120.353 140.491 206.826C132.225 212.971 125.511 220.964 120.884 230.166C116.258 239.368 113.848 249.525 113.847 259.825V343.351C113.847 365.327 124.78 385.871 143.024 398.14L201.256 437.314C217.87 448.49 237.439 454.459 257.463 454.457H415.551C435.572 454.457 455.152 448.481 471.758 437.314L529.989 398.14C538.971 392.098 546.329 383.941 551.417 374.387C556.505 364.833 559.166 354.175 559.167 343.351V259.825C559.167 238.936 549.281 219.287 532.523 206.826Z" fill="#1C2330"/>
<path d="M653.888 230.358L644.649 228.031C642.074 227.384 639.444 228.94 638.797 231.528C638.149 234.117 639.705 236.733 642.294 237.38L651.533 239.708C657.964 241.332 662.453 247.088 662.453 253.725V286.965C659.491 280.998 655.272 275.745 650.085 271.566C644.898 267.387 638.867 264.382 632.407 262.758C631.229 262.458 630 262.407 628.8 262.609C627.601 262.81 626.456 263.26 625.44 263.928C619.134 214.922 600.572 168.657 570.775 128.45C534.85 79.9534 485.886 44.3592 429.018 25.3435C428.935 24.4347 428.77 23.5397 428.494 22.6584C427.869 20.6738 426.779 18.8668 425.316 17.387C423.853 15.9072 422.059 14.7972 420.081 14.1488C393.148 5.37764 365.017 0.943848 336.473 0.943848C307.928 0.943848 279.797 5.39141 252.864 14.1488C248.857 15.4569 245.704 18.6377 244.451 22.6584C243.827 24.6518 243.689 26.7654 244.049 28.823C244.408 30.8806 245.254 32.8224 246.516 34.4864C262.27 55.2518 271.917 80.0011 274.372 105.95C209.669 115.878 148.615 141.338 95.1617 181.063L75.4712 195.7C102.515 129.193 154.522 74.0463 222.626 43.9186C223.774 43.3875 224.668 42.4267 225.115 41.2432C225.561 40.0597 225.525 38.7481 225.014 37.5909C224.503 36.4336 223.558 35.5233 222.383 35.056C221.207 34.5887 219.895 34.6017 218.729 35.0923C138.673 70.5213 80.1253 139.369 56.5656 220.926L19.1125 230.372C13.9063 231.678 9.28641 234.687 5.98784 238.921C2.68927 243.155 0.901573 248.371 0.909204 253.739V351.626C0.909204 362.711 8.4136 372.322 19.1676 375.007L57.5984 384.604C58.6311 387.978 59.7464 391.338 60.9168 394.684C60.9994 395.11 61.1509 395.524 61.3437 395.909C77.5917 441.858 105.847 484.957 145.352 523.36C146.288 524.269 147.5 524.723 148.711 524.723C149.964 524.723 151.217 524.241 152.167 523.263C152.61 522.81 152.958 522.274 153.192 521.686C153.427 521.097 153.543 520.469 153.534 519.836C153.525 519.202 153.391 518.577 153.14 517.996C152.889 517.414 152.526 516.888 152.071 516.448C117.62 482.946 91.9671 445.824 75.6778 406.346L169.283 469.314C190.364 483.497 214.943 490.988 240.348 490.988H432.68C458.085 490.988 482.664 483.497 503.745 469.314L598.259 405.741C578.458 455.49 544.641 499.332 499.931 531.236H171.996C161.131 531.236 152.291 540.076 152.291 550.94V571.003C152.291 581.867 161.131 590.707 171.996 590.707H500.991C511.855 590.707 520.695 581.867 520.695 571.003V550.94C520.695 544.069 517.143 538.011 511.8 534.486C562.073 496.551 598.204 443.703 615.788 384.535L653.833 375.034C659.052 373.739 663.686 370.732 666.995 366.494C670.305 362.256 672.099 357.031 672.091 351.654V253.766C672.105 242.668 664.614 233.057 653.888 230.358ZM511.07 570.961C511.07 576.51 506.554 581.027 501.005 581.027H472.874C473.948 579.374 474.581 577.405 474.581 575.285C474.581 560.427 466.333 547.498 454.161 540.82H501.005C506.554 540.82 511.07 545.336 511.07 550.885V570.961ZM426.36 34.6104C481.177 53.034 528.379 87.389 563.037 134.192C577.288 153.441 588.882 174.123 597.708 195.852L577.811 181.063C524.358 141.338 463.29 115.878 398.601 105.95C401.052 80.0545 410.664 55.3524 426.36 34.6104ZM254.227 28.6619C253.539 27.7669 253.346 26.624 253.69 25.55C254.021 24.476 254.833 23.6636 255.893 23.3193C281.863 14.8648 308.989 10.5825 336.514 10.5825C364.039 10.5825 391.165 14.8648 417.135 23.3193C418.195 23.6636 418.993 24.476 419.338 25.55C419.682 26.624 419.475 27.7669 418.801 28.6619C402.059 50.737 391.772 77.0257 389.086 104.601C371.778 102.37 354.249 101.214 336.528 101.214C318.806 101.214 301.278 102.356 283.969 104.601C281.243 77.0067 270.985 50.762 254.227 28.6619ZM47.5741 263.956C46.5591 263.273 45.4108 262.813 44.2051 262.607C42.9994 262.4 41.7636 262.452 40.5792 262.758C34.1194 264.382 28.0884 267.387 22.9016 271.566C17.7148 275.745 13.4954 280.998 10.5341 286.965V253.725C10.5341 247.088 15.023 241.332 21.4533 239.708L53.6878 231.584C51.0716 242.186 49.0062 252.995 47.5741 263.956ZM603.863 390.319L498.361 461.301C478.877 474.409 456.157 481.335 432.68 481.335H240.334C216.843 481.335 194.137 474.409 174.653 461.301L69.7706 390.746C59.8566 362.036 54.7756 332.198 54.7756 301.712C54.7756 270.785 59.8566 240.644 69.3713 212.279L100.945 188.815C169.558 137.827 251.019 110.866 336.514 110.866C422.009 110.866 503.47 137.813 572.083 188.815L603.863 212.43C613.364 240.905 618.252 270.937 618.252 301.726C618.239 332.184 613.254 362.064 603.863 390.319Z" fill="#1C2330"/>
</svg>
