<svg width="257" height="252" viewBox="0 0 257 252" fill="none" xmlns="http://www.w3.org/2000/svg">
<circle cx="125.056" cy="125.057" r="124.5" transform="rotate(90 125.056 125.057)" stroke="url(#paint0_linear_136_384)" stroke-opacity="0.2"/>
<mask id="path-2-inside-1_136_384" fill="white">
<path d="M131.057 243.057C131.057 247.475 134.642 251.084 139.051 250.801C152.732 249.924 166.194 246.802 178.892 241.542C194.058 235.26 207.838 226.053 219.445 214.445C231.052 202.838 240.26 189.058 246.542 173.892C252.823 158.727 256.057 142.472 256.057 126.057C256.057 109.642 252.823 93.3871 246.542 78.2214C240.26 63.0558 231.052 49.2759 219.445 37.6685C207.838 26.0612 194.058 16.8538 178.892 10.5719C166.194 5.31204 152.732 2.18954 139.051 1.31279C134.642 1.03021 131.057 4.6386 131.057 9.05688L131.057 38.0148C131.057 42.4331 134.647 45.9734 139.043 46.4143C146.815 47.1936 154.445 49.1078 161.687 52.1077C171.399 56.1302 180.222 62.026 187.655 69.4586C195.087 76.8912 200.983 85.715 205.006 95.4261C209.028 105.137 211.099 115.546 211.099 126.057C211.099 136.568 209.028 146.976 205.006 156.688C200.983 166.399 195.087 175.223 187.655 182.655C180.222 190.088 171.399 195.984 161.687 200.006C154.445 203.006 146.815 204.92 139.043 205.699C134.647 206.14 131.057 209.681 131.057 214.099L131.057 243.057Z"/>
</mask>
<path d="M131.057 243.057C131.057 247.475 134.642 251.084 139.051 250.801C152.732 249.924 166.194 246.802 178.892 241.542C194.058 235.26 207.838 226.053 219.445 214.445C231.052 202.838 240.26 189.058 246.542 173.892C252.823 158.727 256.057 142.472 256.057 126.057C256.057 109.642 252.823 93.3871 246.542 78.2214C240.26 63.0558 231.052 49.2759 219.445 37.6685C207.838 26.0612 194.058 16.8538 178.892 10.5719C166.194 5.31204 152.732 2.18954 139.051 1.31279C134.642 1.03021 131.057 4.6386 131.057 9.05688L131.057 38.0148C131.057 42.4331 134.647 45.9734 139.043 46.4143C146.815 47.1936 154.445 49.1078 161.687 52.1077C171.399 56.1302 180.222 62.026 187.655 69.4586C195.087 76.8912 200.983 85.715 205.006 95.4261C209.028 105.137 211.099 115.546 211.099 126.057C211.099 136.568 209.028 146.976 205.006 156.688C200.983 166.399 195.087 175.223 187.655 182.655C180.222 190.088 171.399 195.984 161.687 200.006C154.445 203.006 146.815 204.92 139.043 205.699C134.647 206.14 131.057 209.681 131.057 214.099L131.057 243.057Z" fill="url(#paint1_linear_136_384)" stroke="url(#paint2_linear_136_384)" stroke-opacity="0.7" stroke-width="2" mask="url(#path-2-inside-1_136_384)"/>
<g clip-path="url(#clip0_136_384)">
<path d="M66.2504 175.168H76.8218C80.3252 175.164 83.6839 173.77 86.1611 171.293C88.6384 168.816 90.0319 165.457 90.0361 161.954V156.668C90.0361 155.967 89.7577 155.295 89.2621 154.799C88.7664 154.304 88.0942 154.025 87.3933 154.025H82.1076C80.0529 154.027 78.0272 154.509 76.1918 155.432C74.3564 156.356 72.7621 157.695 71.5361 159.344C70.3102 157.695 68.7159 156.356 66.8805 155.432C65.0451 154.509 63.0193 154.027 60.9647 154.025H55.679C54.9781 154.025 54.3058 154.304 53.8102 154.799C53.3146 155.295 53.0361 155.967 53.0361 156.668V161.954C53.0403 165.457 54.4339 168.816 56.9111 171.293C59.3884 173.77 62.7471 175.164 66.2504 175.168ZM74.179 167.24C74.1814 165.138 75.0176 163.122 76.5039 161.636C77.9903 160.15 80.0055 159.313 82.1076 159.311H84.7504V161.954C84.748 164.056 83.9119 166.071 82.4255 167.557C80.9391 169.044 78.9239 169.88 76.8218 169.882H74.179V167.24ZM58.3218 159.311H60.9647C63.0667 159.313 65.082 160.15 66.5683 161.636C68.0547 163.122 68.8908 165.138 68.8933 167.24V169.882H66.2504C64.1484 169.88 62.1331 169.044 60.6468 167.557C59.1604 166.071 58.3243 164.056 58.3218 161.954V159.311ZM115.143 127.597C114.442 127.597 113.77 127.875 113.274 128.371C112.779 128.866 112.5 129.539 112.5 130.24V135.525C112.505 139.029 113.898 142.387 116.375 144.865C118.853 147.342 122.211 148.735 125.715 148.74H136.286C139.789 148.735 143.148 147.342 145.625 144.865C148.103 142.387 149.496 139.029 149.5 135.525V130.24C149.5 129.539 149.222 128.866 148.726 128.371C148.231 127.875 147.558 127.597 146.858 127.597H141.572C139.517 127.599 137.491 128.081 135.656 129.004C133.82 129.928 132.226 131.268 131 132.917C129.775 131.268 128.18 129.928 126.345 129.004C124.51 128.081 122.484 127.599 120.429 127.597H115.143ZM133.643 140.811C133.646 138.709 134.482 136.694 135.968 135.207C137.455 133.721 139.47 132.885 141.572 132.882H144.215V135.525C144.212 137.627 143.376 139.643 141.89 141.129C140.403 142.615 138.388 143.451 136.286 143.454H133.643V140.811ZM128.358 140.811V143.454H125.715C123.613 143.451 121.597 142.615 120.111 141.129C118.625 139.643 117.789 137.627 117.786 135.525V132.882H120.429C122.531 132.885 124.546 133.721 126.033 135.207C127.519 136.694 128.355 138.709 128.358 140.811Z" fill="#386EE9"/>
<path d="M131 127.597C131.689 127.597 132.351 127.328 132.845 126.846L136.459 123.322C137.658 122.163 138.612 120.774 139.263 119.238C139.915 117.702 140.251 116.051 140.251 114.383C140.251 112.714 139.915 111.063 139.263 109.527C138.612 107.991 137.658 106.603 136.459 105.443L132.845 101.919C132.351 101.437 131.689 101.168 130.999 101.168C130.31 101.168 129.647 101.437 129.154 101.919L125.541 105.443C124.342 106.603 123.388 107.991 122.736 109.527C122.085 111.063 121.749 112.714 121.749 114.383C121.749 116.051 122.085 117.702 122.736 119.238C123.388 120.774 124.342 122.163 125.541 123.322L129.154 126.846C129.647 127.328 130.31 127.598 131 127.597ZM129.232 109.228L131 107.503L132.768 109.228C133.462 109.895 134.014 110.695 134.392 111.581C134.769 112.467 134.964 113.42 134.964 114.383C134.964 115.345 134.769 116.298 134.392 117.184C134.014 118.07 133.462 118.87 132.768 119.537L131 121.262L129.232 119.537C128.537 118.87 127.985 118.07 127.608 117.184C127.23 116.298 127.036 115.345 127.036 114.383C127.036 113.42 127.23 112.467 127.608 111.581C127.985 110.695 128.537 109.895 129.232 109.228Z" fill="#364362"/>
<path d="M210.469 102.161H209.837C205.752 102.165 201.836 103.79 198.947 106.679C196.059 109.567 194.433 113.483 194.428 117.568V118.2C194.43 119.553 194.968 120.849 195.924 121.806C196.881 122.762 198.178 123.3 199.53 123.302H200.162C204.247 123.297 208.164 121.672 211.052 118.783C213.941 115.895 215.566 111.978 215.571 107.893V107.261C215.569 105.909 215.031 104.612 214.074 103.656C213.118 102.7 211.821 102.162 210.469 102.161ZM210.285 107.892C210.282 110.575 209.214 113.148 207.316 115.046C205.418 116.943 202.846 118.011 200.162 118.014H199.714V117.567C199.717 114.883 200.785 112.31 202.682 110.412C204.58 108.514 207.153 107.447 209.837 107.444H210.285V107.892ZM178.123 123.302H178.755C180.107 123.3 181.404 122.762 182.36 121.806C183.317 120.849 183.855 119.553 183.857 118.2V117.568C183.851 113.483 182.226 109.567 179.338 106.679C176.449 103.79 172.533 102.165 168.448 102.161H167.816C166.464 102.162 165.167 102.7 164.211 103.656C163.254 104.612 162.716 105.909 162.714 107.261V107.893C162.719 111.978 164.344 115.894 167.233 118.783C170.122 121.671 174.038 123.297 178.123 123.302ZM168 107.445H168.448C171.131 107.448 173.705 108.516 175.602 110.413C177.5 112.311 178.568 114.884 178.571 117.568V118.016H178.123C175.439 118.013 172.866 116.946 170.968 115.048C169.07 113.15 168.003 110.577 168 107.893V107.445ZM194.428 72.098C195.129 72.098 195.801 71.8196 196.297 71.3239C196.793 70.8283 197.071 70.1561 197.071 69.4552C197.071 68.7542 196.793 68.082 196.297 67.5864C195.801 67.0908 195.129 66.8123 194.428 66.8123H191.785V65.4909C191.785 64.79 191.507 64.1177 191.011 63.6221C190.516 63.1265 189.843 62.848 189.142 62.848C188.442 62.848 187.769 63.1265 187.274 63.6221C186.778 64.1177 186.5 64.79 186.5 65.4909V66.8123C185.098 66.8137 183.755 67.371 182.764 68.362C181.773 69.353 181.215 70.6966 181.214 72.098V74.7409C181.215 76.1423 181.773 77.4859 182.764 78.4769C183.755 79.4679 185.098 80.0252 186.5 80.0266H191.785V82.6695H183.857C183.156 82.6695 182.484 82.9479 181.988 83.4435C181.492 83.9392 181.214 84.6114 181.214 85.3123C181.214 86.0132 181.492 86.6855 181.988 87.1811C182.484 87.6767 183.156 87.9552 183.857 87.9552H186.5V89.2766C186.5 89.9775 186.778 90.6497 187.274 91.1454C187.769 91.641 188.442 91.9195 189.142 91.9195C189.843 91.9195 190.516 91.641 191.011 91.1454C191.507 90.6497 191.785 89.9775 191.785 89.2766V87.9552C193.187 87.9538 194.53 87.3964 195.521 86.4055C196.512 85.4145 197.07 84.0709 197.071 82.6695V80.0266C197.07 78.6252 196.512 77.2815 195.521 76.2906C194.53 75.2996 193.187 74.7423 191.785 74.7409H186.5V72.098H194.428Z" fill="#386EE9"/>
<path d="M128.357 31.6822C129.141 31.6822 129.908 31.4497 130.56 31.0141C131.212 30.5785 131.72 29.9593 132.02 29.235C132.32 28.5106 132.398 27.7135 132.245 26.9445C132.092 26.1755 131.715 25.4691 131.16 24.9147C130.606 24.3603 129.9 23.9827 129.131 23.8298C128.362 23.6768 127.565 23.7553 126.84 24.0554C126.116 24.3554 125.497 24.8635 125.061 25.5154C124.625 26.1674 124.393 26.9338 124.393 27.7179C124.394 28.769 124.812 29.7767 125.555 30.5199C126.298 31.2631 127.306 31.6811 128.357 31.6822ZM128.357 25.7357C128.749 25.7357 129.132 25.852 129.458 26.0698C129.784 26.2876 130.038 26.5972 130.188 26.9594C130.339 27.3215 130.378 27.7201 130.301 28.1046C130.225 28.4891 130.036 28.8423 129.759 29.1195C129.482 29.3967 129.128 29.5855 128.744 29.6619C128.359 29.7384 127.961 29.6992 127.599 29.5491C127.237 29.3991 126.927 29.1451 126.709 28.8191C126.491 28.4931 126.375 28.1099 126.375 27.7179C126.375 27.1923 126.584 26.6883 126.956 26.3167C127.328 25.945 127.832 25.7361 128.357 25.7357ZM68.441 21.3314C67.9183 21.3314 67.4073 21.4864 66.9727 21.7768C66.5381 22.0672 66.1994 22.48 65.9993 22.9629C65.7993 23.4458 65.747 23.9772 65.8489 24.4899C65.9509 25.0025 66.2026 25.4735 66.5722 25.8431C66.9418 26.2127 67.4128 26.4644 67.9254 26.5664C68.4381 26.6683 68.9695 26.616 69.4524 26.416C69.9353 26.2159 70.3481 25.8772 70.6385 25.4426C70.9289 25.008 71.0839 24.497 71.0839 23.9743C71.0832 23.2736 70.8045 22.6017 70.309 22.1063C69.8135 21.6108 69.1417 21.3321 68.441 21.3314ZM68.441 25.2957C68.1797 25.2957 67.9242 25.2182 67.7069 25.073C67.4896 24.9278 67.3202 24.7214 67.2202 24.48C67.1202 24.2385 67.094 23.9728 67.145 23.7165C67.196 23.4601 67.3218 23.2247 67.5066 23.0399C67.6914 22.8551 67.9269 22.7292 68.1832 22.6782C68.4395 22.6273 68.7052 22.6534 68.9467 22.7534C69.1882 22.8535 69.3945 23.0228 69.5397 23.2401C69.6849 23.4574 69.7624 23.7129 69.7624 23.9743C69.7621 24.3246 69.6228 24.6605 69.375 24.9083C69.1273 25.156 68.7914 25.2954 68.441 25.2957ZM201.173 22.4322C200.651 22.4322 200.14 22.5872 199.705 22.8776C199.27 23.168 198.932 23.5807 198.732 24.0637C198.532 24.5466 198.479 25.078 198.581 25.5906C198.683 26.1033 198.935 26.5742 199.304 26.9438C199.674 27.3134 200.145 27.5651 200.658 27.6671C201.17 27.7691 201.702 27.7167 202.185 27.5167C202.668 27.3167 203.08 26.9779 203.371 26.5433C203.661 26.1087 203.816 25.5977 203.816 25.075C203.815 24.3743 203.537 23.7025 203.041 23.207C202.546 22.7115 201.874 22.4329 201.173 22.4322ZM201.173 26.3965C200.912 26.3965 200.656 26.319 200.439 26.1738C200.222 26.0286 200.052 25.8222 199.952 25.5807C199.852 25.3393 199.826 25.0736 199.877 24.8172C199.928 24.5609 200.054 24.3254 200.239 24.1406C200.424 23.9558 200.659 23.83 200.915 23.779C201.172 23.728 201.437 23.7542 201.679 23.8542C201.92 23.9542 202.127 24.1236 202.272 24.3409C202.417 24.5582 202.495 24.8137 202.495 25.075C202.494 25.4254 202.355 25.7613 202.107 26.009C201.86 26.2568 201.524 26.3961 201.173 26.3965ZM171.882 38.7148C171.36 38.7148 170.849 38.8698 170.414 39.1602C169.98 39.4506 169.641 39.8634 169.441 40.3463C169.241 40.8292 169.188 41.3606 169.29 41.8733C169.392 42.3859 169.644 42.8568 170.014 43.2265C170.383 43.5961 170.854 43.8478 171.367 43.9497C171.88 44.0517 172.411 43.9994 172.894 43.7994C173.377 43.5993 173.79 43.2606 174.08 42.826C174.37 42.3913 174.525 41.8804 174.525 41.3577C174.525 40.657 174.246 39.9851 173.75 39.4897C173.255 38.9942 172.583 38.7155 171.882 38.7148ZM171.882 42.6791C171.621 42.6791 171.366 42.6016 171.148 42.4564C170.931 42.3112 170.762 42.1048 170.662 41.8634C170.562 41.6219 170.535 41.3562 170.586 41.0999C170.637 40.8435 170.763 40.6081 170.948 40.4233C171.133 40.2385 171.368 40.1126 171.625 40.0616C171.881 40.0106 172.147 40.0368 172.388 40.1368C172.63 40.2368 172.836 40.4062 172.981 40.6235C173.126 40.8408 173.204 41.0963 173.204 41.3577C173.204 41.708 173.064 42.0439 172.816 42.2917C172.569 42.5394 172.233 42.6787 171.882 42.6791ZM50.1617 88.4441C50.1617 87.9214 50.0067 87.4105 49.7163 86.9758C49.4259 86.5412 49.0131 86.2025 48.5302 86.0025C48.0473 85.8024 47.5159 85.7501 47.0032 85.8521C46.4906 85.954 46.0197 86.2057 45.6501 86.5754C45.2804 86.945 45.0287 87.4159 44.9268 87.9285C44.8248 88.4412 44.8771 88.9726 45.0772 89.4555C45.2772 89.9384 45.6159 90.3512 46.0505 90.6416C46.4852 90.932 46.9961 91.087 47.5188 91.087C48.2196 91.0863 48.8914 90.8076 49.3868 90.3121C49.8823 89.8167 50.161 89.1449 50.1617 88.4441ZM46.1974 88.4441C46.1974 88.1828 46.2749 87.9273 46.4201 87.71C46.5653 87.4927 46.7717 87.3233 47.0131 87.2233C47.2546 87.1233 47.5203 87.0971 47.7766 87.1481C48.033 87.1991 48.2684 87.3249 48.4532 87.5097C48.638 87.6945 48.7639 87.93 48.8149 88.1863C48.8659 88.4427 48.8397 88.7084 48.7397 88.9498C48.6397 89.1913 48.4703 89.3977 48.253 89.5429C48.0357 89.6881 47.7802 89.7656 47.5188 89.7656C47.1685 89.7652 46.8326 89.6259 46.5848 89.3781C46.3371 89.1304 46.1978 88.7945 46.1974 88.4441Z" fill="#364362"/>
<path d="M98.8077 64.4549L100.773 61.8715L99.5318 61.1685L98.2712 64.0625H98.2289L96.9471 61.1884L95.6851 61.9125L97.6289 64.4351V64.4761L94.5897 64.0836V65.4883L97.6501 65.0958V65.1381L95.6851 67.6594L96.8638 68.4047L98.209 65.4883H98.2487L99.4895 68.3835L100.792 67.6396L98.8077 65.1579V65.117L101.929 65.4883V64.0836L98.8077 64.4959V64.4549ZM26.3009 42.8813L25.1697 44.3335L25.8476 44.763L26.6233 43.0835H26.6458L27.3607 44.7511L28.1112 44.3216L26.9682 42.8932V42.8694L28.7653 43.0835V42.2734L26.9682 42.5126V42.4888L28.0993 40.9996L27.3844 40.5952L26.659 42.2615H26.6339L25.8965 40.6071L25.1697 41.0234L26.289 42.4769V42.5007L24.5381 42.2734V43.0835L26.3009 42.8575V42.8813ZM229.378 82.9404V81.5621L226.318 81.9678V81.9269L228.244 79.3924L227.027 78.7026L225.79 81.541H225.749L224.493 78.7224L223.253 79.4333L225.161 81.907V81.948L222.179 81.5621V82.9404L225.181 82.5559V82.5968L223.253 85.0705L224.409 85.8013L225.73 82.9404H225.769L226.986 85.7801L228.264 85.0507L226.318 82.6166V82.5757L229.378 82.9404ZM234.304 43.9556L235.967 41.7686L234.917 41.174L233.851 43.6226H233.815L232.73 41.1912L231.663 41.8043L233.308 43.9384V43.9728L230.735 43.6411V44.8304L233.325 44.4987V44.5331L231.663 46.6672L232.659 47.2975L233.798 44.8304H233.833L234.882 47.279L235.984 46.65L234.304 44.5503V44.5159L236.946 44.8304V43.6411L234.304 43.99V43.9556Z" fill="#386EE9"/>
<path d="M22.6429 212.167C24.1025 212.167 25.2857 210.984 25.2857 209.524C25.2857 208.064 24.1025 206.881 22.6429 206.881C21.1832 206.881 20 208.064 20 209.524C20 210.984 21.1832 212.167 22.6429 212.167Z" fill="#364362"/>
<path d="M34.5359 206.881H30.5716C29.8706 206.881 29.1984 207.16 28.7028 207.655C28.2072 208.151 27.9287 208.823 27.9287 209.524C27.9287 210.225 28.2072 210.897 28.7028 211.393C29.1984 211.888 29.8706 212.167 30.5716 212.167H34.5359C35.2368 212.167 35.909 211.888 36.4046 211.393C36.9003 210.897 37.1787 210.225 37.1787 209.524C37.1787 208.823 36.9003 208.151 36.4046 207.655C35.909 207.16 35.2368 206.881 34.5359 206.881ZM231.429 206.881H227.464C226.764 206.881 226.091 207.16 225.596 207.655C225.1 208.151 224.822 208.823 224.822 209.524C224.822 210.225 225.1 210.897 225.596 211.393C226.091 211.888 226.764 212.167 227.464 212.167H231.429C232.13 212.167 232.802 211.888 233.298 211.393C233.793 210.897 234.072 210.225 234.072 209.524C234.072 208.823 233.793 208.151 233.298 207.655C232.802 207.16 232.13 206.881 231.429 206.881Z" fill="#364362"/>
<path d="M239.357 212.167C240.816 212.167 242 210.984 242 209.524C242 208.064 240.816 206.881 239.357 206.881C237.897 206.881 236.714 208.064 236.714 209.524C236.714 210.984 237.897 212.167 239.357 212.167Z" fill="#364362"/>
<path d="M176.132 217.453H165.154C164.488 217.504 163.866 217.805 163.413 218.295C162.959 218.785 162.708 219.428 162.708 220.095C162.708 220.763 162.959 221.406 163.413 221.896C163.866 222.386 164.488 222.687 165.154 222.738H176.132C176.798 222.687 177.419 222.386 177.873 221.896C178.326 221.406 178.578 220.763 178.578 220.095C178.578 219.428 178.326 218.785 177.873 218.295C177.419 217.805 176.798 217.504 176.132 217.453ZM96.8462 217.453H85.8678C85.2022 217.504 84.5806 217.805 84.1272 218.295C83.6738 218.785 83.4219 219.428 83.4219 220.095C83.4219 220.763 83.6738 221.406 84.1272 221.896C84.5806 222.386 85.2022 222.687 85.8678 222.738H96.8462C97.5118 222.687 98.1334 222.386 98.5868 221.896C99.0403 221.406 99.2921 220.763 99.2921 220.095C99.2921 219.428 99.0403 218.785 98.5868 218.295C98.1334 217.805 97.5118 217.504 96.8462 217.453ZM157.428 217.453H104.571C103.87 217.453 103.198 217.731 102.703 218.227C102.207 218.722 101.928 219.394 101.928 220.095C101.928 220.796 102.207 221.469 102.703 221.964C103.198 222.46 103.87 222.738 104.571 222.738H125.635V225.381H115.143C114.442 225.381 113.77 225.66 113.274 226.155C112.778 226.651 112.5 227.323 112.5 228.024C112.5 228.725 112.778 229.397 113.274 229.893C113.77 230.388 114.442 230.667 115.143 230.667H148.178C148.879 230.667 149.552 230.388 150.047 229.893C150.543 229.397 150.821 228.725 150.821 228.024C150.821 227.323 150.543 226.651 150.047 226.155C149.552 225.66 148.879 225.381 148.178 225.381H136.365V222.738H157.428C158.129 222.738 158.802 222.46 159.297 221.964C159.793 221.469 160.071 220.796 160.071 220.095C160.071 219.394 159.793 218.722 159.297 218.227C158.802 217.731 158.129 217.453 157.428 217.453Z" fill="#386EE9"/>
<path d="M219.167 206.881H215.109C215.413 206.033 215.57 205.139 215.571 204.238V201.595C215.571 199.642 214.846 197.759 213.536 196.31C214.846 194.86 215.571 192.977 215.571 191.024V188.381C215.571 186.428 214.846 184.545 213.536 183.095C214.846 181.646 215.571 179.763 215.571 177.81V175.167C215.571 173.214 214.846 171.33 213.536 169.881C214.846 168.432 215.571 166.548 215.571 164.595V161.953C215.571 159.999 214.846 158.116 213.536 156.667C214.846 155.218 215.571 153.334 215.571 151.381V148.738C215.571 146.785 214.846 144.902 213.536 143.453C214.846 142.003 215.571 140.12 215.571 138.167V135.524C215.569 133.422 214.733 131.407 213.246 129.92C211.76 128.434 209.745 127.598 207.643 127.595H191.786V103.422C192.822 103.816 193.949 103.908 195.035 103.687C196.545 103.222 197.867 102.287 198.808 101.017C199.112 100.64 199.458 100.297 199.838 99.996C200.312 99.873 200.798 99.806 201.287 99.7965C202.845 99.8282 204.372 99.3585 205.643 98.4566C206.783 97.3841 207.561 95.9833 207.867 94.4487C207.985 93.9514 208.161 93.47 208.393 93.0149C208.766 92.6946 209.175 92.42 209.613 92.197C211.033 91.535 212.206 90.4411 212.967 89.0718C213.53 87.6243 213.634 86.0386 213.264 84.53C213.155 84.0134 213.11 83.4852 213.132 82.9575C213.332 82.5093 213.582 82.0851 213.877 81.6929C214.875 80.467 215.467 78.9611 215.571 77.3837C215.467 75.8064 214.875 74.3004 213.877 73.0746C213.582 72.6823 213.332 72.2576 213.132 71.8086C213.11 71.2815 213.155 70.7536 213.264 70.2375C213.633 68.7294 213.53 67.1444 212.968 65.697C212.208 64.327 211.034 63.2326 209.614 62.5705C209.177 62.3471 208.767 62.0721 208.395 61.7512C208.162 61.2959 207.985 60.8146 207.866 60.3175C207.56 58.7834 206.784 57.3827 205.646 56.3096C204.376 55.4078 202.85 54.9377 201.292 54.9683C200.802 54.96 200.315 54.8934 199.841 54.7701C199.459 54.4696 199.113 54.127 198.808 53.7487C197.868 52.4788 196.546 51.5433 195.036 51.0794C193.509 50.8368 191.945 51.0906 190.573 51.8035C190.117 52.0192 189.637 52.1781 189.143 52.2766C188.649 52.1781 188.168 52.0192 187.713 51.8035C186.342 51.0895 184.777 50.8352 183.251 51.0781C181.741 51.5428 180.419 52.4781 179.478 53.7473C179.173 54.1249 178.827 54.4675 178.447 54.7688C177.974 54.8918 177.488 54.9588 176.999 54.9683C175.441 54.9366 173.913 55.4063 172.642 56.3083C171.502 57.3808 170.725 58.7816 170.418 60.3162C170.301 60.8134 170.124 61.2948 169.892 61.7499C169.52 62.0707 169.11 62.3458 168.673 62.5692C167.253 63.2312 166.079 64.3251 165.319 65.6944C164.756 67.1415 164.652 68.7267 165.021 70.2348C165.131 70.7514 165.175 71.2797 165.154 71.8073C164.954 72.2555 164.703 72.6798 164.408 73.0719C163.41 74.2985 162.818 75.8055 162.714 77.3837C162.819 78.9606 163.411 80.4661 164.408 81.6916C164.704 82.0843 164.954 82.5094 165.154 82.9589C165.175 83.4856 165.131 84.013 165.021 84.5287C164.652 86.0372 164.756 87.6227 165.317 89.0705C166.078 90.4395 167.252 91.5329 168.671 92.1943C169.109 92.4177 169.519 92.6928 169.891 93.0136C170.123 93.4689 170.301 93.9502 170.419 94.4474C170.725 95.9814 171.501 97.3822 172.639 98.4552C173.91 99.357 175.436 99.8272 176.994 99.7965C177.483 99.8053 177.97 99.8723 178.445 99.996C178.826 100.297 179.173 100.639 179.478 101.017C180.417 102.287 181.739 103.223 183.249 103.687C183.617 103.772 183.993 103.814 184.37 103.814C185.097 103.798 185.816 103.665 186.5 103.417V127.598H173.286C171.184 127.6 169.168 128.437 167.682 129.923C166.196 131.409 165.36 133.425 165.357 135.527V138.169C165.358 140.123 166.083 142.006 167.392 143.455C166.083 144.904 165.358 146.788 165.357 148.741V151.384C165.358 153.337 166.083 155.22 167.392 156.669C166.083 158.119 165.358 160.002 165.357 161.955V164.598C165.358 166.551 166.083 168.435 167.392 169.884C166.083 171.333 165.358 173.216 165.357 175.169V177.812C165.358 179.765 166.083 181.649 167.392 183.098C166.083 184.547 165.358 186.431 165.357 188.384V191.027C165.358 192.98 166.083 194.863 167.392 196.312C166.083 197.762 165.358 199.645 165.357 201.598V204.241C165.359 205.142 165.515 206.036 165.82 206.884H155.645C155.949 206.036 156.105 205.142 156.107 204.241V201.598C156.107 199.645 155.381 197.762 154.072 196.312C155.381 194.863 156.107 192.98 156.107 191.027V188.384C156.107 186.431 155.381 184.547 154.072 183.098C155.381 181.649 156.107 179.765 156.107 177.812V175.169C156.107 173.216 155.381 171.333 154.072 169.884C155.381 168.435 156.107 166.551 156.107 164.598V161.955C156.105 159.853 155.269 157.838 153.782 156.352C152.296 154.865 150.281 154.029 148.179 154.027H113.821C111.719 154.029 109.704 154.865 108.218 156.352C106.731 157.838 105.895 159.853 105.893 161.955V164.598C105.893 166.551 106.618 168.435 107.928 169.884C106.618 171.333 105.893 173.216 105.893 175.169V177.812C105.893 179.765 106.618 181.649 107.928 183.098C106.618 184.547 105.893 186.431 105.893 188.384V191.027C105.893 192.98 106.618 194.863 107.928 196.312C106.618 197.762 105.893 199.645 105.893 201.598V204.241C105.895 205.142 106.051 206.036 106.355 206.884H96.1803C96.4845 206.036 96.6409 205.142 96.6428 204.241V201.598C96.6423 199.645 95.9171 197.762 94.6078 196.312C95.9171 194.863 96.6423 192.98 96.6428 191.027V188.384C96.6403 186.282 95.8042 184.266 94.3179 182.78C92.8315 181.294 90.8163 180.458 88.7142 180.455H54.3571C52.255 180.458 50.2398 181.294 48.7534 182.78C47.2671 184.266 46.431 186.282 46.4285 188.384V191.027C46.429 192.98 47.1542 194.863 48.4635 196.312C47.1542 197.762 46.429 199.645 46.4285 201.598V204.241C46.4304 205.142 46.5868 206.036 46.891 206.884H42.8329C42.4569 206.835 42.0748 206.866 41.712 206.977C41.3493 207.087 41.0142 207.273 40.7292 207.524C40.4443 207.774 40.216 208.082 40.0596 208.427C39.9032 208.773 39.8223 209.147 39.8223 209.527C39.8223 209.906 39.9032 210.281 40.0596 210.626C40.216 210.971 40.4443 211.279 40.7292 211.53C41.0142 211.78 41.3493 211.966 41.712 212.077C42.0748 212.187 42.4569 212.219 42.8329 212.169H219.166C219.542 212.219 219.924 212.187 220.287 212.077C220.649 211.966 220.984 211.78 221.269 211.53C221.554 211.279 221.783 210.971 221.939 210.626C222.095 210.281 222.176 209.906 222.176 209.527C222.176 209.147 222.095 208.773 221.939 208.427C221.783 208.082 221.554 207.774 221.269 207.524C220.984 207.273 220.649 207.087 220.287 206.977C219.924 206.866 219.542 206.835 219.166 206.884L219.167 206.881ZM185.711 98.0694C185.299 98.2535 184.872 98.4038 184.436 98.5187C184.067 98.2103 183.727 97.8688 183.421 97.4985C182.699 96.5846 181.803 95.8224 180.785 95.2561C179.705 94.7892 178.544 94.54 177.368 94.5227C176.883 94.487 176.149 94.4355 176.02 94.3945C175.786 93.9374 175.607 93.4538 175.488 92.9541C175.222 91.8077 174.737 90.7236 174.059 89.7616C173.297 88.8742 172.367 88.1466 171.322 87.6209C170.901 87.3967 170.498 87.1409 170.116 86.8557C170.098 86.344 170.142 85.8319 170.248 85.3308C170.493 84.1718 170.515 82.9765 170.312 81.8092C170.006 80.6926 169.487 79.6457 168.784 78.7263C168.474 78.315 168.211 77.871 167.999 77.4022C168.201 76.9162 168.464 76.4583 168.784 76.0399C169.487 75.1201 170.007 74.0728 170.312 72.9556C170.515 71.7883 170.492 70.593 170.246 69.434C170.155 68.9548 170.099 68.4693 170.08 67.9818C170.458 67.6522 170.875 67.3704 171.322 67.1427C172.366 66.6164 173.297 65.8894 174.06 65.0033C174.737 64.0408 175.223 62.9568 175.49 61.8107C175.613 61.3451 175.762 60.8868 175.936 60.4377C176.406 60.3168 176.887 60.2511 177.372 60.2422C178.547 60.2854 179.715 60.0365 180.771 59.5176C181.827 58.9988 182.738 58.2261 183.422 57.269C183.728 56.8972 184.068 56.5548 184.437 56.2462C184.873 56.3611 185.299 56.5113 185.711 56.6955C186.765 57.2656 187.944 57.5642 189.143 57.5642C190.341 57.5642 191.521 57.2656 192.575 56.6955C192.986 56.5114 193.412 56.3611 193.848 56.2462C194.218 56.5549 194.558 56.8968 194.865 57.2676C195.587 58.1816 196.483 58.9437 197.501 59.5101C198.581 59.977 199.742 60.2262 200.918 60.2435C201.403 60.2778 202.136 60.3294 202.266 60.3703C202.5 60.8279 202.678 61.3119 202.797 61.812C203.063 62.958 203.549 64.0417 204.227 65.0033C204.989 65.8906 205.919 66.6182 206.964 67.144C207.385 67.3686 207.788 67.6248 208.17 67.9104C208.188 68.4222 208.143 68.9342 208.038 69.4354C207.792 70.5944 207.77 71.7897 207.973 72.957C208.279 74.0736 208.798 75.1205 209.502 76.0399C209.815 76.4544 210.078 76.9052 210.283 77.3824C210.078 77.8601 209.816 78.3113 209.503 78.7263C208.799 79.646 208.279 80.6933 207.973 81.8105C207.771 82.9779 207.793 84.1732 208.039 85.3321C208.131 85.811 208.186 86.296 208.206 86.7831C207.828 87.1127 207.41 87.3945 206.964 87.6222C205.919 88.1488 204.989 88.8762 204.226 89.7629C203.549 90.725 203.063 91.8085 202.796 92.9541C202.673 93.4202 202.523 93.879 202.349 94.3284C201.88 94.4494 201.398 94.515 200.914 94.524C199.738 94.4807 198.57 94.7297 197.514 95.2485C196.458 95.7674 195.547 96.54 194.863 97.4972C194.557 97.8685 194.218 98.2105 193.848 98.5187C193.412 98.4038 192.986 98.2535 192.575 98.0694C191.982 97.8178 191.373 97.6059 190.752 97.4351C190.294 97.0722 189.727 96.8747 189.143 96.8747C188.558 96.8747 187.991 97.0722 187.533 97.4351C186.912 97.6058 186.304 97.8177 185.711 98.0694ZM170.643 135.527C170.644 134.826 170.923 134.154 171.418 133.659C171.913 133.164 172.585 132.885 173.286 132.884H207.643C208.343 132.885 209.015 133.164 209.51 133.659C210.006 134.154 210.285 134.826 210.286 135.527V138.169C210.285 138.87 210.006 139.542 209.51 140.037C209.015 140.532 208.343 140.811 207.643 140.812H173.286C172.585 140.811 171.913 140.532 171.418 140.037C170.923 139.542 170.644 138.87 170.643 138.169V135.527ZM170.643 148.741C170.644 148.04 170.923 147.369 171.418 146.873C171.913 146.378 172.585 146.099 173.286 146.098H207.643C208.343 146.099 209.015 146.378 209.51 146.873C210.006 147.369 210.285 148.04 210.286 148.741V151.384C210.285 152.084 210.006 152.756 209.51 153.251C209.015 153.747 208.343 154.026 207.643 154.027H173.286C172.585 154.026 171.913 153.747 171.418 153.251C170.923 152.756 170.644 152.084 170.643 151.384V148.741ZM170.643 161.955C170.644 161.255 170.923 160.583 171.418 160.088C171.913 159.592 172.585 159.313 173.286 159.312H207.643C208.343 159.313 209.015 159.592 209.51 160.088C210.006 160.583 210.285 161.255 210.286 161.955V164.598C210.285 165.299 210.006 165.97 209.51 166.466C209.015 166.961 208.343 167.24 207.643 167.241H173.286C172.585 167.24 171.913 166.961 171.418 166.466C170.923 165.97 170.644 165.299 170.643 164.598V161.955ZM170.643 175.169C170.644 174.469 170.923 173.797 171.418 173.302C171.913 172.806 172.585 172.528 173.286 172.527H207.643C208.343 172.528 209.015 172.806 209.51 173.302C210.006 173.797 210.285 174.469 210.286 175.169V177.812C210.285 178.513 210.006 179.185 209.51 179.68C209.015 180.175 208.343 180.454 207.643 180.455H173.286C172.585 180.454 171.913 180.175 171.418 179.68C170.923 179.185 170.644 178.513 170.643 177.812V175.169ZM170.643 188.384C170.644 187.683 170.923 187.012 171.418 186.516C171.913 186.021 172.585 185.742 173.286 185.741H207.643C208.343 185.742 209.015 186.021 209.51 186.516C210.006 187.012 210.285 187.683 210.286 188.384V191.027C210.285 191.727 210.006 192.399 209.51 192.894C209.015 193.39 208.343 193.668 207.643 193.669H173.286C172.585 193.668 171.913 193.39 171.418 192.894C170.923 192.399 170.644 191.727 170.643 191.027V188.384ZM111.179 161.955C111.18 161.255 111.458 160.583 111.954 160.088C112.449 159.592 113.121 159.313 113.821 159.312H148.179C148.879 159.313 149.551 159.592 150.046 160.088C150.542 160.583 150.82 161.255 150.821 161.955V164.598C150.82 165.299 150.542 165.97 150.046 166.466C149.551 166.961 148.879 167.24 148.179 167.241H113.821C113.121 167.24 112.449 166.961 111.954 166.466C111.458 165.97 111.18 165.299 111.179 164.598V161.955ZM111.179 175.169C111.18 174.469 111.458 173.797 111.954 173.302C112.449 172.806 113.121 172.528 113.821 172.527H148.179C148.879 172.528 149.551 172.806 150.046 173.302C150.542 173.797 150.82 174.469 150.821 175.169V177.812C150.82 178.513 150.542 179.185 150.046 179.68C149.551 180.175 148.879 180.454 148.179 180.455H113.821C113.121 180.454 112.449 180.175 111.954 179.68C111.458 179.185 111.18 178.513 111.179 177.812V175.169ZM111.179 188.384C111.18 187.683 111.458 187.012 111.954 186.516C112.449 186.021 113.121 185.742 113.821 185.741H148.179C148.879 185.742 149.551 186.021 150.046 186.516C150.542 187.012 150.82 187.683 150.821 188.384V191.027C150.82 191.727 150.542 192.399 150.046 192.894C149.551 193.39 148.879 193.668 148.179 193.669H113.821C113.121 193.668 112.449 193.39 111.954 192.894C111.458 192.399 111.18 191.727 111.179 191.027V188.384ZM51.7142 188.384C51.7153 187.683 51.9941 187.012 52.4895 186.516C52.9849 186.021 53.6565 185.742 54.3571 185.741H88.7142C89.4148 185.742 90.0864 186.021 90.5818 186.516C91.0773 187.012 91.356 187.683 91.3571 188.384V191.027C91.356 191.727 91.0773 192.399 90.5818 192.894C90.0864 193.39 89.4148 193.668 88.7142 193.669H54.3571C53.6565 193.668 52.9849 193.39 52.4895 192.894C51.9941 192.399 51.7153 191.727 51.7142 191.027V188.384ZM54.3571 206.884C53.6565 206.883 52.9849 206.604 52.4895 206.109C51.9941 205.613 51.7153 204.942 51.7142 204.241V201.598C51.7153 200.897 51.9941 200.226 52.4895 199.73C52.9849 199.235 53.6565 198.956 54.3571 198.955H88.7142C89.4148 198.956 90.0864 199.235 90.5818 199.73C91.0773 200.226 91.356 200.897 91.3571 201.598V204.241C91.356 204.942 91.0773 205.613 90.5818 206.109C90.0864 206.604 89.4148 206.883 88.7142 206.884H54.3571ZM113.821 206.884C113.121 206.883 112.449 206.604 111.954 206.109C111.458 205.613 111.18 204.942 111.179 204.241V201.598C111.18 200.897 111.458 200.226 111.954 199.73C112.449 199.235 113.121 198.956 113.821 198.955H148.179C148.879 198.956 149.551 199.235 150.046 199.73C150.542 200.226 150.82 200.897 150.821 201.598V204.241C150.82 204.942 150.542 205.613 150.046 206.109C149.551 206.604 148.879 206.883 148.179 206.884H113.821ZM173.286 206.884C172.585 206.883 171.913 206.604 171.418 206.109C170.923 205.613 170.644 204.942 170.643 204.241V201.598C170.644 200.897 170.923 200.226 171.418 199.73C171.913 199.235 172.585 198.956 173.286 198.955H207.643C208.343 198.956 209.015 199.235 209.51 199.73C210.006 200.226 210.285 200.897 210.286 201.598V204.241C210.285 204.942 210.006 205.613 209.51 206.109C209.015 206.604 208.343 206.883 207.643 206.884H173.286Z" fill="#364362"/>
</g>
<defs>
<linearGradient id="paint0_linear_136_384" x1="0.0556564" y1="125.057" x2="250.056" y2="125.057" gradientUnits="userSpaceOnUse">
<stop stop-color="#2A447F"/>
<stop offset="0.33" stop-color="#2A447F" stop-opacity="0"/>
</linearGradient>
<linearGradient id="paint1_linear_136_384" x1="131.057" y1="1.05688" x2="131.057" y2="251.057" gradientUnits="userSpaceOnUse">
<stop stop-color="#1C2330"/>
<stop offset="1" stop-color="#1C2330" stop-opacity="0.2"/>
</linearGradient>
<linearGradient id="paint2_linear_136_384" x1="131.057" y1="1.05688" x2="131.057" y2="251.057" gradientUnits="userSpaceOnUse">
<stop stop-color="#2A447F"/>
<stop offset="0.33" stop-color="#2A447F" stop-opacity="0"/>
</linearGradient>
<clipPath id="clip0_136_384">
<rect width="222" height="222" fill="white" transform="translate(20 14.9991)"/>
</clipPath>
</defs>
</svg>
