<svg width="257" height="252" viewBox="0 0 257 252" fill="none" xmlns="http://www.w3.org/2000/svg">
<circle cx="125.058" cy="125.057" r="124.5" stroke="url(#paint0_linear_136_394)" stroke-opacity="0.2"/>
<mask id="path-2-inside-1_136_394" fill="white">
<path d="M14.0571 126.057C9.63885 126.057 6.03047 129.643 6.31305 134.052C7.1898 147.732 10.3123 161.194 15.5722 173.893C21.854 189.058 31.0615 202.838 42.6688 214.445C54.2761 226.053 68.056 235.26 83.2217 241.542C98.3874 247.824 114.642 251.057 131.057 251.057C147.472 251.057 163.727 247.824 178.893 241.542C194.058 235.26 207.838 226.053 219.445 214.445C231.053 202.838 240.26 189.058 246.542 173.893C251.802 161.194 254.924 147.732 255.801 134.052C256.084 129.643 252.475 126.057 248.057 126.057L219.099 126.057C214.681 126.057 211.141 129.648 210.7 134.044C209.92 141.815 208.006 149.445 205.006 156.688C200.984 166.399 195.088 175.223 187.655 182.655C180.223 190.088 171.399 195.984 161.688 200.006C151.977 204.029 141.568 206.099 131.057 206.099C120.546 206.099 110.138 204.029 100.426 200.006C90.7152 195.984 81.8915 190.088 74.4589 182.655C67.0263 175.223 61.1304 166.399 57.1079 156.688C54.108 149.445 52.1939 141.815 51.4146 134.044C50.9737 129.648 47.4334 126.057 43.0151 126.057L14.0571 126.057Z"/>
</mask>
<path d="M14.0571 126.057C9.63885 126.057 6.03047 129.643 6.31305 134.052C7.1898 147.732 10.3123 161.194 15.5722 173.893C21.854 189.058 31.0615 202.838 42.6688 214.445C54.2761 226.053 68.056 235.26 83.2217 241.542C98.3874 247.824 114.642 251.057 131.057 251.057C147.472 251.057 163.727 247.824 178.893 241.542C194.058 235.26 207.838 226.053 219.445 214.445C231.053 202.838 240.26 189.058 246.542 173.893C251.802 161.194 254.924 147.732 255.801 134.052C256.084 129.643 252.475 126.057 248.057 126.057L219.099 126.057C214.681 126.057 211.141 129.648 210.7 134.044C209.92 141.815 208.006 149.445 205.006 156.688C200.984 166.399 195.088 175.223 187.655 182.655C180.223 190.088 171.399 195.984 161.688 200.006C151.977 204.029 141.568 206.099 131.057 206.099C120.546 206.099 110.138 204.029 100.426 200.006C90.7152 195.984 81.8915 190.088 74.4589 182.655C67.0263 175.223 61.1304 166.399 57.1079 156.688C54.108 149.445 52.1939 141.815 51.4146 134.044C50.9737 129.648 47.4334 126.057 43.0151 126.057L14.0571 126.057Z" fill="url(#paint1_linear_136_394)" stroke="url(#paint2_linear_136_394)" stroke-opacity="0.7" stroke-width="2" mask="url(#path-2-inside-1_136_394)"/>
<g clip-path="url(#clip0_136_394)">
<path d="M144.613 85.5865C143.631 85.3931 142.64 85.2519 141.643 85.1636V77.1068C141.643 76.4059 141.364 75.7337 140.869 75.2381C140.373 74.7424 139.701 74.464 139 74.464C138.299 74.464 137.627 74.7424 137.131 75.2381C136.635 75.7337 136.357 76.4059 136.357 77.1068V85.1861C130.588 85.7424 124.709 88.1685 121.257 93.8084C119.638 96.5836 118.786 99.739 118.786 102.952C118.787 106.165 119.641 109.32 121.261 112.094C125.146 118.933 132.493 121.159 138.972 123.128C145.989 125.256 152.046 127.093 154.042 133.716C155.884 139.861 151.801 144.903 147.231 146.981C144.849 148 142.279 148.505 139.689 148.464C137.098 148.423 134.546 147.837 132.197 146.743C129.748 145.699 127.546 144.15 125.736 142.197C123.926 140.244 122.549 137.931 121.693 135.41C121.591 135.074 121.422 134.763 121.198 134.493C120.974 134.224 120.699 134.001 120.388 133.839C120.077 133.677 119.737 133.578 119.388 133.549C119.039 133.519 118.687 133.56 118.354 133.667C118.02 133.775 117.711 133.948 117.445 134.176C117.179 134.404 116.961 134.683 116.804 134.997C116.646 135.31 116.553 135.651 116.529 136.001C116.505 136.351 116.551 136.702 116.664 137.034C117.748 140.264 119.502 143.229 121.81 145.735C124.118 148.241 126.929 150.232 130.059 151.579C132.07 152.459 134.187 153.076 136.357 153.413V176.441L132.94 173.024C132.441 172.543 131.774 172.276 131.081 172.282C130.388 172.288 129.725 172.566 129.235 173.056C128.745 173.546 128.467 174.209 128.461 174.902C128.455 175.595 128.721 176.263 129.203 176.761L137.13 184.688C137.633 185.17 138.303 185.439 139 185.439C139.697 185.439 140.366 185.17 140.87 184.688L148.798 176.761C149.294 176.265 149.572 175.593 149.572 174.892C149.572 174.191 149.293 173.519 148.798 173.023C148.302 172.528 147.63 172.25 146.929 172.25C146.228 172.25 145.556 172.528 145.06 173.024L141.643 176.441V153.677C144.327 153.527 146.961 152.889 149.417 151.794C156.665 148.504 161.253 140.344 159.173 132.468C156.847 123.663 148.37 120.455 140.508 118.07C134.436 116.226 128.701 114.487 125.853 109.478C124.697 107.529 124.079 105.307 124.062 103.041C124.046 100.774 124.631 98.544 125.759 96.5781C129.523 90.4282 137.711 89.6076 143.572 90.7691C146.553 91.4976 149.292 92.9914 151.518 95.103C153.744 97.2146 155.381 99.8706 156.266 102.809C156.445 103.486 156.886 104.065 157.492 104.418C158.098 104.77 158.819 104.868 159.497 104.688C160.175 104.509 160.754 104.068 161.106 103.462C161.459 102.856 161.556 102.135 161.377 101.457C160.236 97.5653 158.083 94.0461 155.138 91.258C152.193 88.47 148.561 86.5129 144.613 85.5865ZM65.7742 160.42C65.1107 158.827 64.4994 157.213 63.9414 155.58C63.7092 154.924 63.2277 154.386 62.6013 154.083C61.9749 153.78 61.2542 153.736 60.5956 153.961C59.9371 154.186 59.3939 154.661 59.0839 155.284C58.7738 155.907 58.7221 156.628 58.9398 157.288C59.5345 159.026 60.1912 160.764 60.8955 162.454C61.1654 163.101 61.6812 163.614 62.3295 163.881C62.9778 164.147 63.7054 164.146 64.3524 163.876C64.9993 163.606 65.5126 163.09 65.7793 162.442C66.0459 161.794 66.0441 161.067 65.7742 160.42Z" fill="#386EE9"/>
<path d="M70.3754 169.702C70.2039 169.397 69.9734 169.128 69.6974 168.913C69.4213 168.697 69.1051 168.539 68.7672 168.447C68.4294 168.354 68.0765 168.33 67.7293 168.375C67.382 168.421 67.0471 168.535 66.7442 168.71C66.4413 168.886 66.1764 169.121 65.9648 169.4C65.7533 169.679 65.5993 169.997 65.5119 170.336C65.4245 170.676 65.4053 171.029 65.4556 171.375C65.5058 171.722 65.6245 172.055 65.8046 172.355C66.7298 173.949 67.7069 175.513 68.7342 177.043C69.1318 177.616 69.7369 178.012 70.4215 178.146C71.106 178.281 71.8161 178.144 72.4012 177.764C72.6894 177.571 72.9368 177.323 73.1291 177.034C73.3214 176.745 73.4548 176.421 73.5218 176.08C73.5888 175.74 73.5881 175.389 73.5196 175.049C73.4511 174.709 73.3162 174.385 73.1227 174.097C72.1596 172.662 71.2434 171.196 70.3754 169.702Z" fill="#364362"/>
<path d="M57.0716 132.758C57.7725 132.758 58.4447 132.479 58.9404 131.983C59.436 131.488 59.7144 130.816 59.7144 130.115V129.964C59.7144 128.288 59.7673 126.594 59.873 124.925C59.8947 124.579 59.8479 124.232 59.7354 123.903C59.6228 123.575 59.4467 123.272 59.2171 123.012C58.9874 122.751 58.7088 122.539 58.397 122.386C58.0852 122.233 57.7464 122.144 57.3999 122.122C57.0535 122.1 56.7061 122.147 56.3778 122.26C56.0494 122.372 55.7464 122.548 55.4861 122.778C55.2257 123.008 55.0132 123.286 54.8606 123.598C54.7079 123.91 54.6182 124.249 54.5965 124.595C54.4848 126.383 54.4288 128.173 54.4287 129.964V130.115C54.4287 130.816 54.7072 131.488 55.2028 131.983C55.6984 132.479 56.3706 132.758 57.0716 132.758Z" fill="#386EE9"/>
<path d="M61.2499 145.573C60.9115 143.877 60.629 142.171 60.4028 140.456C60.3108 139.761 59.9465 139.131 59.39 138.705C58.8336 138.279 58.1305 138.091 57.4355 138.183C56.7406 138.275 56.1106 138.639 55.6842 139.195C55.2579 139.752 55.07 140.455 55.162 141.15C55.4042 142.978 55.7057 144.799 56.0659 146.607C56.1338 146.948 56.2681 147.271 56.4612 147.56C56.6542 147.848 56.9021 148.096 57.1909 148.289C57.4796 148.481 57.8034 148.615 58.1439 148.683C58.4844 148.75 58.8348 148.75 59.1752 148.682C59.5156 148.614 59.8393 148.48 60.1277 148.287C60.4162 148.094 60.6638 147.846 60.8565 147.557C61.0491 147.268 61.183 146.945 61.2505 146.604C61.318 146.264 61.3178 145.913 61.2499 145.573ZM100.155 57.7612C99.9807 57.4612 99.7487 57.1986 99.4725 56.9883C99.1964 56.778 98.8815 56.6241 98.5459 56.5355C98.2103 56.4469 97.8605 56.4253 97.5166 56.4719C97.1726 56.5185 96.8412 56.6324 96.5412 56.8071C94.9486 57.7344 93.3864 58.7128 91.8568 59.7407C91.275 60.1318 90.8724 60.738 90.7376 61.4259C90.6028 62.1139 90.7468 62.8272 91.1379 63.409C91.529 63.9907 92.1352 64.3933 92.8232 64.5281C93.5111 64.6629 94.2244 64.5189 94.8062 64.1278C96.2406 63.163 97.706 62.2451 99.2 61.3753C99.5 61.2008 99.7628 60.9688 99.9732 60.6927C100.184 60.4166 100.338 60.1018 100.426 59.7662C100.515 59.4305 100.537 59.0807 100.49 58.7367C100.444 58.3927 100.33 58.0612 100.155 57.7612Z" fill="#364362"/>
<path d="M79.4473 182.306C78.9838 181.78 78.3303 181.459 77.6306 181.415C76.9309 181.371 76.2423 181.606 75.7162 182.07C75.1902 182.533 74.8698 183.187 74.8256 183.887C74.7813 184.586 75.0169 185.275 75.4804 185.801C76.6991 187.184 77.9617 188.529 79.2663 189.831C79.7677 190.316 80.4381 190.587 81.1356 190.586C81.833 190.585 82.5029 190.313 83.0033 189.827C83.2487 189.582 83.4434 189.29 83.576 188.969C83.7087 188.648 83.7768 188.304 83.7764 187.957C83.776 187.609 83.7072 187.266 83.5739 186.945C83.4405 186.624 83.2453 186.333 82.9993 186.088C81.7751 184.866 80.5905 183.604 79.4473 182.306Z" fill="#386EE9"/>
<path d="M95.0203 195.943C93.5818 194.982 92.1746 193.975 90.801 192.923C90.5265 192.703 90.2108 192.54 89.8724 192.443C89.5339 192.347 89.1796 192.319 88.8302 192.361C88.4808 192.403 88.1433 192.514 87.8376 192.689C87.5319 192.863 87.264 193.097 87.0498 193.376C86.8356 193.655 86.6793 193.974 86.5901 194.315C86.501 194.655 86.4807 195.01 86.5305 195.359C86.5803 195.707 86.6992 196.042 86.8803 196.344C87.0613 196.646 87.3007 196.908 87.5846 197.116C89.0491 198.239 90.5497 199.314 92.0841 200.339C92.672 200.712 93.3807 200.843 94.0631 200.707C94.7456 200.571 95.3496 200.178 95.7497 199.609C96.1387 199.026 96.2803 198.313 96.1435 197.625C96.0068 196.938 95.6028 196.334 95.0203 195.944V195.943ZM122.798 52.2799C122.973 52.2796 123.148 52.2619 123.32 52.227C125.015 51.8875 126.72 51.6037 128.434 51.376C129.124 51.2785 129.748 50.9122 130.17 50.3569C130.591 49.8015 130.776 49.102 130.684 48.4109C130.593 47.7197 130.231 47.0929 129.679 46.6669C129.127 46.2409 128.429 46.0503 127.738 46.1365C125.909 46.3797 124.089 46.683 122.28 47.0457C121.637 47.1745 121.065 47.5377 120.675 48.0647C120.285 48.5917 120.105 49.2448 120.169 49.8973C120.234 50.5497 120.539 51.1549 121.025 51.5952C121.51 52.0355 122.142 52.2795 122.798 52.2799Z" fill="#364362"/>
<path d="M138.773 50.6796L139 50.6783C140.657 50.6783 142.327 50.7311 143.966 50.8316C144.021 50.8355 144.075 50.8369 144.131 50.8369C144.817 50.8354 145.475 50.5672 145.967 50.0891C146.459 49.611 146.746 48.9603 146.767 48.2747C146.788 47.589 146.541 46.9221 146.08 46.4148C145.618 45.9076 144.977 45.5998 144.292 45.5564C142.552 45.4472 140.779 45.3926 138.973 45.3926H138.773C138.072 45.3926 137.399 45.671 136.904 46.1667C136.408 46.6623 136.13 47.3345 136.13 48.0354C136.13 48.7364 136.408 49.4086 136.904 49.9042C137.399 50.3998 138.072 50.6796 138.773 50.6796ZM108.731 203.268C107.131 202.606 105.554 201.892 104.001 201.127C103.688 200.967 103.348 200.871 102.998 200.844C102.649 200.817 102.297 200.86 101.965 200.97C101.632 201.081 101.324 201.256 101.06 201.486C100.796 201.716 100.58 201.997 100.425 202.312C100.27 202.626 100.179 202.968 100.158 203.318C100.136 203.668 100.185 204.019 100.3 204.35C100.416 204.681 100.596 204.985 100.83 205.246C101.065 205.507 101.349 205.718 101.666 205.868C103.322 206.684 105.005 207.446 106.711 208.153C107.36 208.412 108.084 208.407 108.729 208.139C109.374 207.871 109.889 207.362 110.164 206.719C110.431 206.072 110.431 205.344 110.162 204.697C109.894 204.05 109.379 203.535 108.731 203.268Z" fill="#386EE9"/>
<path d="M216.721 114.213C217.059 115.895 217.349 117.615 217.577 119.326C217.682 120.016 218.05 120.638 218.604 121.061C219.158 121.484 219.855 121.675 220.548 121.594C220.892 121.548 221.224 121.435 221.524 121.26C221.824 121.086 222.087 120.855 222.298 120.579C222.508 120.303 222.663 119.988 222.752 119.653C222.841 119.317 222.863 118.968 222.817 118.623C222.571 116.796 222.266 114.977 221.902 113.169C221.837 112.826 221.704 112.499 221.511 112.207C221.319 111.916 221.07 111.665 220.78 111.471C220.491 111.276 220.165 111.14 219.822 111.072C219.48 111.004 219.127 111.004 218.784 111.073C218.442 111.142 218.117 111.279 217.827 111.474C217.538 111.67 217.29 111.921 217.098 112.213C216.906 112.504 216.774 112.832 216.709 113.175C216.645 113.518 216.649 113.871 216.721 114.213Z" fill="#364362"/>
<path d="M62.2171 101.199C62.8662 101.453 63.5887 101.446 64.2324 101.178C64.8761 100.91 65.3909 100.404 65.6686 99.7641C66.329 98.1634 67.0416 96.5848 67.8054 95.0307C67.9585 94.7192 68.0488 94.3806 68.0711 94.0342C68.0934 93.6879 68.0472 93.3405 67.9352 93.0119C67.8233 92.6834 67.6477 92.3801 67.4185 92.1194C67.1893 91.8587 66.9111 91.6457 66.5996 91.4926C66.2881 91.3395 65.9495 91.2492 65.6031 91.2269C65.2567 91.2046 64.9093 91.2508 64.5808 91.3627C64.2522 91.4747 63.949 91.6503 63.6883 91.8795C63.4276 92.1086 63.2146 92.3869 63.0615 92.6984C62.2469 94.3562 61.4867 96.0402 60.782 97.7476C60.6495 98.0684 60.5816 98.4123 60.582 98.7594C60.5825 99.1065 60.6513 99.4501 60.7846 99.7706C60.9178 100.091 61.1129 100.382 61.3587 100.627C61.6045 100.872 61.8962 101.067 62.2171 101.199Z" fill="#386EE9"/>
<path d="M58.0914 116.729C58.7787 116.857 59.489 116.71 60.0691 116.32C60.6493 115.93 61.0528 115.327 61.1928 114.642C61.5252 112.946 61.913 111.261 62.3556 109.59C62.5351 108.913 62.438 108.191 62.0857 107.585C61.7334 106.979 61.1548 106.538 60.4772 106.359C59.7996 106.179 59.0784 106.276 58.4724 106.629C57.8664 106.981 57.4251 107.559 57.2456 108.237C56.7727 110.02 56.3584 111.818 56.0035 113.629C55.937 113.969 55.9383 114.32 56.0073 114.66C56.0762 115 56.2115 115.323 56.4054 115.611C56.5993 115.899 56.8479 116.146 57.1372 116.337C57.4265 116.529 57.7507 116.662 58.0914 116.729ZM69.3143 86.7784C69.6032 86.971 69.9272 87.1047 70.2678 87.172C70.6084 87.2393 70.9589 87.2388 71.2993 87.1705C71.6397 87.1023 71.9633 86.9677 72.2517 86.7743C72.5401 86.581 72.7875 86.3327 72.9799 86.0437C73.9391 84.6046 74.9452 83.1974 75.9967 81.8244C76.4231 81.2679 76.6109 80.5648 76.5188 79.8698C76.4267 79.1748 76.0623 78.5448 75.5058 78.1185C74.9493 77.6921 74.2462 77.5043 73.5512 77.5964C72.8562 77.6885 72.2262 78.0528 71.7999 78.6094C70.6777 80.0751 69.6037 81.577 68.5795 83.1128C68.387 83.4017 68.2533 83.7257 68.186 84.0663C68.1187 84.4069 68.1192 84.7574 68.1874 85.0978C68.2557 85.4383 68.3903 85.7619 68.5836 86.0503C68.777 86.3386 69.0253 86.5861 69.3143 86.7784Z" fill="#364362"/>
<path d="M80.9494 74.793C81.2975 74.7935 81.6422 74.7249 81.9636 74.5913C82.285 74.4577 82.5767 74.2617 82.8219 74.0147C84.0336 72.799 85.3062 71.6018 86.6012 70.4601C87.1269 69.9964 87.4469 69.3429 87.4907 68.6433C87.5346 67.9437 87.2987 67.2554 86.8351 66.7297C86.3714 66.204 85.7179 65.884 85.0183 65.8401C84.3187 65.7963 83.6304 66.0321 83.1047 66.4958C81.7216 67.7153 80.3783 68.9792 79.077 70.2856C78.7086 70.6557 78.4581 71.1266 78.3571 71.6389C78.256 72.1511 78.309 72.6819 78.5093 73.1641C78.7097 73.6463 79.0483 74.0583 79.4826 74.3482C79.9169 74.6382 80.4273 74.7929 80.9494 74.793ZM212.17 99.3729C212.833 100.959 213.452 102.585 214.011 104.209C214.247 104.866 214.729 105.405 215.356 105.711C215.982 106.018 216.704 106.068 217.367 105.852C217.695 105.739 217.998 105.563 218.259 105.333C218.519 105.104 218.731 104.825 218.884 104.513C219.036 104.201 219.126 103.863 219.148 103.516C219.169 103.17 219.122 102.822 219.01 102.494C218.411 100.752 217.756 99.0304 217.045 97.3313C216.774 96.6847 216.258 96.1721 215.609 95.9062C214.961 95.6403 214.233 95.6429 213.586 95.9134C212.94 96.184 212.427 96.7003 212.161 97.3489C211.895 97.9974 211.898 98.725 212.169 99.3716L212.17 99.3729ZM202.416 74.0094C201.196 72.6276 199.93 71.2857 198.623 69.9857C198.376 69.741 198.085 69.5472 197.763 69.4153C197.442 69.2835 197.099 69.2162 196.751 69.2172C196.404 69.2182 196.061 69.2876 195.741 69.4214C195.42 69.5552 195.13 69.7508 194.885 69.9969C194.64 70.2431 194.446 70.535 194.315 70.8561C194.183 71.1771 194.115 71.521 194.116 71.8681C194.118 72.2151 194.187 72.5586 194.321 72.8789C194.454 73.1991 194.65 73.4899 194.896 73.7346C196.123 74.9544 197.31 76.2135 198.455 77.5099C198.925 78.0259 199.577 78.3385 200.273 78.3814C200.97 78.4244 201.656 78.1942 202.185 77.7398C202.711 77.2758 203.03 76.6221 203.073 75.9225C203.117 75.2229 202.88 74.5348 202.416 74.0094Z" fill="#386EE9"/>
<path d="M212.117 87.4378C211.189 85.8459 210.209 84.2845 209.18 82.756C208.788 82.1746 208.182 81.7726 207.494 81.6384C206.806 81.5042 206.092 81.6488 205.511 82.0405C204.93 82.4321 204.528 83.0387 204.393 83.7267C204.259 84.4148 204.404 85.128 204.795 85.7094C205.759 87.1379 206.685 88.6152 207.552 90.1005C207.911 90.699 208.49 91.1334 209.166 91.3112C209.841 91.4889 210.559 91.3959 211.166 91.0519C211.466 90.8772 211.728 90.6451 211.939 90.3689C212.149 90.0926 212.302 89.7777 212.391 89.442C212.479 89.1064 212.5 88.7566 212.454 88.4127C212.407 88.0689 212.292 87.7376 212.117 87.4378ZM208.606 173.28C208.318 173.087 207.995 172.953 207.654 172.884C207.314 172.816 206.964 172.816 206.623 172.883C206.282 172.95 205.959 173.084 205.67 173.276C205.381 173.469 205.133 173.716 204.939 174.005C203.977 175.442 202.968 176.848 201.913 178.22C201.702 178.495 201.547 178.81 201.457 179.145C201.367 179.48 201.344 179.83 201.389 180.174C201.434 180.518 201.546 180.85 201.72 181.151C201.893 181.452 202.124 181.715 202.4 181.927C202.959 182.344 203.659 182.528 204.351 182.437C205.043 182.346 205.672 181.989 206.105 181.442C207.229 179.979 208.305 178.48 209.332 176.947C209.525 176.659 209.66 176.335 209.728 175.995C209.796 175.654 209.796 175.303 209.729 174.963C209.661 174.622 209.527 174.298 209.335 174.009C209.142 173.72 208.894 173.472 208.605 173.279L208.606 173.28Z" fill="#364362"/>
<path d="M195.075 186.016C193.859 187.232 192.585 188.425 191.29 189.564C190.764 190.027 190.442 190.679 190.396 191.379C190.351 192.078 190.585 192.767 191.047 193.293C191.516 193.81 192.167 194.124 192.863 194.169C193.559 194.214 194.245 193.987 194.776 193.535C196.162 192.319 197.509 191.057 198.813 189.753C199.309 189.257 199.587 188.585 199.587 187.884C199.586 187.183 199.308 186.511 198.812 186.015C198.316 185.52 197.643 185.241 196.942 185.241C196.241 185.242 195.57 185.52 195.075 186.016ZM111.604 49.9291C109.873 50.5224 108.135 51.1818 106.439 51.8901C106.11 52.018 105.811 52.2104 105.558 52.4558C105.305 52.7011 105.104 52.9946 104.966 53.319C104.828 53.6433 104.756 53.9919 104.755 54.3444C104.754 54.6968 104.824 55.0458 104.959 55.371C105.095 55.6962 105.295 55.9909 105.546 56.2379C105.798 56.4849 106.096 56.679 106.423 56.809C106.751 56.939 107.101 57.0022 107.453 56.9948C107.806 56.9875 108.153 56.9097 108.475 56.7661C110.068 56.1014 111.682 55.4892 113.315 54.9307C113.979 54.7037 114.525 54.2226 114.833 53.5932C115.142 52.9637 115.187 52.2375 114.96 51.5742C114.734 50.911 114.252 50.365 113.623 50.0565C112.994 49.748 112.267 49.7021 111.604 49.9291ZM223.571 129.644C223.569 129.297 223.499 128.954 223.364 128.634C223.229 128.314 223.033 128.024 222.786 127.78C222.539 127.536 222.246 127.344 221.925 127.213C221.603 127.082 221.259 127.016 220.912 127.018C220.565 127.02 220.222 127.091 219.902 127.225C219.582 127.36 219.292 127.557 219.048 127.804C218.804 128.051 218.611 128.343 218.481 128.665C218.35 128.986 218.283 129.33 218.286 129.677V129.964C218.286 131.688 218.23 133.434 218.119 135.151C218.102 135.51 218.157 135.869 218.282 136.207C218.406 136.545 218.597 136.854 218.843 137.117C219.09 137.379 219.386 137.589 219.715 137.735C220.044 137.88 220.399 137.958 220.759 137.964C221.43 137.963 222.076 137.708 222.565 137.248C223.055 136.789 223.351 136.161 223.394 135.492C223.512 133.661 223.571 131.802 223.571 129.964V129.644Z" fill="#386EE9"/>
<path d="M190.292 62.7166C188.826 61.5967 187.323 60.5249 185.786 59.5028C185.203 59.1189 184.491 58.9817 183.806 59.121C183.122 59.2604 182.521 59.6651 182.134 60.2466C181.747 60.8281 181.606 61.5392 181.741 62.2244C181.877 62.9096 182.279 63.5132 182.858 63.9032C184.292 64.856 185.714 65.8721 187.083 66.9174C187.643 67.3337 188.344 67.5149 189.036 67.4224C189.728 67.3298 190.357 66.9708 190.788 66.4218C190.999 66.146 191.153 65.8314 191.242 65.4959C191.332 65.1604 191.354 64.8106 191.308 64.4665C191.262 64.1225 191.148 63.7908 190.974 63.4905C190.8 63.1903 190.568 62.9273 190.292 62.7166ZM219.883 143.349C219.543 143.281 219.192 143.28 218.851 143.348C218.511 143.416 218.187 143.55 217.898 143.743C217.61 143.937 217.362 144.185 217.17 144.474C216.978 144.763 216.844 145.088 216.778 145.429C216.443 147.125 216.052 148.809 215.607 150.479C215.511 150.817 215.483 151.17 215.524 151.518C215.566 151.866 215.677 152.203 215.85 152.508C216.023 152.813 216.255 153.081 216.533 153.295C216.81 153.51 217.128 153.667 217.467 153.757C217.806 153.848 218.159 153.87 218.507 153.822C218.854 153.775 219.189 153.659 219.491 153.48C219.793 153.302 220.057 153.066 220.267 152.785C220.476 152.503 220.628 152.183 220.713 151.843C221.189 150.068 221.609 148.254 221.964 146.454C222.032 146.114 222.031 145.763 221.963 145.423C221.895 145.082 221.76 144.759 221.567 144.47C221.374 144.182 221.126 143.934 220.837 143.742C220.548 143.55 220.224 143.416 219.883 143.349Z" fill="#364362"/>
<path d="M215.729 158.872C215.081 158.604 214.354 158.605 213.707 158.873C213.059 159.141 212.545 159.655 212.276 160.301C211.613 161.9 210.898 163.476 210.131 165.027C209.82 165.655 209.772 166.381 209.996 167.045C210.221 167.71 210.7 168.257 211.328 168.568C211.957 168.879 212.683 168.928 213.347 168.703C214.011 168.479 214.559 167.999 214.87 167.371C215.688 165.715 216.451 164.031 217.158 162.325C217.427 161.677 217.427 160.95 217.158 160.302C216.89 159.654 216.376 159.14 215.729 158.872Z" fill="#386EE9"/>
<path d="M154.537 207.729C152.859 208.062 151.137 208.345 149.419 208.572C149.075 208.617 148.744 208.73 148.443 208.903C148.142 209.077 147.879 209.308 147.668 209.583C147.456 209.859 147.301 210.173 147.211 210.508C147.122 210.843 147.099 211.193 147.144 211.537C147.247 212.227 147.614 212.849 148.167 213.273C148.72 213.698 149.417 213.891 150.109 213.811C151.938 213.571 153.758 213.271 155.567 212.913C155.91 212.848 156.237 212.716 156.529 212.524C156.821 212.332 157.072 212.085 157.268 211.795C157.463 211.506 157.6 211.18 157.669 210.838C157.738 210.495 157.738 210.143 157.67 209.8C157.602 209.457 157.467 209.132 157.272 208.842C157.077 208.552 156.827 208.303 156.535 208.111C156.244 207.918 155.917 207.785 155.574 207.72C155.231 207.654 154.879 207.657 154.537 207.729ZM183.072 195.881C181.637 196.843 180.17 197.758 178.675 198.624C178.068 198.975 177.626 199.553 177.446 200.23C177.265 200.907 177.36 201.628 177.711 202.234C178.068 202.834 178.646 203.271 179.321 203.451C179.996 203.631 180.714 203.54 181.323 203.198C182.918 202.274 184.482 201.299 186.014 200.273C186.596 199.883 187 199.278 187.136 198.59C187.272 197.902 187.129 197.189 186.739 196.606C186.349 196.024 185.744 195.62 185.056 195.484C184.368 195.348 183.655 195.491 183.072 195.881ZM123.607 207.757C121.91 207.424 120.226 207.035 118.555 206.591C118.219 206.502 117.87 206.48 117.526 206.526C117.182 206.572 116.85 206.685 116.55 206.859C116.25 207.034 115.987 207.265 115.776 207.541C115.565 207.817 115.411 208.131 115.322 208.467C115.233 208.802 115.211 209.152 115.257 209.496C115.303 209.84 115.416 210.172 115.59 210.472C115.765 210.772 115.996 211.035 116.272 211.246C116.548 211.456 116.862 211.611 117.198 211.7C118.981 212.173 120.779 212.588 122.589 212.944C123.277 213.079 123.991 212.936 124.572 212.544C125.154 212.153 125.557 211.547 125.692 210.859C125.827 210.171 125.683 209.458 125.292 208.876C124.901 208.294 124.295 207.891 123.607 207.757ZM160.653 48.1914C158.869 47.72 157.07 47.3075 155.259 46.9545C154.575 46.8309 153.87 46.9815 153.297 47.3737C152.723 47.766 152.327 48.3683 152.194 49.0504C152.062 49.7324 152.203 50.4393 152.587 51.018C152.972 51.5967 153.569 52.0007 154.249 52.1425C155.943 52.4728 157.644 52.8627 159.301 53.3014C159.979 53.4806 160.7 53.3834 161.306 53.031C161.912 52.6786 162.353 52.0999 162.532 51.4223C162.711 50.7447 162.614 50.0236 162.262 49.4177C161.909 48.8118 161.331 48.3707 160.653 48.1914Z" fill="#364362"/>
<path d="M176.196 53.9911C174.537 53.1775 172.852 52.419 171.144 51.7169C170.499 51.4676 169.782 51.4809 169.147 51.7539C168.512 52.0269 168.009 52.5379 167.746 53.1774C167.483 53.8169 167.482 54.5339 167.741 55.1746C168.001 55.8153 168.501 56.3288 169.135 56.6049C170.735 57.2631 172.313 57.974 173.866 58.7364C174.497 59.0341 175.219 59.0745 175.879 58.8491C176.54 58.6236 177.086 58.15 177.403 57.5286C177.556 57.217 177.647 56.8783 177.669 56.5319C177.691 56.1855 177.644 55.8382 177.532 55.5097C177.42 55.1812 177.244 54.878 177.015 54.6174C176.786 54.3569 176.507 54.144 176.196 53.9911ZM169.39 203.219C167.797 203.88 166.182 204.489 164.549 205.044C163.885 205.269 163.338 205.749 163.028 206.378C162.719 207.006 162.671 207.732 162.897 208.396C163.131 209.053 163.612 209.593 164.238 209.901C164.863 210.21 165.584 210.262 166.248 210.048C167.993 209.455 169.717 208.805 171.419 208.099C171.745 207.97 172.043 207.777 172.295 207.532C172.546 207.287 172.746 206.994 172.883 206.671C173.02 206.348 173.092 206 173.093 205.649C173.094 205.298 173.025 204.95 172.89 204.626C172.756 204.301 172.557 204.007 172.308 203.76C172.058 203.513 171.761 203.319 171.436 203.188C171.11 203.057 170.761 202.992 170.41 202.997C170.059 203.003 169.712 203.078 169.39 203.219Z" fill="#386EE9"/>
<path d="M30.6429 215.857C32.1025 215.857 33.2857 214.674 33.2857 213.214C33.2857 211.754 32.1025 210.571 30.6429 210.571C29.1832 210.571 28 211.754 28 213.214C28 214.674 29.1832 215.857 30.6429 215.857Z" fill="#386EE9"/>
<path d="M42.5359 210.571H38.5716C37.8706 210.571 37.1984 210.85 36.7028 211.345C36.2072 211.841 35.9287 212.513 35.9287 213.214C35.9287 213.915 36.2072 214.587 36.7028 215.083C37.1984 215.578 37.8706 215.857 38.5716 215.857H42.5359C43.2368 215.857 43.909 215.578 44.4046 215.083C44.9003 214.587 45.1787 213.915 45.1787 213.214C45.1787 212.513 44.9003 211.841 44.4046 211.345C43.909 210.85 43.2368 210.571 42.5359 210.571ZM239.429 210.571H235.464C234.764 210.571 234.091 210.85 233.596 211.345C233.1 211.841 232.822 212.513 232.822 213.214C232.822 213.915 233.1 214.587 233.596 215.083C234.091 215.578 234.764 215.857 235.464 215.857H239.429C240.13 215.857 240.802 215.578 241.298 215.083C241.793 214.587 242.072 213.915 242.072 213.214C242.072 212.513 241.793 211.841 241.298 211.345C240.802 210.85 240.13 210.571 239.429 210.571Z" fill="#386EE9"/>
<path d="M247.357 215.857C248.817 215.857 250 214.674 250 213.214C250 211.754 248.817 210.571 247.357 210.571C245.898 210.571 244.714 211.754 244.714 213.214C244.714 214.674 245.898 215.857 247.357 215.857Z" fill="#386EE9"/>
<path d="M184.132 221.143H173.154C172.488 221.194 171.866 221.495 171.413 221.985C170.959 222.475 170.708 223.118 170.708 223.785C170.708 224.453 170.959 225.096 171.413 225.586C171.866 226.076 172.488 226.377 173.154 226.428H184.132C184.798 226.377 185.419 226.076 185.873 225.586C186.326 225.096 186.578 224.453 186.578 223.785C186.578 223.118 186.326 222.475 185.873 221.985C185.419 221.495 184.798 221.194 184.132 221.143ZM104.846 221.143H93.8678C93.2022 221.194 92.5806 221.495 92.1272 221.985C91.6738 222.475 91.4219 223.118 91.4219 223.785C91.4219 224.453 91.6738 225.096 92.1272 225.586C92.5806 226.076 93.2022 226.377 93.8678 226.428H104.846C105.512 226.377 106.133 226.076 106.587 225.586C107.04 225.096 107.292 224.453 107.292 223.785C107.292 223.118 107.04 222.475 106.587 221.985C106.133 221.495 105.512 221.194 104.846 221.143ZM165.428 221.143H112.571C111.87 221.143 111.198 221.421 110.703 221.917C110.207 222.412 109.928 223.085 109.928 223.785C109.928 224.486 110.207 225.159 110.703 225.654C111.198 226.15 111.87 226.428 112.571 226.428H133.635V229.071H123.143C122.442 229.071 121.77 229.35 121.274 229.845C120.778 230.341 120.5 231.013 120.5 231.714C120.5 232.415 120.778 233.087 121.274 233.583C121.77 234.078 122.442 234.357 123.143 234.357H156.178C156.879 234.357 157.552 234.078 158.047 233.583C158.543 233.087 158.821 232.415 158.821 231.714C158.821 231.013 158.543 230.341 158.047 229.845C157.552 229.35 156.879 229.071 156.178 229.071H144.365V226.428H165.428C166.129 226.428 166.802 226.15 167.297 225.654C167.793 225.159 168.071 224.486 168.071 223.785C168.071 223.085 167.793 222.412 167.297 221.917C166.802 221.421 166.129 221.143 165.428 221.143Z" fill="#364362"/>
<path d="M227.167 210.571H141.353C141.123 210.17 140.792 209.836 140.392 209.604C139.992 209.372 139.538 209.249 139.075 209.248L138.98 209.25C137.281 209.249 135.583 209.195 133.887 209.087C133.363 209.05 132.839 209.172 132.385 209.437C131.931 209.701 131.567 210.097 131.341 210.571H50.8341C50.4581 210.522 50.076 210.554 49.7132 210.664C49.3504 210.774 49.0154 210.961 48.7304 211.211C48.4455 211.461 48.2172 211.769 48.0608 212.115C47.9044 212.46 47.8235 212.835 47.8235 213.214C47.8235 213.593 47.9044 213.968 48.0608 214.313C48.2172 214.659 48.4455 214.967 48.7304 215.217C49.0154 215.467 49.3504 215.654 49.7132 215.764C50.076 215.874 50.4581 215.906 50.8341 215.857H227.166C227.542 215.906 227.924 215.874 228.286 215.764C228.649 215.654 228.984 215.467 229.269 215.217C229.554 214.967 229.782 214.659 229.939 214.313C230.095 213.968 230.176 213.593 230.176 213.214C230.176 212.835 230.095 212.46 229.939 212.115C229.782 211.769 229.554 211.461 229.269 211.211C228.984 210.961 228.649 210.774 228.286 210.664C227.924 210.554 227.543 210.522 227.167 210.571ZM40.5296 29.4826C41.3137 29.4841 42.0806 29.2532 42.7334 28.8189C43.3862 28.3846 43.8955 27.7665 44.197 27.0427C44.4985 26.3189 44.5786 25.522 44.4272 24.7527C44.2757 23.9834 43.8996 23.2763 43.3463 22.7207C42.793 22.1652 42.0874 21.7862 41.3187 21.6317C40.55 21.4772 39.7528 21.5542 39.0278 21.8528C38.3028 22.1513 37.6827 22.6582 37.2458 23.3093C36.8088 23.9603 36.5748 24.7263 36.5732 25.5104C36.5722 26.5614 36.9882 27.57 37.7299 28.3147C38.4716 29.0594 39.4785 29.4794 40.5296 29.4826ZM40.5402 23.5362C40.9323 23.5367 41.3154 23.6535 41.6411 23.8718C41.9668 24.0901 42.2204 24.4 42.3699 24.7625C42.5194 25.125 42.5581 25.5236 42.481 25.9081C42.4039 26.2925 42.2145 26.6454 41.9368 26.9222C41.6591 27.199 41.3055 27.3872 40.9208 27.463C40.5361 27.5388 40.1376 27.4989 39.7756 27.3482C39.4137 27.1975 39.1045 26.9428 38.8873 26.6164C38.6701 26.2899 38.5546 25.9064 38.5554 25.5143C38.5568 24.989 38.7666 24.4856 39.1387 24.1148C39.5108 23.7439 40.0148 23.5358 40.5402 23.5362ZM240.11 70.509C239.588 70.5079 239.076 70.6619 238.641 70.9514C238.206 71.241 237.866 71.6531 237.665 72.1356C237.464 72.6181 237.411 73.1494 237.512 73.6622C237.613 74.1751 237.864 74.6465 238.232 75.0169C238.601 75.3872 239.072 75.6399 239.584 75.7429C240.097 75.8459 240.628 75.7946 241.111 75.5955C241.595 75.3965 242.008 75.0586 242.299 74.6245C242.591 74.1905 242.747 73.6798 242.748 73.1571C242.749 72.4564 242.471 71.784 241.977 71.2876C241.482 70.7911 240.811 70.5111 240.11 70.509ZM240.104 74.4733C239.842 74.473 239.587 74.3952 239.37 74.2497C239.152 74.1043 238.983 73.8976 238.883 73.656C238.784 73.4144 238.758 73.1486 238.809 72.8923C238.861 72.6359 238.987 72.4006 239.172 72.216C239.357 72.0315 239.593 71.906 239.849 71.8554C240.106 71.8048 240.371 71.8314 240.613 71.9319C240.854 72.0323 241.06 72.2021 241.205 72.4198C241.35 72.6374 241.427 72.8931 241.426 73.1545C241.425 73.5046 241.286 73.84 241.038 74.0872C240.79 74.3344 240.454 74.4733 240.104 74.4733ZM182.384 18.5227C181.861 18.5216 181.35 18.6756 180.914 18.9651C180.479 19.2547 180.14 19.6667 179.939 20.1492C179.738 20.6318 179.684 21.163 179.785 21.6759C179.886 22.1888 180.137 22.6602 180.506 23.0305C180.875 23.4009 181.345 23.6535 181.858 23.7565C182.37 23.8595 182.902 23.8083 183.385 23.6092C183.868 23.4101 184.282 23.0722 184.573 22.6382C184.864 22.2042 185.02 21.6935 185.021 21.1708C185.022 20.4701 184.745 19.7977 184.25 19.3012C183.756 18.8048 183.084 18.5248 182.384 18.5227ZM182.377 22.4869C182.116 22.4867 181.86 22.4089 181.643 22.2634C181.426 22.1179 181.257 21.9113 181.157 21.6697C181.057 21.428 181.031 21.1622 181.083 20.9059C181.134 20.6496 181.26 20.4143 181.445 20.2297C181.63 20.0452 181.866 19.9196 182.123 19.8691C182.379 19.8185 182.645 19.8451 182.886 19.9456C183.128 20.046 183.334 20.2158 183.478 20.4334C183.623 20.6511 183.7 20.9067 183.7 21.1682C183.699 21.5183 183.559 21.8537 183.311 22.1009C183.063 22.3481 182.727 22.4869 182.377 22.4869ZM235.588 17.6426C235.066 17.6418 234.555 17.796 234.12 18.0857C233.684 18.3754 233.345 18.7876 233.144 19.2701C232.944 19.7526 232.89 20.2839 232.991 20.7967C233.093 21.3094 233.343 21.7807 233.712 22.1509C234.081 22.5212 234.552 22.7737 235.064 22.8766C235.576 22.9795 236.108 22.9281 236.591 22.729C237.074 22.5299 237.488 22.192 237.779 21.758C238.07 21.324 238.226 20.8134 238.227 20.2907C238.228 19.5898 237.95 18.9172 237.456 18.4207C236.961 17.9242 236.289 17.6443 235.588 17.6426ZM235.582 21.6069C235.32 21.6063 235.065 21.5283 234.848 21.3827C234.631 21.2371 234.462 21.0303 234.362 20.7887C234.263 20.547 234.237 20.2813 234.289 20.0251C234.34 19.7688 234.467 19.5336 234.652 19.3492C234.837 19.1647 235.073 19.0394 235.329 18.9889C235.586 18.9384 235.851 18.9651 236.092 19.0656C236.334 19.1661 236.54 19.3359 236.685 19.5535C236.829 19.7711 236.906 20.0267 236.906 20.2881C236.905 20.6384 236.765 20.9741 236.516 21.2213C236.268 21.4686 235.932 21.6072 235.582 21.6069ZM84.549 49.1983C84.5501 48.6756 84.3961 48.1643 84.1066 47.7291C83.817 47.2939 83.405 46.9544 82.9224 46.7534C82.4399 46.5524 81.9086 46.499 81.3958 46.5999C80.8829 46.7009 80.4115 46.9516 80.0411 47.3205C79.6708 47.6894 79.4181 48.1598 79.3151 48.6722C79.2121 49.1847 79.2634 49.7162 79.4625 50.1995C79.6615 50.6828 79.9995 51.0963 80.4335 51.3875C80.8675 51.6788 81.3782 51.8348 81.9009 51.8359C82.6016 51.8366 83.274 51.5592 83.7704 51.0648C84.2669 50.5703 84.5469 49.899 84.549 49.1983ZM80.5847 49.1904C80.5853 48.929 80.6633 48.6737 80.8089 48.4567C80.9545 48.2397 81.1613 48.0707 81.4029 47.9712C81.6446 47.8716 81.9103 47.846 82.1666 47.8975C82.4228 47.949 82.658 48.0753 82.8424 48.2605C83.0269 48.4457 83.1522 48.6814 83.2027 48.9378C83.2532 49.1942 83.2265 49.4599 83.126 49.7011C83.0255 49.9424 82.8557 50.1484 82.6381 50.2932C82.4205 50.438 82.1649 50.515 81.9035 50.5144C81.5532 50.5134 81.2175 50.3734 80.9703 50.1251C80.7231 49.8769 80.5844 49.5407 80.5847 49.1904Z" fill="#386EE9"/>
<path d="M39.9681 80.2069L41.937 77.6262L40.6975 76.9205L39.4316 79.8118H39.3893L38.1141 76.9364L36.8495 77.6579L38.7893 80.1845V80.2254L35.7501 79.8264L35.7461 81.2324L38.8078 80.8452V80.8875L36.8389 83.4048L38.015 84.1527L39.3655 81.239H39.4065L40.642 84.1369L41.9462 83.3942L39.9654 80.9099L39.9667 80.8677L43.0866 81.2469L43.0893 79.8409L39.9667 80.2479L39.9681 80.2069ZM113.943 20.9316L112.808 22.3826L113.486 22.812L114.264 21.1351H114.287L114.999 22.8028L115.749 22.3759L114.609 20.9448V20.9211L116.406 21.1391L116.407 20.3291L114.61 20.5643V20.5405L115.744 19.0539L115.03 18.6482L114.301 20.3132H114.277L113.543 18.6574L112.814 19.0724L113.931 20.5273V20.5511L112.181 20.3211L112.179 21.1312L113.943 20.9078V20.9316ZM212.495 39.1184L212.498 37.7389L209.435 38.1393L209.436 38.0983L211.368 35.5678L210.152 34.8753L208.909 37.7124L208.868 37.7111L207.616 34.8912L206.377 35.5982L208.28 38.0758V38.1168L205.299 37.7257L205.295 39.1039L208.298 38.726V38.7656L206.366 41.2354L207.52 41.9688L208.845 39.1105L208.885 39.1118L210.097 41.9529L211.376 41.2261L209.433 38.7881L209.435 38.7471L212.495 39.1184ZM151.612 37.8763L153.278 35.692L152.229 35.096L151.157 37.542H151.121L150.043 35.1092L148.973 35.7184L150.614 37.8565V37.8922L148.042 37.5539L148.04 38.7432L150.63 38.4168V38.4511L148.963 40.5813L149.96 41.2142L151.103 38.7498H151.137L152.181 41.201L153.286 40.5733L151.61 38.4709V38.4353L154.25 38.755L154.253 37.5658L151.612 37.9107V37.8763Z" fill="#364362"/>
</g>
<defs>
<linearGradient id="paint0_linear_136_394" x1="0.0576172" y1="125.057" x2="250.058" y2="125.057" gradientUnits="userSpaceOnUse">
<stop stop-color="#2A447F"/>
<stop offset="0.33" stop-color="#2A447F" stop-opacity="0"/>
</linearGradient>
<linearGradient id="paint1_linear_136_394" x1="256.057" y1="126.057" x2="6.05714" y2="126.057" gradientUnits="userSpaceOnUse">
<stop stop-color="#1C2330"/>
<stop offset="1" stop-color="#1C2330" stop-opacity="0.2"/>
</linearGradient>
<linearGradient id="paint2_linear_136_394" x1="256.057" y1="126.057" x2="6.05714" y2="126.057" gradientUnits="userSpaceOnUse">
<stop stop-color="#2A447F"/>
<stop offset="0.33" stop-color="#2A447F" stop-opacity="0"/>
</linearGradient>
<clipPath id="clip0_136_394">
<rect width="222" height="222" fill="white" transform="translate(28 14.9998)"/>
</clipPath>
</defs>
</svg>
