<svg width="257" height="252" viewBox="0 0 257 252" fill="none" xmlns="http://www.w3.org/2000/svg">
<circle cx="125.057" cy="125.057" r="124.5" stroke="url(#paint0_linear_136_409)" stroke-opacity="0.2"/>
<mask id="path-2-inside-1_136_409" fill="white">
<path d="M248.057 126.057C252.475 126.057 256.084 122.472 255.801 118.063C254.924 104.382 251.802 90.9205 246.542 78.2219C240.26 63.0562 231.053 49.2763 219.445 37.669C207.838 26.0617 194.058 16.8543 178.893 10.5724C163.727 4.29059 147.472 1.05737 131.057 1.05737C114.642 1.05737 98.3874 4.2906 83.2217 10.5724C68.056 16.8543 54.2761 26.0617 42.6688 37.669C31.0615 49.2764 21.854 63.0563 15.5722 78.222C10.3123 90.9205 7.18978 104.382 6.31304 118.063C6.03046 122.472 9.63885 126.057 14.0571 126.057L43.0151 126.057C47.4334 126.057 50.9737 122.467 51.4145 118.071C52.1939 110.299 54.108 102.669 57.1079 95.4266C61.1304 85.7155 67.0263 76.8917 74.4589 69.4591C81.8914 62.0265 90.7152 56.1307 100.426 52.1082C110.138 48.0857 120.546 46.0153 131.057 46.0153C141.568 46.0153 151.977 48.0857 161.688 52.1082C171.399 56.1307 180.223 62.0265 187.655 69.4591C195.088 76.8917 200.984 85.7155 205.006 95.4266C208.006 102.669 209.92 110.299 210.7 118.071C211.141 122.467 214.681 126.057 219.099 126.057H248.057Z"/>
</mask>
<path d="M248.057 126.057C252.475 126.057 256.084 122.472 255.801 118.063C254.924 104.382 251.802 90.9205 246.542 78.2219C240.26 63.0562 231.053 49.2763 219.445 37.669C207.838 26.0617 194.058 16.8543 178.893 10.5724C163.727 4.29059 147.472 1.05737 131.057 1.05737C114.642 1.05737 98.3874 4.2906 83.2217 10.5724C68.056 16.8543 54.2761 26.0617 42.6688 37.669C31.0615 49.2764 21.854 63.0563 15.5722 78.222C10.3123 90.9205 7.18978 104.382 6.31304 118.063C6.03046 122.472 9.63885 126.057 14.0571 126.057L43.0151 126.057C47.4334 126.057 50.9737 122.467 51.4145 118.071C52.1939 110.299 54.108 102.669 57.1079 95.4266C61.1304 85.7155 67.0263 76.8917 74.4589 69.4591C81.8914 62.0265 90.7152 56.1307 100.426 52.1082C110.138 48.0857 120.546 46.0153 131.057 46.0153C141.568 46.0153 151.977 48.0857 161.688 52.1082C171.399 56.1307 180.223 62.0265 187.655 69.4591C195.088 76.8917 200.984 85.7155 205.006 95.4266C208.006 102.669 209.92 110.299 210.7 118.071C211.141 122.467 214.681 126.057 219.099 126.057H248.057Z" fill="url(#paint1_linear_136_409)" stroke="url(#paint2_linear_136_409)" stroke-opacity="0.7" stroke-width="2" mask="url(#path-2-inside-1_136_409)"/>
<g clip-path="url(#clip0_136_409)">
<path d="M98.168 112.912C96.5206 112.088 95.0442 110.96 93.8165 109.587C89.791 112.903 86.9119 117.403 85.588 122.447C87.205 121.534 88.8968 120.761 90.6451 120.135L92.3537 119.522C93.7677 116.908 95.7555 114.648 98.168 112.912ZM171.357 120.138C173.105 120.763 174.797 121.536 176.414 122.45C175.313 118.297 173.157 114.5 170.154 111.427C167.152 108.354 163.405 106.11 159.279 104.913C158.917 106.634 158.422 108.323 157.799 109.966C160.31 110.692 162.651 111.911 164.686 113.552C166.72 115.193 168.407 117.224 169.648 119.524L171.357 120.138ZM212.929 164.491C208.173 164.423 203.425 164.881 198.77 165.856C194.446 166.769 190.034 167.195 185.616 167.125C181.198 167.195 176.785 166.769 172.461 165.856C167.807 164.881 163.059 164.423 158.304 164.491C153.549 164.423 148.801 164.881 144.147 165.856C139.824 166.769 135.413 167.195 130.995 167.125C126.577 167.195 122.166 166.769 117.843 165.856C113.189 164.881 108.442 164.423 103.688 164.491C98.9328 164.423 94.1852 164.881 89.5311 165.856C85.2082 166.769 80.7966 167.195 76.3789 167.125C71.9617 167.195 67.5505 166.769 63.2281 165.856C58.574 164.881 53.8263 164.423 49.0716 164.491C48.3731 164.491 47.7033 164.769 47.2094 165.263C46.7155 165.757 46.438 166.426 46.438 167.125C46.438 167.823 46.7155 168.493 47.2094 168.987C47.7033 169.481 48.3731 169.758 49.0716 169.758C53.4893 169.689 57.9009 170.114 62.2238 171.027C66.8774 172.003 71.6246 172.46 76.3789 172.392C81.1336 172.461 85.8813 172.003 90.5354 171.028C94.8583 170.115 99.2699 169.69 103.688 169.76C108.105 169.69 112.516 170.116 116.838 171.028C121.493 172.003 126.24 172.461 130.995 172.392C135.75 172.461 140.497 172.003 145.151 171.028C149.474 170.115 153.886 169.69 158.304 169.76C162.722 169.69 167.134 170.115 171.457 171.028C176.112 172.003 180.861 172.461 185.616 172.392C190.371 172.461 195.119 172.003 199.774 171.028C204.098 170.115 208.51 169.69 212.929 169.76C213.627 169.76 214.297 169.482 214.791 168.988C215.285 168.494 215.563 167.824 215.563 167.126C215.563 166.427 215.285 165.757 214.791 165.263C214.297 164.769 213.627 164.491 212.929 164.491Z" fill="#364362"/>
<path d="M212.929 176.343C208.173 176.274 203.425 176.732 198.77 177.707C194.446 178.62 190.034 179.045 185.616 178.975C181.198 179.045 176.785 178.62 172.461 177.707C167.807 176.732 163.059 176.275 158.304 176.343C153.549 176.275 148.801 176.732 144.147 177.707C139.824 178.62 135.413 179.045 130.995 178.975C126.577 179.045 122.166 178.62 117.843 177.707C113.189 176.732 108.442 176.275 103.688 176.343C98.9329 176.275 94.1852 176.732 89.5311 177.707C85.2082 178.62 80.7966 179.045 76.3789 178.975C71.9617 179.045 67.5505 178.62 63.2281 177.707C58.5739 176.732 53.8263 176.274 49.0716 176.343C48.3731 176.343 47.7033 176.621 47.2094 177.115C46.7155 177.608 46.438 178.278 46.438 178.977C46.438 179.675 46.7155 180.345 47.2094 180.839C47.7033 181.333 48.3731 181.61 49.0716 181.61C53.4893 181.541 57.9009 181.966 62.2238 182.879C66.8774 183.854 71.6246 184.312 76.3789 184.244C81.1336 184.312 85.8813 183.854 90.5354 182.879C94.8583 181.966 99.2699 181.541 103.688 181.61C108.105 181.541 112.516 181.966 116.838 182.879C121.492 183.854 126.24 184.312 130.995 184.244C135.75 184.312 140.497 183.854 145.151 182.879C149.474 181.966 153.886 181.541 158.304 181.61C162.722 181.54 167.134 181.966 171.457 182.879C176.112 183.854 180.861 184.312 185.616 184.244C190.371 184.312 195.119 183.854 199.774 182.879C204.098 181.966 208.51 181.54 212.929 181.61C213.627 181.61 214.297 181.333 214.791 180.839C215.285 180.345 215.562 179.675 215.562 178.977C215.562 178.278 215.285 177.608 214.791 177.115C214.297 176.621 213.627 176.343 212.929 176.343Z" fill="#386EE9"/>
<path d="M227.134 18.6742C227.918 18.6742 228.685 18.4417 229.337 18.0061C229.989 17.5705 230.497 16.9513 230.797 16.227C231.097 15.5026 231.175 14.7055 231.022 13.9365C230.869 13.1675 230.492 12.4611 229.937 11.9067C229.383 11.3523 228.677 10.9747 227.908 10.8218C227.139 10.6688 226.341 10.7473 225.617 11.0474C224.893 11.3474 224.274 11.8555 223.838 12.5075C223.402 13.1594 223.17 13.9258 223.17 14.7099C223.171 15.761 223.589 16.7687 224.332 17.5119C225.075 18.2551 226.083 18.6731 227.134 18.6742ZM227.134 12.7278C227.526 12.7278 227.909 12.844 228.235 13.0618C228.561 13.2796 228.815 13.5892 228.965 13.9514C229.115 14.3135 229.155 14.7121 229.078 15.0966C229.002 15.4811 228.813 15.8343 228.536 16.1115C228.259 16.3887 227.905 16.5775 227.521 16.6539C227.136 16.7304 226.738 16.6912 226.376 16.5412C226.013 16.3911 225.704 16.1371 225.486 15.8111C225.268 15.4852 225.152 15.1019 225.152 14.7099C225.152 14.1843 225.361 13.6803 225.733 13.3087C226.105 12.937 226.609 12.7281 227.134 12.7278ZM135.625 36.1831C135.102 36.1831 134.592 36.3381 134.157 36.6285C133.722 36.9189 133.384 37.3317 133.184 37.8146C132.983 38.2975 132.931 38.8289 133.033 39.3416C133.135 39.8542 133.387 40.3251 133.756 40.6947C134.126 41.0644 134.597 41.3161 135.11 41.418C135.622 41.52 136.154 41.4677 136.637 41.2676C137.12 41.0676 137.532 40.7289 137.823 40.2943C138.113 39.8596 138.268 39.3487 138.268 38.826C138.267 38.1253 137.989 37.4534 137.493 36.958C136.998 36.4625 136.326 36.1838 135.625 36.1831ZM135.625 40.1474C135.364 40.1474 135.108 40.0699 134.891 39.9247C134.674 39.7795 134.504 39.5731 134.404 39.3317C134.304 39.0902 134.278 38.8245 134.329 38.5682C134.38 38.3118 134.506 38.0764 134.691 37.8916C134.876 37.7068 135.111 37.5809 135.367 37.5299C135.624 37.4789 135.889 37.5051 136.131 37.6051C136.372 37.7051 136.579 37.8745 136.724 38.0918C136.869 38.3091 136.947 38.5646 136.947 38.826C136.946 39.1763 136.807 39.5122 136.559 39.76C136.311 40.0077 135.976 40.147 135.625 40.1474ZM224.161 62.6117C223.638 62.6117 223.127 62.7667 222.693 63.0571C222.258 63.3475 221.919 63.7602 221.719 64.2432C221.519 64.7261 221.467 65.2575 221.569 65.7701C221.671 66.2828 221.923 66.7537 222.292 67.1233C222.662 67.4929 223.133 67.7446 223.645 67.8466C224.158 67.9486 224.689 67.8963 225.172 67.6962C225.655 67.4962 226.068 67.1574 226.358 66.7228C226.649 66.2882 226.804 65.7772 226.804 65.2545C226.803 64.5538 226.524 63.882 226.029 63.3865C225.533 62.891 224.862 62.6124 224.161 62.6117ZM224.161 66.576C223.9 66.576 223.644 66.4985 223.427 66.3533C223.209 66.2081 223.04 66.0017 222.94 65.7602C222.84 65.5188 222.814 65.2531 222.865 64.9967C222.916 64.7404 223.042 64.505 223.227 64.3201C223.411 64.1353 223.647 64.0095 223.903 63.9585C224.159 63.9075 224.425 63.9337 224.667 64.0337C224.908 64.1337 225.114 64.3031 225.26 64.5204C225.405 64.7377 225.482 64.9932 225.482 65.2545C225.482 65.6049 225.343 65.9408 225.095 66.1885C224.847 66.4363 224.511 66.5756 224.161 66.576ZM46.0984 67.2367C45.5757 67.2367 45.0647 67.3917 44.6301 67.6821C44.1955 67.9725 43.8568 68.3852 43.6567 68.8682C43.4567 69.3511 43.4044 69.8825 43.5063 70.3951C43.6083 70.9078 43.86 71.3787 44.2296 71.7483C44.5993 72.1179 45.0702 72.3696 45.5828 72.4716C46.0955 72.5736 46.6269 72.5213 47.1098 72.3212C47.5927 72.1212 48.0055 71.7824 48.2959 71.3478C48.5863 70.9132 48.7413 70.4022 48.7413 69.8795C48.7406 69.1788 48.4619 68.507 47.9664 68.0115C47.471 67.516 46.7991 67.2374 46.0984 67.2367ZM46.0984 71.201C45.8371 71.201 45.5816 71.1235 45.3643 70.9783C45.147 70.8331 44.9776 70.6267 44.8776 70.3852C44.7776 70.1438 44.7514 69.8781 44.8024 69.6217C44.8534 69.3654 44.9792 69.13 45.164 68.9451C45.3488 68.7603 45.5843 68.6345 45.8406 68.5835C46.097 68.5325 46.3627 68.5587 46.6041 68.6587C46.8456 68.7587 47.052 68.9281 47.1972 69.1454C47.3424 69.3627 47.4199 69.6182 47.4199 69.8795C47.4195 70.2299 47.2802 70.5658 47.0324 70.8135C46.7847 71.0613 46.4488 71.2006 46.0984 71.201ZM99.0943 13.1453C98.7196 13.5098 98.4614 13.9772 98.3523 14.4884C98.2433 14.9996 98.2883 15.5317 98.4816 16.0173C98.675 16.503 99.008 16.9204 99.4386 17.2168C99.8691 17.5132 100.378 17.6752 100.901 17.6824C101.423 17.6896 101.936 17.5417 102.375 17.2573C102.814 16.9729 103.158 16.5648 103.365 16.0847C103.571 15.6045 103.631 15.0739 103.536 14.5599C103.441 14.0459 103.196 13.5715 102.831 13.1969C102.342 12.6951 101.674 12.4079 100.973 12.3983C100.273 12.3886 99.5971 12.6573 99.0943 13.1453ZM101.859 15.9864C101.671 16.1686 101.434 16.2911 101.177 16.3385C100.92 16.3858 100.655 16.3559 100.415 16.2525C100.175 16.1491 99.9707 15.9768 99.8286 15.7575C99.6865 15.5381 99.6126 15.2816 99.6163 15.0202C99.62 14.7589 99.7011 14.5045 99.8494 14.2893C99.9977 14.0741 100.206 13.9076 100.449 13.811C100.692 13.7145 100.958 13.6921 101.214 13.7467C101.469 13.8013 101.703 13.9305 101.885 14.1179C102.129 14.3694 102.263 14.7073 102.258 15.0576C102.253 15.4079 102.11 15.7419 101.859 15.9864Z" fill="#364362"/>
<path d="M29.3596 15.0547L31.3246 12.47L30.0837 11.767L28.8231 14.6609H28.7808L27.499 11.7881L26.2371 12.5109L28.1809 15.0348V15.0758L25.1416 14.682V16.088L28.202 15.6956V15.7365L26.2371 18.2591L27.4158 19.0044L28.761 16.088H28.8006L30.0415 18.9833L31.3444 18.2393L29.3596 15.7577V15.7154L32.4808 16.088V14.682L29.3596 15.0956V15.0547ZM197.437 40.2345L196.305 41.6867L196.984 42.1162L197.759 40.4367H197.782L198.496 42.1043L199.246 41.6748L198.103 40.2464V40.2226L199.901 40.4367V39.6266L198.103 39.8658V39.842L199.235 38.3528L198.521 37.9484L197.794 39.6147H197.77L197.033 37.9603L196.305 38.3766L197.426 39.8301V39.8539L195.675 39.6266V40.4367L197.437 40.2107V40.2345ZM185.839 14.9912V13.6117L182.777 14.0173V13.9777L184.705 11.4419L183.488 10.7534L182.252 13.5918H182.209L180.953 10.7732L179.714 11.4828L181.621 13.9579V13.9975L178.64 13.6117V14.9912L181.641 14.6067V14.6463L179.714 17.1201L180.871 17.8508L182.189 14.9912H182.229L183.446 17.831L184.724 17.1002L182.777 14.6662V14.6265L185.839 14.9912ZM72.121 38.9382L73.7834 36.7525L72.7342 36.1579L71.6665 38.6065H71.6308L70.5472 36.1751L69.4795 36.7869L71.1247 38.921V38.9567L68.5519 38.6237V39.813L71.1419 39.4813V39.5156L69.4795 41.6497L70.4759 42.2801L71.6149 39.813H71.648L72.6985 42.2629L73.8006 41.6326L72.121 39.5328V39.4985L74.7626 39.813V38.6237L72.121 38.9738V38.9382Z" fill="#386EE9"/>
<path d="M22.6429 194.754C24.1025 194.754 25.2857 193.571 25.2857 192.112C25.2857 190.652 24.1025 189.469 22.6429 189.469C21.1832 189.469 20 190.652 20 192.112C20 193.571 21.1832 194.754 22.6429 194.754Z" fill="#364362"/>
<path d="M34.5359 189.469H30.5716C29.8706 189.469 29.1984 189.747 28.7028 190.243C28.2072 190.738 27.9287 191.411 27.9287 192.112C27.9287 192.813 28.2072 193.485 28.7028 193.98C29.1984 194.476 29.8706 194.754 30.5716 194.754H34.5359C35.2368 194.754 35.909 194.476 36.4046 193.98C36.9003 193.485 37.1787 192.813 37.1787 192.112C37.1787 191.411 36.9003 190.738 36.4046 190.243C35.909 189.747 35.2368 189.469 34.5359 189.469ZM231.429 189.469H227.464C226.763 189.469 226.091 189.747 225.596 190.243C225.1 190.738 224.822 191.411 224.822 192.112C224.822 192.813 225.1 193.485 225.596 193.98C226.091 194.476 226.763 194.754 227.464 194.754H231.429C232.13 194.754 232.802 194.476 233.297 193.98C233.793 193.485 234.072 192.813 234.072 192.112C234.072 191.411 233.793 190.738 233.297 190.243C232.802 189.747 232.13 189.469 231.429 189.469Z" fill="#364362"/>
<path d="M239.357 194.754C240.817 194.754 242 193.571 242 192.112C242 190.652 240.817 189.469 239.357 189.469C237.898 189.469 236.714 190.652 236.714 192.112C236.714 193.571 237.898 194.754 239.357 194.754Z" fill="#364362"/>
<path d="M176.132 200.04H165.154C164.488 200.092 163.866 200.393 163.413 200.883C162.959 201.373 162.708 202.016 162.708 202.683C162.708 203.351 162.959 203.994 163.413 204.484C163.866 204.974 164.488 205.274 165.154 205.326H176.132C176.798 205.274 177.419 204.974 177.873 204.484C178.326 203.994 178.578 203.351 178.578 202.683C178.578 202.016 178.326 201.373 177.873 200.883C177.419 200.393 176.798 200.092 176.132 200.04ZM96.8462 200.04H85.8678C85.2022 200.092 84.5806 200.393 84.1272 200.883C83.6738 201.373 83.4219 202.016 83.4219 202.683C83.4219 203.351 83.6738 203.994 84.1272 204.484C84.5806 204.974 85.2022 205.274 85.8678 205.326H96.8462C97.5118 205.274 98.1334 204.974 98.5868 204.484C99.0403 203.994 99.2921 203.351 99.2921 202.683C99.2921 202.016 99.0403 201.373 98.5868 200.883C98.1334 200.393 97.5118 200.092 96.8462 200.04ZM157.428 200.04H104.571C103.87 200.04 103.198 200.319 102.703 200.814C102.207 201.31 101.928 201.982 101.928 202.683C101.928 203.384 102.207 204.056 102.703 204.552C103.198 205.048 103.87 205.326 104.571 205.326H125.635V207.969H115.143C114.442 207.969 113.77 208.247 113.274 208.743C112.778 209.239 112.5 209.911 112.5 210.612C112.5 211.313 112.778 211.985 113.274 212.48C113.77 212.976 114.442 213.255 115.143 213.255H148.178C148.879 213.255 149.552 212.976 150.047 212.48C150.543 211.985 150.821 211.313 150.821 210.612C150.821 209.911 150.543 209.239 150.047 208.743C149.552 208.247 148.879 207.969 148.178 207.969H136.365V205.326H157.428C158.129 205.326 158.802 205.048 159.297 204.552C159.793 204.056 160.071 203.384 160.071 202.683C160.071 201.982 159.793 201.31 159.297 200.814C158.802 200.319 158.129 200.04 157.428 200.04Z" fill="#386EE9"/>
<path d="M219.167 189.469H42.8344C42.4584 189.42 42.0763 189.451 41.7135 189.562C41.3507 189.672 41.0157 189.858 40.7307 190.109C40.4457 190.359 40.2174 190.667 40.061 191.012C39.9046 191.358 39.8237 191.732 39.8237 192.112C39.8237 192.491 39.9046 192.866 40.061 193.211C40.2174 193.556 40.4457 193.864 40.7307 194.115C41.0157 194.365 41.3507 194.551 41.7135 194.662C42.0763 194.772 42.4584 194.804 42.8344 194.754H219.166C219.542 194.804 219.924 194.772 220.287 194.662C220.649 194.551 220.985 194.365 221.269 194.115C221.554 193.864 221.783 193.556 221.939 193.211C222.096 192.866 222.176 192.491 222.176 192.112C222.176 191.732 222.096 191.358 221.939 191.012C221.783 190.667 221.554 190.359 221.269 190.109C220.985 189.858 220.649 189.672 220.287 189.562C219.924 189.451 219.543 189.42 219.167 189.469Z" fill="#364362"/>
<path d="M130.945 114.905C129.148 114.905 127.391 114.372 125.897 113.373C124.403 112.375 123.239 110.956 122.551 109.296C121.864 107.636 121.684 105.81 122.034 104.047C122.385 102.285 123.25 100.666 124.521 99.3957C125.791 98.1252 127.41 97.26 129.172 96.9094C130.935 96.5589 132.761 96.7388 134.421 97.4264C136.081 98.114 137.5 99.2784 138.498 100.772C139.497 102.266 140.03 104.023 140.03 105.82C140.027 108.228 139.069 110.537 137.366 112.241C135.662 113.944 133.353 114.902 130.945 114.905ZM130.945 102.021C130.193 102.021 129.459 102.243 128.834 102.661C128.209 103.078 127.722 103.672 127.435 104.366C127.147 105.06 127.072 105.824 127.219 106.561C127.365 107.298 127.727 107.975 128.258 108.506C128.79 109.037 129.467 109.399 130.204 109.546C130.94 109.692 131.704 109.617 132.399 109.33C133.093 109.042 133.686 108.555 134.104 107.93C134.521 107.306 134.744 106.571 134.744 105.82C134.742 104.813 134.342 103.847 133.63 103.135C132.917 102.423 131.952 102.022 130.945 102.021Z" fill="#364362"/>
<path d="M184.103 140.794C182.93 133.808 177.495 127.936 169.565 125.091L149.5 117.887V114.319C153.01 109.357 154.86 103.412 154.786 97.3348V83.9805L149.5 85.2966V97.3348C149.5 109.148 141.746 118.404 131.846 118.404H130.154C123.965 118.404 118.614 114.786 115.473 109.185H122.514C121.839 107.514 121.683 105.679 122.065 103.918H113.356C112.785 101.77 112.497 99.5572 112.5 97.3348V85.2966L107.214 83.9805V90.7501H104.653C103.434 90.7355 102.223 90.9632 101.092 91.4199C99.9608 91.8765 98.9316 92.5532 98.0639 93.4106C97.1961 94.2679 96.5072 95.289 96.037 96.4146C95.5669 97.5402 95.3248 98.7479 95.3248 99.9678C95.3248 101.188 95.5669 102.395 96.037 103.521C96.5072 104.647 97.1961 105.668 98.0639 106.525C98.9316 107.382 99.9608 108.059 101.092 108.516C102.223 108.972 103.434 109.2 104.653 109.185H109.613C110.382 110.998 111.35 112.719 112.5 114.318V117.886L92.4355 125.091C84.5069 127.938 79.0705 133.808 77.905 140.754L74.0293 161.83C75.8219 161.875 77.6154 161.867 79.4075 161.807L83.1115 141.663C83.8192 138.179 85.8213 135.092 88.7143 133.025V151.323C88.7157 152.023 88.9949 152.693 89.4905 153.187C89.9861 153.681 90.6575 153.958 91.3572 153.957H94.4401V159.758C95.9465 159.56 97.6617 159.4 99.7258 159.309V153.957H160.732V159.254C162.783 159.306 164.505 159.422 166.018 159.578V153.957H170.643C171.343 153.958 172.014 153.681 172.51 153.187C173.005 152.693 173.284 152.023 173.286 151.323V133.027C176.186 135.105 178.191 138.205 178.897 141.703L182.594 161.807C184.386 161.867 186.179 161.874 187.971 161.828L184.103 140.794ZM104.653 103.918C104.129 103.928 103.607 103.833 103.119 103.638C102.632 103.444 102.188 103.155 101.813 102.787C101.438 102.419 101.141 101.981 100.938 101.496C100.735 101.012 100.63 100.493 100.63 99.9678C100.63 99.4428 100.735 98.9231 100.938 98.4391C101.141 97.955 101.438 97.5163 101.813 97.1485C102.188 96.7807 102.632 96.4913 103.119 96.2971C103.607 96.1028 104.129 96.0078 104.653 96.0174H107.214V97.3348C107.22 99.5488 107.463 101.756 107.938 103.918H104.653ZM101.929 148.69H94V130.137C94.0767 130.108 94.1507 130.076 94.2273 130.048L101.929 127.281V148.69ZM117.786 119.605C121.372 122.24 125.704 123.664 130.154 123.671H131.846C136.296 123.664 140.628 122.241 144.214 119.606V127.208L131 138.622L117.786 127.208V119.605ZM154.786 148.69H107.214V125.383L112.5 123.485V128.411C112.5 128.789 112.582 129.162 112.739 129.505C112.896 129.849 113.126 130.154 113.412 130.401L129.269 144.096C129.75 144.511 130.365 144.74 131 144.74C131.636 144.74 132.25 144.511 132.731 144.096L148.588 130.401C148.874 130.154 149.103 129.849 149.261 129.506C149.418 129.163 149.5 128.79 149.5 128.412V123.487L154.786 125.386V148.69ZM168 148.69H160.071V127.282L167.773 130.048C167.849 130.075 167.923 130.108 168 130.137V148.69Z" fill="#364362"/>
<path d="M120.476 81.8372L109.646 79.1388V72.3572H124.107L120.476 81.8372ZM152.354 79.1401L141.524 81.8385L138.162 73.0629C138.362 72.8562 138.527 72.6183 138.651 72.3586H152.354V79.1401Z" fill="#386EE9"/>
<path d="M130.154 55.1972H131.846C138.899 55.1972 144.844 59.9068 147.69 66.8826L147.779 67.0716H153.356L153.294 66.8826C150.065 56.89 141.809 49.9287 131.846 49.9287H130.154C120.191 49.9287 111.934 56.89 108.706 66.8826H114.312C117.155 59.9068 123.099 55.1972 130.154 55.1972Z" fill="#364362"/>
</g>
<defs>
<linearGradient id="paint0_linear_136_409" x1="0.0571289" y1="125.057" x2="250.057" y2="125.057" gradientUnits="userSpaceOnUse">
<stop stop-color="#2A447F"/>
<stop offset="0.33" stop-color="#2A447F" stop-opacity="0"/>
</linearGradient>
<linearGradient id="paint1_linear_136_409" x1="6.05713" y1="126.057" x2="256.057" y2="126.057" gradientUnits="userSpaceOnUse">
<stop stop-color="#1C2330"/>
<stop offset="1" stop-color="#1C2330" stop-opacity="0.2"/>
</linearGradient>
<linearGradient id="paint2_linear_136_409" x1="6.05713" y1="126.057" x2="256.057" y2="126.057" gradientUnits="userSpaceOnUse">
<stop stop-color="#2A447F"/>
<stop offset="0.33" stop-color="#2A447F" stop-opacity="0"/>
</linearGradient>
<clipPath id="clip0_136_409">
<rect width="222" height="222" fill="white" transform="translate(20 1)"/>
</clipPath>
</defs>
</svg>
