<svg width="313" height="313" viewBox="0 0 313 313" fill="none" xmlns="http://www.w3.org/2000/svg">
<circle cx="150.057" cy="155.057" r="124.5" stroke="url(#paint0_linear_64_40)" stroke-opacity="0.2"/>
<mask id="path-2-inside-1_64_40" fill="white">
<path d="M267.956 121.887C272.182 120.596 274.586 116.113 273.028 111.979C268.194 99.1509 261.276 87.1879 252.536 76.5792C242.099 63.9094 229.269 53.4194 214.778 45.7081C200.286 37.9968 184.418 33.2153 168.079 31.6366C151.74 30.0578 135.25 31.7128 119.55 36.507C103.851 41.3011 89.2491 49.1406 76.5792 59.5778C63.9094 70.015 53.4193 82.8455 45.7081 97.3367C37.9968 111.828 33.2153 127.696 31.6366 144.035C30.3147 157.716 31.2599 171.503 34.4168 184.843C35.4343 189.143 39.9325 191.518 44.1582 190.228L71.8536 181.77C76.0792 180.48 78.4166 176.012 77.5543 171.679C76.0299 164.018 75.6322 156.162 76.3861 148.359C77.397 137.897 80.4588 127.736 85.3966 118.456C90.3344 109.177 97.0516 100.961 105.165 94.2779C113.277 87.5946 122.627 82.5747 132.68 79.5048C142.733 76.4349 153.293 75.3752 163.755 76.3861C174.218 77.3971 184.379 80.4588 193.658 85.3966C202.937 90.3344 211.153 97.0516 217.836 105.165C222.821 111.215 226.88 117.954 229.895 125.159C231.6 129.234 236.035 131.634 240.261 130.344L267.956 121.887Z"/>
</mask>
<path d="M267.956 121.887C272.182 120.596 274.586 116.113 273.028 111.979C268.194 99.1509 261.276 87.1879 252.536 76.5792C242.099 63.9094 229.269 53.4194 214.778 45.7081C200.286 37.9968 184.418 33.2153 168.079 31.6366C151.74 30.0578 135.25 31.7128 119.55 36.507C103.851 41.3011 89.2491 49.1406 76.5792 59.5778C63.9094 70.015 53.4193 82.8455 45.7081 97.3367C37.9968 111.828 33.2153 127.696 31.6366 144.035C30.3147 157.716 31.2599 171.503 34.4168 184.843C35.4343 189.143 39.9325 191.518 44.1582 190.228L71.8536 181.77C76.0792 180.48 78.4166 176.012 77.5543 171.679C76.0299 164.018 75.6322 156.162 76.3861 148.359C77.397 137.897 80.4588 127.736 85.3966 118.456C90.3344 109.177 97.0516 100.961 105.165 94.2779C113.277 87.5946 122.627 82.5747 132.68 79.5048C142.733 76.4349 153.293 75.3752 163.755 76.3861C174.218 77.3971 184.379 80.4588 193.658 85.3966C202.937 90.3344 211.153 97.0516 217.836 105.165C222.821 111.215 226.88 117.954 229.895 125.159C231.6 129.234 236.035 131.634 240.261 130.344L267.956 121.887Z" fill="url(#paint1_linear_64_40)" stroke="url(#paint2_linear_64_40)" stroke-opacity="0.7" stroke-width="2" mask="url(#path-2-inside-1_64_40)"/>
<path d="M270.125 166.184L245.181 191.127L235.276 181.223C234.103 180.048 232.197 180.048 231.023 181.223C229.849 182.397 229.849 184.301 231.023 185.476L243.055 197.507C243.641 198.095 244.411 198.388 245.181 198.388C245.951 198.388 246.721 198.095 247.308 197.507L274.378 170.437C275.552 169.262 275.552 167.358 274.378 166.184C273.205 165.008 271.298 165.008 270.125 166.184Z" fill="#386EE9"/>
<path d="M287.243 154.077L254.158 135.17C252.449 134.194 250.496 133.721 248.189 133.721C245.882 133.721 243.928 134.194 242.22 135.17L209.134 154.077C205.395 156.214 203.073 160.218 203.073 164.523V185.954C203.073 200.414 210.853 213.889 223.418 221.144L246.729 234.103C247.183 234.355 247.687 234.482 248.19 234.482C248.694 234.482 249.196 234.355 249.652 234.103L273.005 221.118C285.527 213.887 293.307 200.414 293.307 185.954V164.523C293.306 160.216 290.984 156.214 287.243 154.077ZM287.29 185.954C287.29 198.272 280.662 209.75 270.037 215.886L248.189 228.033L226.382 215.909C215.715 209.749 209.088 198.271 209.088 185.954V164.524C209.088 162.37 210.249 160.37 212.119 159.301L245.205 140.395C245.98 139.953 246.957 139.736 248.19 139.736C249.424 139.736 250.401 139.951 251.176 140.395L284.261 159.301C286.131 160.37 287.293 162.371 287.293 164.524V185.954H287.29V185.954ZM172.994 165.302H132.389C130.729 165.302 129.381 166.65 129.381 168.31V169.062C129.381 181.916 139.838 192.373 152.691 192.373C164.784 192.373 174.749 183.116 175.888 171.318H188.033C189.693 171.318 191.041 169.971 191.041 168.31C191.041 166.65 189.693 165.303 188.033 165.303L172.994 165.302ZM152.691 186.357C143.919 186.357 136.651 179.793 135.543 171.318H169.84C168.732 179.793 161.464 186.357 152.691 186.357ZM183.521 157.783H197.056C198.717 157.783 200.064 156.436 200.064 154.775C200.064 153.115 198.717 151.767 197.056 151.767H183.521C162.88 151.767 143.376 150.28 128.599 147.576C111.401 144.432 107.006 140.761 106.823 139.748C107.014 138.645 111.464 135.064 128.164 131.975L126.507 137.345C126.488 137.41 126.483 137.475 126.468 137.539C126.453 137.601 126.429 137.658 126.417 137.721C126.411 137.757 126.414 137.792 126.409 137.828C126.394 137.936 126.39 138.044 126.387 138.151C126.384 138.244 126.381 138.338 126.387 138.428C126.393 138.53 126.409 138.629 126.426 138.729C126.442 138.824 126.457 138.917 126.482 139.01C126.507 139.103 126.54 139.192 126.573 139.282C126.608 139.374 126.641 139.464 126.685 139.551C126.727 139.637 126.776 139.717 126.826 139.8C126.877 139.882 126.927 139.963 126.984 140.04C127.042 140.117 127.107 140.188 127.172 140.26C127.238 140.33 127.303 140.401 127.375 140.467C127.446 140.53 127.521 140.586 127.599 140.643C127.68 140.703 127.761 140.762 127.849 140.815C127.928 140.863 128.012 140.902 128.098 140.941C128.194 140.986 128.291 141.031 128.393 141.066C128.428 141.078 128.458 141.097 128.494 141.108C128.531 141.12 128.57 141.115 128.608 141.126C128.695 141.149 128.778 141.183 128.87 141.198C138.723 142.899 158.927 145.753 183.521 145.753C193.391 145.753 203.445 145.299 213.402 144.403C215.056 144.254 216.278 142.792 216.129 141.138C215.98 139.484 214.509 138.264 212.864 138.413C203.084 139.293 193.212 139.739 183.521 139.739C161.897 139.739 143.769 137.496 133.272 135.828L134.995 130.245C135.646 129.59 135.995 128.651 135.842 127.669C135.837 127.638 135.824 127.609 135.818 127.577L148.353 86.9603C148.604 86.1241 149.18 85.4594 149.974 85.0924C150.771 84.724 151.651 84.715 152.448 85.0623L168.485 92.081C170.227 92.8495 172.149 93.0405 174.042 92.6284L214.804 83.7118C216.335 83.3825 217.89 84.2998 218.348 85.8097L231.944 129.889C232.434 131.477 234.114 132.367 235.703 131.877C237.291 131.387 238.18 129.704 237.691 128.116L224.099 84.0457C222.738 79.5776 218.099 76.8495 213.527 77.8331L172.762 86.7511C172.123 86.8895 171.484 86.8293 170.907 86.5736L154.857 79.5505C152.49 78.5173 149.789 78.5488 147.446 79.6347C145.103 80.722 143.334 82.7612 142.599 85.2096L130.157 125.524C100.822 130.411 100.807 137.399 100.807 139.736C100.807 154.011 154.913 157.783 183.521 157.783Z" fill="#386EE9"/>
<defs>
<linearGradient id="paint0_linear_64_40" x1="25.0571" y1="155.057" x2="275.057" y2="155.057" gradientUnits="userSpaceOnUse">
<stop stop-color="#2A447F"/>
<stop offset="0.33" stop-color="#2A447F" stop-opacity="0"/>
</linearGradient>
<linearGradient id="paint1_linear_64_40" x1="36.5069" y1="192.564" x2="275.607" y2="119.55" gradientUnits="userSpaceOnUse">
<stop stop-color="#1C2330"/>
<stop offset="1" stop-color="#1C2330" stop-opacity="0.2"/>
</linearGradient>
<linearGradient id="paint2_linear_64_40" x1="36.5069" y1="192.564" x2="275.607" y2="119.55" gradientUnits="userSpaceOnUse">
<stop stop-color="#2A447F"/>
<stop offset="0.33" stop-color="#2A447F" stop-opacity="0"/>
</linearGradient>
</defs>
</svg>
