<svg width="257" height="252" viewBox="0 0 257 252" fill="none" xmlns="http://www.w3.org/2000/svg">
<circle cx="125.057" cy="125.057" r="124.5" stroke="url(#paint0_linear_136_378)" stroke-opacity="0.2"/>
<mask id="path-2-inside-1_136_378" fill="white">
<path d="M248.057 126.057C252.475 126.057 256.083 122.472 255.801 118.063C254.924 104.382 251.801 90.9203 246.542 78.2218C240.26 63.0561 231.052 49.2762 219.445 37.6688C207.838 26.0615 194.058 16.8541 178.892 10.5722C163.726 4.29041 147.472 1.05719 131.057 1.05719C114.641 1.05719 98.3869 4.29041 83.2212 10.5723C68.0555 16.8541 54.2756 26.0615 42.6683 37.6688C31.061 49.2762 21.8535 63.0561 15.5717 78.2218C10.3118 90.9203 7.1893 104.382 6.31255 118.063C6.02997 122.472 9.63836 126.057 14.0566 126.057L43.0146 126.057C47.4329 126.057 50.9732 122.467 51.4141 118.07C52.1934 110.299 54.1075 102.669 57.1074 95.4264C61.1299 85.7153 67.0258 76.8915 74.4584 69.4589C81.891 62.0263 90.7147 56.1305 100.426 52.108C110.137 48.0855 120.545 46.0151 131.057 46.0151C141.568 46.0151 151.976 48.0855 161.687 52.108C171.399 56.1305 180.222 62.0263 187.655 69.4589C195.088 76.8915 200.983 85.7153 205.006 95.4264C208.006 102.669 209.92 110.299 210.699 118.07C211.14 122.467 214.68 126.057 219.099 126.057H248.057Z"/>
</mask>
<path d="M248.057 126.057C252.475 126.057 256.083 122.472 255.801 118.063C254.924 104.382 251.801 90.9203 246.542 78.2218C240.26 63.0561 231.052 49.2762 219.445 37.6688C207.838 26.0615 194.058 16.8541 178.892 10.5722C163.726 4.29041 147.472 1.05719 131.057 1.05719C114.641 1.05719 98.3869 4.29041 83.2212 10.5723C68.0555 16.8541 54.2756 26.0615 42.6683 37.6688C31.061 49.2762 21.8535 63.0561 15.5717 78.2218C10.3118 90.9203 7.1893 104.382 6.31255 118.063C6.02997 122.472 9.63836 126.057 14.0566 126.057L43.0146 126.057C47.4329 126.057 50.9732 122.467 51.4141 118.07C52.1934 110.299 54.1075 102.669 57.1074 95.4264C61.1299 85.7153 67.0258 76.8915 74.4584 69.4589C81.891 62.0263 90.7147 56.1305 100.426 52.108C110.137 48.0855 120.545 46.0151 131.057 46.0151C141.568 46.0151 151.976 48.0855 161.687 52.108C171.399 56.1305 180.222 62.0263 187.655 69.4589C195.088 76.8915 200.983 85.7153 205.006 95.4264C208.006 102.669 209.92 110.299 210.699 118.07C211.14 122.467 214.68 126.057 219.099 126.057H248.057Z" fill="url(#paint1_linear_136_378)" stroke="url(#paint2_linear_136_378)" stroke-opacity="0.7" stroke-width="2" mask="url(#path-2-inside-1_136_378)"/>
<g clip-path="url(#clip0_136_378)">
<path d="M87.2242 42.4157C88.0083 42.4157 88.7747 42.1832 89.4266 41.7476C90.0786 41.312 90.5867 40.6929 90.8867 39.9685C91.1868 39.2441 91.2653 38.4471 91.1123 37.6781C90.9593 36.9091 90.5818 36.2027 90.0274 35.6483C89.4729 35.0939 88.7666 34.7163 87.9976 34.5633C87.2286 34.4104 86.4315 34.4889 85.7071 34.7889C84.9827 35.089 84.3636 35.5971 83.928 36.249C83.4924 36.9009 83.2599 37.6674 83.2599 38.4515C83.261 39.5025 83.679 40.5103 84.4222 41.2535C85.1654 41.9967 86.1731 42.4147 87.2242 42.4157ZM87.2242 36.4693C87.6162 36.4693 87.9995 36.5856 88.3254 36.8034C88.6514 37.0212 88.9054 37.3307 89.0555 37.6929C89.2055 38.0551 89.2447 38.4537 89.1682 38.8382C89.0918 39.2227 88.903 39.5758 88.6258 39.853C88.3486 40.1303 87.9954 40.319 87.6109 40.3955C87.2264 40.472 86.8279 40.4327 86.4657 40.2827C86.1035 40.1327 85.7939 39.8786 85.5761 39.5527C85.3583 39.2267 85.2421 38.8435 85.2421 38.4515C85.2424 37.9259 85.4513 37.4219 85.823 37.0503C86.1946 36.6786 86.6986 36.4697 87.2242 36.4693ZM239.188 84.7015C238.666 84.7015 238.155 84.8565 237.72 85.1469C237.286 85.4373 236.947 85.85 236.747 86.3329C236.547 86.8159 236.494 87.3472 236.596 87.8599C236.698 88.3726 236.95 88.8435 237.32 89.2131C237.689 89.5827 238.16 89.8344 238.673 89.9364C239.186 90.0384 239.717 89.986 240.2 89.786C240.683 89.586 241.096 89.2472 241.386 88.8126C241.676 88.378 241.831 87.867 241.831 87.3443C241.831 86.6436 241.552 85.9718 241.057 85.4763C240.561 84.9808 239.889 84.7022 239.188 84.7015ZM239.188 88.6657C238.927 88.6657 238.672 88.5882 238.454 88.443C238.237 88.2978 238.068 88.0915 237.968 87.85C237.868 87.6085 237.841 87.3428 237.892 87.0865C237.943 86.8302 238.069 86.5947 238.254 86.4099C238.439 86.2251 238.674 86.0993 238.931 86.0483C239.187 85.9973 239.453 86.0235 239.694 86.1235C239.936 86.2235 240.142 86.3929 240.287 86.6102C240.432 86.8275 240.51 87.083 240.51 87.3443C240.51 87.6947 240.37 88.0306 240.122 88.2783C239.875 88.5261 239.539 88.6654 239.188 88.6657ZM47.5813 21.2729C47.0586 21.2729 46.5477 21.4279 46.113 21.7183C45.6784 22.0087 45.3397 22.4214 45.1397 22.9044C44.9396 23.3873 44.8873 23.9187 44.9893 24.4313C45.0912 24.944 45.3429 25.4149 45.7126 25.7845C46.0822 26.1541 46.5531 26.4058 47.0657 26.5078C47.5784 26.6098 48.1098 26.5575 48.5927 26.3574C49.0756 26.1574 49.4884 25.8187 49.7788 25.384C50.0692 24.9494 50.2242 24.4385 50.2242 23.9157C50.2235 23.215 49.9448 22.5432 49.4493 22.0477C48.9539 21.5523 48.2821 21.2736 47.5813 21.2729ZM47.5813 25.2372C47.32 25.2372 47.0645 25.1597 46.8472 25.0145C46.6299 24.8693 46.4605 24.6629 46.3605 24.4214C46.2605 24.18 46.2343 23.9143 46.2853 23.6579C46.3363 23.4016 46.4621 23.1662 46.6469 22.9814C46.8317 22.7965 47.0672 22.6707 47.3235 22.6197C47.5799 22.5687 47.8456 22.5949 48.087 22.6949C48.3285 22.7949 48.5349 22.9643 48.6801 23.1816C48.8253 23.3989 48.9028 23.6544 48.9028 23.9157C48.9024 24.2661 48.7631 24.602 48.5153 24.8497C48.2676 25.0975 47.9317 25.2368 47.5813 25.2372ZM199.546 45.0586C199.023 45.0586 198.512 45.2136 198.077 45.504C197.643 45.7944 197.304 46.2072 197.104 46.6901C196.904 47.173 196.852 47.7044 196.954 48.2171C197.056 48.7297 197.307 49.2006 197.677 49.5702C198.046 49.9399 198.517 50.1916 199.03 50.2935C199.543 50.3955 200.074 50.3432 200.557 50.1431C201.04 49.9431 201.453 49.6044 201.743 49.1698C202.033 48.7351 202.188 48.2242 202.188 47.7015C202.188 47.0007 201.909 46.3289 201.414 45.8335C200.918 45.338 200.246 45.0593 199.546 45.0586ZM199.546 49.0229C199.284 49.0229 199.029 48.9454 198.811 48.8002C198.594 48.655 198.425 48.4486 198.325 48.2071C198.225 47.9657 198.199 47.7 198.25 47.4437C198.301 47.1873 198.426 46.9519 198.611 46.7671C198.796 46.5823 199.031 46.4564 199.288 46.4054C199.544 46.3544 199.81 46.3806 200.051 46.4806C200.293 46.5806 200.499 46.75 200.644 46.9673C200.79 47.1846 200.867 47.4401 200.867 47.7015C200.867 48.0518 200.727 48.3877 200.48 48.6355C200.232 48.8832 199.896 49.0225 199.546 49.0229ZM71.3671 88.6657C71.3671 88.143 71.2121 87.6321 70.9217 87.1974C70.6312 86.7628 70.2185 86.4241 69.7356 86.2241C69.2527 86.024 68.7213 85.9717 68.2086 86.0737C67.6959 86.1756 67.225 86.4273 66.8554 86.797C66.4858 87.1666 66.2341 87.6375 66.1321 88.1501C66.0301 88.6628 66.0825 89.1942 66.2825 89.6771C66.4825 90.16 66.8213 90.5728 67.2559 90.8632C67.6905 91.1536 68.2015 91.3086 68.7242 91.3086C69.4249 91.3079 70.0967 91.0292 70.5922 90.5338C71.0877 90.0383 71.3664 89.3665 71.3671 88.6657ZM67.4028 88.6657C67.4028 88.4044 67.4803 88.1489 67.6255 87.9316C67.7707 87.7143 67.977 87.5449 68.2185 87.4449C68.46 87.3449 68.7257 87.3187 68.982 87.3697C69.2383 87.4207 69.4738 87.5465 69.6586 87.7314C69.8434 87.9162 69.9692 88.1516 70.0202 88.4079C70.0712 88.6643 70.0451 88.93 69.945 89.1714C69.845 89.4129 69.6756 89.6193 69.4583 89.7645C69.241 89.9097 68.9855 89.9872 68.7242 89.9872C68.3738 89.9868 68.0379 89.8475 67.7902 89.5997C67.5425 89.352 67.4031 89.0161 67.4028 88.6657Z" fill="#364362"/>
<path d="M142.173 22.6088L144.138 20.0254L142.897 19.3224L141.635 22.2164H141.594L140.313 19.3423L139.051 20.0664L140.994 22.589V22.63L137.954 22.2375V23.6422L141.014 23.251V23.292L139.051 25.8133L140.228 26.5586L141.573 23.6422H141.614L142.855 26.5374L144.158 25.7935L142.173 23.3118V23.2709L145.294 23.6422V22.2375L142.173 22.6498V22.6088ZM36.714 61.0029L35.5828 62.4552L36.262 62.8846L37.0364 61.2051H37.0589L37.7737 62.8728L38.5243 62.4446L37.3813 61.0148V60.991L39.1784 61.2051V60.3964L37.3813 60.6343V60.6105L38.5124 59.1225L37.7989 58.7169L37.0721 60.3845H37.0483L36.3096 58.7287L35.5828 59.1463L36.7021 60.5986V60.6224L34.9512 60.3964V61.2051L36.714 60.9791V61.0029ZM229.939 23.5365V22.1582L226.877 22.5639V22.5229L228.803 19.9884L227.586 19.2986L226.35 22.1371H226.309L225.052 19.3185L223.814 20.0281L225.721 22.5031V22.5441L222.738 22.1582V23.5365L225.74 23.1519V23.1929L223.814 25.6666L224.97 26.3974L226.289 23.5365H226.328L227.545 26.3762L228.823 25.6468L226.877 23.2127V23.1718L229.939 23.5365ZM194.845 81.5115L196.508 79.3245L195.457 78.7299L194.391 81.1785H194.355L193.272 78.7471L192.202 79.3589L193.848 81.4943V81.5287L191.276 81.1957V82.3863L193.865 82.0533V82.089L192.202 84.2218L193.2 84.8521L194.338 82.3863H194.372L195.423 84.8349L196.525 84.2059L194.845 82.1061V82.0705L197.486 82.3863V81.1957L194.845 81.5459V81.5115ZM186.132 219.487H175.153C174.488 219.539 173.866 219.84 173.413 220.329C172.959 220.819 172.707 221.462 172.707 222.13C172.707 222.798 172.959 223.441 173.413 223.93C173.866 224.42 174.488 224.721 175.153 224.773H186.132C186.797 224.721 187.419 224.42 187.872 223.93C188.326 223.441 188.578 222.798 188.578 222.13C188.578 221.462 188.326 220.819 187.872 220.329C187.419 219.84 186.797 219.539 186.132 219.487ZM106.846 219.487H95.8677C95.2021 219.539 94.5805 219.84 94.1271 220.329C93.6737 220.819 93.4218 221.462 93.4218 222.13C93.4218 222.798 93.6737 223.441 94.1271 223.93C94.5805 224.42 95.2021 224.721 95.8677 224.773H106.846C107.512 224.721 108.133 224.42 108.587 223.93C109.04 223.441 109.292 222.798 109.292 222.13C109.292 221.462 109.04 220.819 108.587 220.329C108.133 219.84 107.512 219.539 106.846 219.487ZM167.428 219.487H114.571C113.87 219.487 113.198 219.766 112.702 220.261C112.207 220.757 111.928 221.429 111.928 222.13C111.928 222.831 112.207 223.503 112.702 223.999C113.198 224.494 113.87 224.773 114.571 224.773H135.635V227.416H125.143C124.442 227.416 123.769 227.694 123.274 228.19C122.778 228.685 122.5 229.358 122.5 230.059C122.5 230.759 122.778 231.432 123.274 231.927C123.769 232.423 124.442 232.701 125.143 232.701H158.178C158.879 232.701 159.551 232.423 160.047 231.927C160.543 231.432 160.821 230.759 160.821 230.059C160.821 229.358 160.543 228.685 160.047 228.19C159.551 227.694 158.879 227.416 158.178 227.416H146.365V224.773H167.428C168.129 224.773 168.801 224.494 169.297 223.999C169.793 223.503 170.071 222.831 170.071 222.13C170.071 221.429 169.793 220.757 169.297 220.261C168.801 219.766 168.129 219.487 167.428 219.487ZM143.643 104.056C147.547 103.64 151.247 102.101 154.295 99.6247C157.343 97.1488 159.607 93.8425 160.815 90.106C162.022 86.3696 162.121 82.3633 161.098 78.572C160.076 74.7808 157.976 71.3672 155.054 68.7446C152.132 66.1219 148.511 64.4027 144.632 63.7949C140.753 63.1872 136.78 63.7171 133.196 65.3203C129.611 66.9236 126.569 69.5316 124.436 72.8285C122.303 76.1255 121.171 79.97 121.178 83.8967C121.178 84.5976 121.457 85.2698 121.952 85.7655C122.448 86.2611 123.12 86.5395 123.821 86.5395C124.522 86.5395 125.194 86.2611 125.69 85.7655C126.186 85.2698 126.464 84.5976 126.464 83.8967C126.564 81.0434 127.502 78.2827 129.16 75.9587C130.818 73.6346 133.124 71.85 135.789 70.8272C138.455 69.8044 141.363 69.5887 144.15 70.2069C146.937 70.8252 149.481 72.2501 151.464 74.304C153.447 76.3579 154.782 78.95 155.302 81.7572C155.822 84.5645 155.504 87.4627 154.388 90.0907C153.273 92.7187 151.408 94.9602 149.027 96.5359C146.647 98.1116 143.855 98.9518 141 98.9517C140.299 98.9517 139.627 99.2302 139.131 99.7258C138.635 100.221 138.357 100.894 138.357 101.595V116.416C138.357 117.117 138.635 117.789 139.131 118.285C139.627 118.78 140.299 119.059 141 119.059C141.701 119.059 142.373 118.78 142.869 118.285C143.364 117.789 143.643 117.117 143.643 116.416V104.056Z" fill="#386EE9"/>
<path d="M133.433 126.278C132.885 124.526 132.961 122.639 133.646 120.936C125.012 119.119 117.358 114.167 112.161 107.036C106.964 99.9057 104.594 91.1027 105.507 82.3269C106.42 73.5511 110.553 65.4249 117.107 59.5174C123.66 53.6098 132.17 50.34 140.993 50.3392C149.817 50.3384 158.327 53.6067 164.882 59.5131C171.437 65.4194 175.571 73.5448 176.486 82.3205C177.4 91.0961 175.032 99.8995 169.836 107.031C164.641 114.162 156.987 119.116 148.354 120.935C149.038 122.638 149.113 124.525 148.566 126.278C158.597 124.392 167.562 118.83 173.706 110.681C179.851 102.532 182.732 92.3831 181.785 82.2212C180.838 72.0592 176.132 62.6168 168.588 55.7429C161.044 48.8691 151.206 45.0591 141 45.0591C130.794 45.0591 120.956 48.8691 113.412 55.7429C105.868 62.6168 101.161 72.0592 100.215 82.2212C99.2681 92.3831 102.149 102.532 108.293 110.681C114.438 118.83 123.403 124.392 133.433 126.278Z" fill="#364362"/>
<path d="M142.869 122.038C142.436 121.606 141.867 121.337 141.259 121.277C140.65 121.217 140.04 121.37 139.532 121.71C139.023 122.05 138.648 122.556 138.471 123.141C138.294 123.726 138.325 124.354 138.559 124.919C138.793 125.484 139.216 125.95 139.755 126.238C140.294 126.527 140.917 126.619 141.516 126.499C142.116 126.38 142.656 126.056 143.044 125.584C143.431 125.111 143.643 124.518 143.643 123.907C143.649 123.559 143.583 123.214 143.45 122.892C143.317 122.571 143.119 122.28 142.869 122.038Z" fill="#364362"/>
<path d="M122.5 200.987C122.5 201.688 122.778 202.36 123.274 202.856C123.77 203.352 124.442 203.63 125.143 203.63H156.857C157.558 203.63 158.23 203.352 158.726 202.856C159.222 202.36 159.5 201.688 159.5 200.987C159.5 200.286 159.222 199.614 158.726 199.118C158.23 198.623 157.558 198.344 156.857 198.344H125.143C124.442 198.344 123.77 198.623 123.274 199.118C122.778 199.614 122.5 200.286 122.5 200.987Z" fill="#386EE9"/>
<path d="M142.869 150.226C142.436 149.793 141.867 149.524 141.259 149.465C140.65 149.405 140.04 149.558 139.532 149.898C139.023 150.237 138.648 150.743 138.471 151.328C138.294 151.913 138.325 152.542 138.559 153.107C138.793 153.672 139.216 154.138 139.755 154.426C140.294 154.714 140.917 154.806 141.516 154.687C142.116 154.567 142.656 154.244 143.044 153.771C143.431 153.298 143.643 152.706 143.643 152.094C143.649 151.746 143.583 151.401 143.45 151.08C143.317 150.758 143.119 150.468 142.869 150.226Z" fill="#364362"/>
<path d="M141.001 160.023C140.39 160.022 139.797 160.234 139.324 160.622C138.851 161.009 138.527 161.549 138.408 162.149C138.288 162.748 138.38 163.371 138.668 163.91C138.956 164.45 139.422 164.873 139.987 165.107C140.552 165.341 141.18 165.372 141.766 165.195C142.351 165.018 142.856 164.643 143.196 164.135C143.536 163.626 143.689 163.016 143.629 162.407C143.57 161.799 143.301 161.23 142.868 160.797C142.626 160.548 142.336 160.35 142.015 160.217C141.694 160.084 141.349 160.018 141.001 160.023Z" fill="#386EE9"/>
<path d="M141.001 175.88C141.612 175.879 142.203 175.666 142.674 175.278C143.145 174.89 143.467 174.351 143.585 173.752C143.703 173.154 143.61 172.532 143.322 171.994C143.034 171.457 142.568 171.035 142.004 170.802C141.44 170.569 140.812 170.539 140.229 170.716C139.645 170.894 139.14 171.268 138.802 171.776C138.463 172.284 138.31 172.893 138.37 173.5C138.43 174.108 138.699 174.675 139.13 175.107C139.373 175.357 139.664 175.554 139.986 175.687C140.307 175.82 140.653 175.886 141.001 175.88Z" fill="#364362"/>
<path d="M32.6429 214.201C34.1025 214.201 35.2857 213.018 35.2857 211.559C35.2857 210.099 34.1025 208.916 32.6429 208.916C31.1832 208.916 30 210.099 30 211.559C30 213.018 31.1832 214.201 32.6429 214.201Z" fill="#364362"/>
<path d="M44.5359 208.916H40.5716C39.8706 208.916 39.1984 209.194 38.7028 209.69C38.2072 210.185 37.9287 210.858 37.9287 211.559C37.9287 212.259 38.2072 212.932 38.7028 213.427C39.1984 213.923 39.8706 214.201 40.5716 214.201H44.5359C45.2368 214.201 45.909 213.923 46.4046 213.427C46.9003 212.932 47.1787 212.259 47.1787 211.559C47.1787 210.858 46.9003 210.185 46.4046 209.69C45.909 209.194 45.2368 208.916 44.5359 208.916ZM241.429 208.916H237.464C236.763 208.916 236.091 209.194 235.596 209.69C235.1 210.185 234.822 210.858 234.822 211.559C234.822 212.259 235.1 212.932 235.596 213.427C236.091 213.923 236.763 214.201 237.464 214.201H241.429C242.13 214.201 242.802 213.923 243.297 213.427C243.793 212.932 244.072 212.259 244.072 211.559C244.072 210.858 243.793 210.185 243.297 209.69C242.802 209.194 242.13 208.916 241.429 208.916Z" fill="#364362"/>
<path d="M249.357 214.201C250.816 214.201 252 213.018 252 211.559C252 210.099 250.816 208.916 249.357 208.916C247.897 208.916 246.714 210.099 246.714 211.559C246.714 213.018 247.897 214.201 249.357 214.201Z" fill="#364362"/>
<path d="M229.167 208.916H215V166.224C215 140.842 196.139 121.701 171.129 121.701H170.399C167.933 123.733 165.264 125.504 162.434 126.987H171.129C193.125 126.987 209.714 143.856 209.714 166.224V208.916H188.571V185.13C188.571 184.429 188.293 183.757 187.797 183.261C187.302 182.766 186.629 182.487 185.929 182.487C185.228 182.487 184.555 182.766 184.06 183.261C183.564 183.757 183.286 184.429 183.286 185.13V208.916H98.7142V185.13C98.7142 184.429 98.4358 183.757 97.9402 183.261C97.4445 182.766 96.7723 182.487 96.0714 182.487C95.3704 182.487 94.6982 182.766 94.2026 183.261C93.707 183.757 93.4285 184.429 93.4285 185.13V208.916H72.2857V166.224C72.2857 143.856 88.8749 126.987 110.871 126.987H119.566C116.736 125.504 114.067 123.733 111.601 121.701H110.871C85.8607 121.701 66.9999 140.842 66.9999 166.224V208.916H52.8329C52.4569 208.867 52.0748 208.898 51.712 209.009C51.3493 209.119 51.0142 209.305 50.7292 209.556C50.4443 209.806 50.216 210.114 50.0596 210.459C49.9032 210.805 49.8223 211.179 49.8223 211.559C49.8223 211.938 49.9032 212.313 50.0596 212.658C50.216 213.003 50.4443 213.311 50.7292 213.562C51.0142 213.812 51.3493 213.998 51.712 214.109C52.0748 214.219 52.4569 214.251 52.8329 214.201H229.166C229.542 214.251 229.924 214.219 230.287 214.109C230.649 213.998 230.984 213.812 231.269 213.562C231.554 213.311 231.783 213.003 231.939 212.658C232.095 212.313 232.176 211.938 232.176 211.559C232.176 211.179 232.095 210.805 231.939 210.459C231.783 210.114 231.554 209.806 231.269 209.556C230.984 209.305 230.649 209.119 230.287 209.009C229.924 208.898 229.543 208.867 229.167 208.916Z" fill="#364362"/>
</g>
<defs>
<linearGradient id="paint0_linear_136_378" x1="0.0566406" y1="125.057" x2="250.057" y2="125.057" gradientUnits="userSpaceOnUse">
<stop stop-color="#2A447F"/>
<stop offset="0.33" stop-color="#2A447F" stop-opacity="0"/>
</linearGradient>
<linearGradient id="paint1_linear_136_378" x1="6.05664" y1="126.057" x2="256.057" y2="126.057" gradientUnits="userSpaceOnUse">
<stop stop-color="#1C2330"/>
<stop offset="1" stop-color="#1C2330" stop-opacity="0.2"/>
</linearGradient>
<linearGradient id="paint2_linear_136_378" x1="6.05664" y1="126.057" x2="256.057" y2="126.057" gradientUnits="userSpaceOnUse">
<stop stop-color="#2A447F"/>
<stop offset="0.33" stop-color="#2A447F" stop-opacity="0"/>
</linearGradient>
<clipPath id="clip0_136_378">
<rect width="222" height="222" fill="white" transform="translate(30 15.0001)"/>
</clipPath>
</defs>
</svg>
