{
	"asset":{
		"generator":"Khronos glTF Blender I/O v3.5.30",
		"version":"2.0"
	},
	"scene":0,
	"scenes":[
		{
			"name":"Scene",
			"nodes":[
				14
			]
		}
	],
	"nodes":[
		{
			"name":"Tail",
			"rotation":[
				-0.022938808426260948,
				2.986201841359559e-10,
				-6.050413947633615e-09,
				0.9997368454933167
			],
			"scale":[
				1,
				1,
				1.0000001192092896
			],
			"translation":[
				-4.6202330850064754e-10,
				1.4116849899291992,
				-3.155662398057757e-09
			]
		},
		{
			"children":[
				0
			],
			"name":"Spine4",
			"rotation":[
				-0.032104261219501495,
				-1.2335694965504018e-10,
				5.730269148074285e-09,
				0.9994845390319824
			],
			"scale":[
				1,
				1,
				1.0000001192092896
			],
			"translation":[
				8.708411769475788e-11,
				1.6041415929794312,
				3.5533162190404255e-08
			]
		},
		{
			"children":[
				1
			],
			"name":"Spine3",
			"rotation":[
				0.007036103866994381,
				0.00021462990844156593,
				-0.001638766028918326,
				0.9999738931655884
			],
			"translation":[
				5.820766091346741e-11,
				1.7635563611984253,
				4.0354848351853434e-08
			]
		},
		{
			"children":[
				2
			],
			"name":"Spine2",
			"rotation":[
				-0.0527043491601944,
				-7.0953305112198e-05,
				0.0016385719645768404,
				0.9986088275909424
			],
			"scale":[
				1,
				1.0000001192092896,
				1
			],
			"translation":[
				6.288372600415926e-18,
				0.898207426071167,
				-3.725290298461914e-09
			]
		},
		{
			"name":"BottomFlipper.L",
			"rotation":[
				0.007102633826434612,
				0.039280008524656296,
				0.12650594115257263,
				0.9911624193191528
			],
			"scale":[
				0.9999999403953552,
				1.0000001192092896,
				1.0000001192092896
			],
			"translation":[
				-1.1920928955078125e-07,
				0.24561597406864166,
				5.21540641784668e-08
			]
		},
		{
			"children":[
				4
			],
			"name":"MidFlipper.L",
			"rotation":[
				0.04891815781593323,
				-0.056924495846033096,
				-0.004390159621834755,
				0.9971696734428406
			],
			"scale":[
				1,
				1,
				0.9999998807907104
			],
			"translation":[
				1.4901161193847656e-08,
				0.3837395906448364,
				5.960464477539063e-08
			]
		},
		{
			"children":[
				5
			],
			"name":"TopFlipper.L",
			"rotation":[
				-0.307300329208374,
				-0.043675463646650314,
				-0.3433694839477539,
				0.8864290118217468
			],
			"scale":[
				0.9999999403953552,
				1,
				0.9999999403953552
			],
			"translation":[
				0.9179291725158691,
				0.9305212497711182,
				-0.6088432669639587
			]
		},
		{
			"name":"BottomFlipper.R",
			"rotation":[
				-0.07285092025995255,
				-0.032021597027778625,
				-0.1966206580400467,
				0.9772449731826782
			],
			"scale":[
				0.9999999403953552,
				0.9999999403953552,
				1
			],
			"translation":[
				4.470348358154297e-08,
				0.3057544231414795,
				-4.470348358154297e-08
			]
		},
		{
			"children":[
				7
			],
			"name":"MidFlipper.R",
			"rotation":[
				0.09742910414934158,
				0.04586918279528618,
				-0.10581270605325699,
				0.9885379076004028
			],
			"scale":[
				1.0000001192092896,
				1.000000238418579,
				1.0000001192092896
			],
			"translation":[
				2.5331974029541016e-07,
				0.4726996123790741,
				8.940696716308594e-08
			]
		},
		{
			"children":[
				8
			],
			"name":"TopFlipper.R",
			"rotation":[
				-0.2802223563194275,
				0.05180922523140907,
				0.40907108783721924,
				0.8668633699417114
			],
			"translation":[
				-0.8600575923919678,
				0.8794903755187988,
				-0.6049129366874695
			]
		},
		{
			"children":[
				3,
				6,
				9
			],
			"name":"Spine1",
			"rotation":[
				-0.7159876823425293,
				-5.882338589035084e-18,
				5.985635663159787e-18,
				0.698112964630127
			],
			"scale":[
				1,
				0.9999998807907104,
				0.9999998807907104
			],
			"translation":[
				0.0014001912204548717,
				0.17634522914886475,
				2.3093414306640625
			]
		},
		{
			"name":"Head",
			"rotation":[
				0.712347149848938,
				1.2694857787209912e-06,
				1.291843091166811e-06,
				0.701827347278595
			],
			"scale":[
				1,
				0.9999999403953552,
				0.9999999403953552
			],
			"translation":[
				0.0014001927338540554,
				-0.19360113143920898,
				3.346903085708618
			]
		},
		{
			"children":[
				10,
				11
			],
			"name":"Root",
			"translation":[
				0,
				-0.28832125663757324,
				0
			]
		},
		{
			"mesh":0,
			"name":"Dolphin",
			"skin":0
		},
		{
			"children":[
				13,
				12
			],
			"name":"Armature",
			"translation":[
				0,
				0.532696545124054,
				0
			]
		}
	],
	"animations":[
		{
			"channels":[
				{
					"sampler":0,
					"target":{
						"node":12,
						"path":"translation"
					}
				},
				{
					"sampler":1,
					"target":{
						"node":12,
						"path":"rotation"
					}
				},
				{
					"sampler":2,
					"target":{
						"node":12,
						"path":"scale"
					}
				},
				{
					"sampler":3,
					"target":{
						"node":10,
						"path":"translation"
					}
				},
				{
					"sampler":4,
					"target":{
						"node":10,
						"path":"rotation"
					}
				},
				{
					"sampler":5,
					"target":{
						"node":10,
						"path":"scale"
					}
				},
				{
					"sampler":6,
					"target":{
						"node":3,
						"path":"translation"
					}
				},
				{
					"sampler":7,
					"target":{
						"node":3,
						"path":"rotation"
					}
				},
				{
					"sampler":8,
					"target":{
						"node":3,
						"path":"scale"
					}
				},
				{
					"sampler":9,
					"target":{
						"node":2,
						"path":"translation"
					}
				},
				{
					"sampler":10,
					"target":{
						"node":2,
						"path":"rotation"
					}
				},
				{
					"sampler":11,
					"target":{
						"node":2,
						"path":"scale"
					}
				},
				{
					"sampler":12,
					"target":{
						"node":1,
						"path":"translation"
					}
				},
				{
					"sampler":13,
					"target":{
						"node":1,
						"path":"rotation"
					}
				},
				{
					"sampler":14,
					"target":{
						"node":1,
						"path":"scale"
					}
				},
				{
					"sampler":15,
					"target":{
						"node":0,
						"path":"translation"
					}
				},
				{
					"sampler":16,
					"target":{
						"node":0,
						"path":"rotation"
					}
				},
				{
					"sampler":17,
					"target":{
						"node":0,
						"path":"scale"
					}
				},
				{
					"sampler":18,
					"target":{
						"node":6,
						"path":"translation"
					}
				},
				{
					"sampler":19,
					"target":{
						"node":6,
						"path":"rotation"
					}
				},
				{
					"sampler":20,
					"target":{
						"node":6,
						"path":"scale"
					}
				},
				{
					"sampler":21,
					"target":{
						"node":5,
						"path":"translation"
					}
				},
				{
					"sampler":22,
					"target":{
						"node":5,
						"path":"rotation"
					}
				},
				{
					"sampler":23,
					"target":{
						"node":5,
						"path":"scale"
					}
				},
				{
					"sampler":24,
					"target":{
						"node":4,
						"path":"translation"
					}
				},
				{
					"sampler":25,
					"target":{
						"node":4,
						"path":"rotation"
					}
				},
				{
					"sampler":26,
					"target":{
						"node":4,
						"path":"scale"
					}
				},
				{
					"sampler":27,
					"target":{
						"node":9,
						"path":"translation"
					}
				},
				{
					"sampler":28,
					"target":{
						"node":9,
						"path":"rotation"
					}
				},
				{
					"sampler":29,
					"target":{
						"node":9,
						"path":"scale"
					}
				},
				{
					"sampler":30,
					"target":{
						"node":8,
						"path":"translation"
					}
				},
				{
					"sampler":31,
					"target":{
						"node":8,
						"path":"rotation"
					}
				},
				{
					"sampler":32,
					"target":{
						"node":8,
						"path":"scale"
					}
				},
				{
					"sampler":33,
					"target":{
						"node":7,
						"path":"translation"
					}
				},
				{
					"sampler":34,
					"target":{
						"node":7,
						"path":"rotation"
					}
				},
				{
					"sampler":35,
					"target":{
						"node":7,
						"path":"scale"
					}
				},
				{
					"sampler":36,
					"target":{
						"node":11,
						"path":"translation"
					}
				},
				{
					"sampler":37,
					"target":{
						"node":11,
						"path":"rotation"
					}
				},
				{
					"sampler":38,
					"target":{
						"node":11,
						"path":"scale"
					}
				}
			],
			"name":"Swim",
			"samplers":[
				{
					"input":15,
					"interpolation":"LINEAR",
					"output":16
				},
				{
					"input":15,
					"interpolation":"LINEAR",
					"output":17
				},
				{
					"input":15,
					"interpolation":"LINEAR",
					"output":18
				},
				{
					"input":15,
					"interpolation":"LINEAR",
					"output":19
				},
				{
					"input":15,
					"interpolation":"LINEAR",
					"output":20
				},
				{
					"input":15,
					"interpolation":"LINEAR",
					"output":21
				},
				{
					"input":15,
					"interpolation":"LINEAR",
					"output":22
				},
				{
					"input":15,
					"interpolation":"LINEAR",
					"output":23
				},
				{
					"input":15,
					"interpolation":"LINEAR",
					"output":24
				},
				{
					"input":15,
					"interpolation":"LINEAR",
					"output":25
				},
				{
					"input":15,
					"interpolation":"LINEAR",
					"output":26
				},
				{
					"input":15,
					"interpolation":"LINEAR",
					"output":27
				},
				{
					"input":15,
					"interpolation":"LINEAR",
					"output":28
				},
				{
					"input":15,
					"interpolation":"LINEAR",
					"output":29
				},
				{
					"input":15,
					"interpolation":"LINEAR",
					"output":30
				},
				{
					"input":15,
					"interpolation":"LINEAR",
					"output":31
				},
				{
					"input":15,
					"interpolation":"LINEAR",
					"output":32
				},
				{
					"input":15,
					"interpolation":"LINEAR",
					"output":33
				},
				{
					"input":15,
					"interpolation":"LINEAR",
					"output":34
				},
				{
					"input":15,
					"interpolation":"LINEAR",
					"output":35
				},
				{
					"input":15,
					"interpolation":"LINEAR",
					"output":36
				},
				{
					"input":15,
					"interpolation":"LINEAR",
					"output":37
				},
				{
					"input":15,
					"interpolation":"LINEAR",
					"output":38
				},
				{
					"input":15,
					"interpolation":"LINEAR",
					"output":39
				},
				{
					"input":15,
					"interpolation":"LINEAR",
					"output":40
				},
				{
					"input":15,
					"interpolation":"LINEAR",
					"output":41
				},
				{
					"input":15,
					"interpolation":"LINEAR",
					"output":42
				},
				{
					"input":15,
					"interpolation":"LINEAR",
					"output":43
				},
				{
					"input":15,
					"interpolation":"LINEAR",
					"output":44
				},
				{
					"input":15,
					"interpolation":"LINEAR",
					"output":45
				},
				{
					"input":15,
					"interpolation":"LINEAR",
					"output":46
				},
				{
					"input":15,
					"interpolation":"LINEAR",
					"output":47
				},
				{
					"input":15,
					"interpolation":"LINEAR",
					"output":48
				},
				{
					"input":15,
					"interpolation":"LINEAR",
					"output":49
				},
				{
					"input":15,
					"interpolation":"LINEAR",
					"output":50
				},
				{
					"input":15,
					"interpolation":"LINEAR",
					"output":51
				},
				{
					"input":15,
					"interpolation":"LINEAR",
					"output":52
				},
				{
					"input":15,
					"interpolation":"LINEAR",
					"output":53
				},
				{
					"input":15,
					"interpolation":"LINEAR",
					"output":54
				}
			]
		}
	],
	"materials":[
		{
			"doubleSided":true,
			"name":"Top",
			"pbrMetallicRoughness":{
				"baseColorFactor":[
					0.30000001192092896,
					0.30000001192092896,
					0.30000001192092896,
					1
				],
				"metallicFactor":0,
				"roughnessFactor":0.5
			}
		},
		{
			"doubleSided":true,
			"name":"Bottom",
			"pbrMetallicRoughness":{
				"baseColorFactor":[
					0.4385440945625305,
					0.4385440945625305,
					0.4385440945625305,
					1
				],
				"metallicFactor":0,
				"roughnessFactor":0.5
			}
		}
	],
	"meshes":[
		{
			"name":"Dolphin",
			"primitives":[
				{
					"attributes":{
						"POSITION":0,
						"NORMAL":1,
						"JOINTS_0":2,
						"JOINTS_1":3,
						"WEIGHTS_0":4,
						"WEIGHTS_1":5
					},
					"indices":6,
					"material":0
				},
				{
					"attributes":{
						"POSITION":7,
						"NORMAL":8,
						"JOINTS_0":9,
						"JOINTS_1":10,
						"WEIGHTS_0":11,
						"WEIGHTS_1":12
					},
					"indices":13,
					"material":1
				}
			]
		}
	],
	"skins":[
		{
			"inverseBindMatrices":14,
			"joints":[
				12,
				10,
				3,
				2,
				1,
				0,
				6,
				5,
				4,
				9,
				8,
				7,
				11
			],
			"name":"Armature"
		}
	],
	"accessors":[
		{
			"bufferView":0,
			"componentType":5126,
			"count":691,
			"max":[
				1.6468337774276733,
				2.211193084716797,
				4.599447250366211
			],
			"min":[
				-1.6468337774276733,
				-0.7827210426330566,
				-4.669404983520508
			],
			"type":"VEC3"
		},
		{
			"bufferView":1,
			"componentType":5126,
			"count":691,
			"type":"VEC3"
		},
		{
			"bufferView":2,
			"componentType":5121,
			"count":691,
			"type":"VEC4"
		},
		{
			"bufferView":3,
			"componentType":5121,
			"count":691,
			"type":"VEC4"
		},
		{
			"bufferView":4,
			"componentType":5126,
			"count":691,
			"type":"VEC4"
		},
		{
			"bufferView":5,
			"componentType":5126,
			"count":691,
			"type":"VEC4"
		},
		{
			"bufferView":6,
			"componentType":5123,
			"count":1098,
			"type":"SCALAR"
		},
		{
			"bufferView":7,
			"componentType":5126,
			"count":146,
			"max":[
				0.8994826078414917,
				0.3348284959793091,
				3.7259981632232666
			],
			"min":[
				-0.8994826078414917,
				-0.5381678342819214,
				-3.3964385986328125
			],
			"type":"VEC3"
		},
		{
			"bufferView":8,
			"componentType":5126,
			"count":146,
			"type":"VEC3"
		},
		{
			"bufferView":9,
			"componentType":5121,
			"count":146,
			"type":"VEC4"
		},
		{
			"bufferView":10,
			"componentType":5121,
			"count":146,
			"type":"VEC4"
		},
		{
			"bufferView":11,
			"componentType":5126,
			"count":146,
			"type":"VEC4"
		},
		{
			"bufferView":12,
			"componentType":5126,
			"count":146,
			"type":"VEC4"
		},
		{
			"bufferView":13,
			"componentType":5123,
			"count":222,
			"type":"SCALAR"
		},
		{
			"bufferView":14,
			"componentType":5126,
			"count":13,
			"type":"MAT4"
		},
		{
			"bufferView":15,
			"componentType":5126,
			"count":26,
			"max":[
				1.0416666666666667
			],
			"min":[
				0
			],
			"type":"SCALAR"
		},
		{
			"bufferView":16,
			"componentType":5126,
			"count":26,
			"type":"VEC3"
		},
		{
			"bufferView":17,
			"componentType":5126,
			"count":26,
			"type":"VEC4"
		},
		{
			"bufferView":18,
			"componentType":5126,
			"count":26,
			"type":"VEC3"
		},
		{
			"bufferView":19,
			"componentType":5126,
			"count":26,
			"type":"VEC3"
		},
		{
			"bufferView":20,
			"componentType":5126,
			"count":26,
			"type":"VEC4"
		},
		{
			"bufferView":21,
			"componentType":5126,
			"count":26,
			"type":"VEC3"
		},
		{
			"bufferView":22,
			"componentType":5126,
			"count":26,
			"type":"VEC3"
		},
		{
			"bufferView":23,
			"componentType":5126,
			"count":26,
			"type":"VEC4"
		},
		{
			"bufferView":24,
			"componentType":5126,
			"count":26,
			"type":"VEC3"
		},
		{
			"bufferView":25,
			"componentType":5126,
			"count":26,
			"type":"VEC3"
		},
		{
			"bufferView":26,
			"componentType":5126,
			"count":26,
			"type":"VEC4"
		},
		{
			"bufferView":27,
			"componentType":5126,
			"count":26,
			"type":"VEC3"
		},
		{
			"bufferView":28,
			"componentType":5126,
			"count":26,
			"type":"VEC3"
		},
		{
			"bufferView":29,
			"componentType":5126,
			"count":26,
			"type":"VEC4"
		},
		{
			"bufferView":30,
			"componentType":5126,
			"count":26,
			"type":"VEC3"
		},
		{
			"bufferView":31,
			"componentType":5126,
			"count":26,
			"type":"VEC3"
		},
		{
			"bufferView":32,
			"componentType":5126,
			"count":26,
			"type":"VEC4"
		},
		{
			"bufferView":33,
			"componentType":5126,
			"count":26,
			"type":"VEC3"
		},
		{
			"bufferView":34,
			"componentType":5126,
			"count":26,
			"type":"VEC3"
		},
		{
			"bufferView":35,
			"componentType":5126,
			"count":26,
			"type":"VEC4"
		},
		{
			"bufferView":36,
			"componentType":5126,
			"count":26,
			"type":"VEC3"
		},
		{
			"bufferView":37,
			"componentType":5126,
			"count":26,
			"type":"VEC3"
		},
		{
			"bufferView":38,
			"componentType":5126,
			"count":26,
			"type":"VEC4"
		},
		{
			"bufferView":39,
			"componentType":5126,
			"count":26,
			"type":"VEC3"
		},
		{
			"bufferView":40,
			"componentType":5126,
			"count":26,
			"type":"VEC3"
		},
		{
			"bufferView":41,
			"componentType":5126,
			"count":26,
			"type":"VEC4"
		},
		{
			"bufferView":42,
			"componentType":5126,
			"count":26,
			"type":"VEC3"
		},
		{
			"bufferView":43,
			"componentType":5126,
			"count":26,
			"type":"VEC3"
		},
		{
			"bufferView":44,
			"componentType":5126,
			"count":26,
			"type":"VEC4"
		},
		{
			"bufferView":45,
			"componentType":5126,
			"count":26,
			"type":"VEC3"
		},
		{
			"bufferView":46,
			"componentType":5126,
			"count":26,
			"type":"VEC3"
		},
		{
			"bufferView":47,
			"componentType":5126,
			"count":26,
			"type":"VEC4"
		},
		{
			"bufferView":48,
			"componentType":5126,
			"count":26,
			"type":"VEC3"
		},
		{
			"bufferView":49,
			"componentType":5126,
			"count":26,
			"type":"VEC3"
		},
		{
			"bufferView":50,
			"componentType":5126,
			"count":26,
			"type":"VEC4"
		},
		{
			"bufferView":51,
			"componentType":5126,
			"count":26,
			"type":"VEC3"
		},
		{
			"bufferView":52,
			"componentType":5126,
			"count":26,
			"type":"VEC3"
		},
		{
			"bufferView":53,
			"componentType":5126,
			"count":26,
			"type":"VEC4"
		},
		{
			"bufferView":54,
			"componentType":5126,
			"count":26,
			"type":"VEC3"
		}
	],
	"bufferViews":[
		{
			"buffer":0,
			"byteLength":8292,
			"byteOffset":0,
			"target":34962
		},
		{
			"buffer":0,
			"byteLength":8292,
			"byteOffset":8292,
			"target":34962
		},
		{
			"buffer":0,
			"byteLength":2764,
			"byteOffset":16584,
			"target":34962
		},
		{
			"buffer":0,
			"byteLength":2764,
			"byteOffset":19348,
			"target":34962
		},
		{
			"buffer":0,
			"byteLength":11056,
			"byteOffset":22112,
			"target":34962
		},
		{
			"buffer":0,
			"byteLength":11056,
			"byteOffset":33168,
			"target":34962
		},
		{
			"buffer":0,
			"byteLength":2196,
			"byteOffset":44224,
			"target":34963
		},
		{
			"buffer":0,
			"byteLength":1752,
			"byteOffset":46420,
			"target":34962
		},
		{
			"buffer":0,
			"byteLength":1752,
			"byteOffset":48172,
			"target":34962
		},
		{
			"buffer":0,
			"byteLength":584,
			"byteOffset":49924,
			"target":34962
		},
		{
			"buffer":0,
			"byteLength":584,
			"byteOffset":50508,
			"target":34962
		},
		{
			"buffer":0,
			"byteLength":2336,
			"byteOffset":51092,
			"target":34962
		},
		{
			"buffer":0,
			"byteLength":2336,
			"byteOffset":53428,
			"target":34962
		},
		{
			"buffer":0,
			"byteLength":444,
			"byteOffset":55764,
			"target":34963
		},
		{
			"buffer":0,
			"byteLength":832,
			"byteOffset":56208
		},
		{
			"buffer":0,
			"byteLength":104,
			"byteOffset":57040
		},
		{
			"buffer":0,
			"byteLength":312,
			"byteOffset":57144
		},
		{
			"buffer":0,
			"byteLength":416,
			"byteOffset":57456
		},
		{
			"buffer":0,
			"byteLength":312,
			"byteOffset":57872
		},
		{
			"buffer":0,
			"byteLength":312,
			"byteOffset":58184
		},
		{
			"buffer":0,
			"byteLength":416,
			"byteOffset":58496
		},
		{
			"buffer":0,
			"byteLength":312,
			"byteOffset":58912
		},
		{
			"buffer":0,
			"byteLength":312,
			"byteOffset":59224
		},
		{
			"buffer":0,
			"byteLength":416,
			"byteOffset":59536
		},
		{
			"buffer":0,
			"byteLength":312,
			"byteOffset":59952
		},
		{
			"buffer":0,
			"byteLength":312,
			"byteOffset":60264
		},
		{
			"buffer":0,
			"byteLength":416,
			"byteOffset":60576
		},
		{
			"buffer":0,
			"byteLength":312,
			"byteOffset":60992
		},
		{
			"buffer":0,
			"byteLength":312,
			"byteOffset":61304
		},
		{
			"buffer":0,
			"byteLength":416,
			"byteOffset":61616
		},
		{
			"buffer":0,
			"byteLength":312,
			"byteOffset":62032
		},
		{
			"buffer":0,
			"byteLength":312,
			"byteOffset":62344
		},
		{
			"buffer":0,
			"byteLength":416,
			"byteOffset":62656
		},
		{
			"buffer":0,
			"byteLength":312,
			"byteOffset":63072
		},
		{
			"buffer":0,
			"byteLength":312,
			"byteOffset":63384
		},
		{
			"buffer":0,
			"byteLength":416,
			"byteOffset":63696
		},
		{
			"buffer":0,
			"byteLength":312,
			"byteOffset":64112
		},
		{
			"buffer":0,
			"byteLength":312,
			"byteOffset":64424
		},
		{
			"buffer":0,
			"byteLength":416,
			"byteOffset":64736
		},
		{
			"buffer":0,
			"byteLength":312,
			"byteOffset":65152
		},
		{
			"buffer":0,
			"byteLength":312,
			"byteOffset":65464
		},
		{
			"buffer":0,
			"byteLength":416,
			"byteOffset":65776
		},
		{
			"buffer":0,
			"byteLength":312,
			"byteOffset":66192
		},
		{
			"buffer":0,
			"byteLength":312,
			"byteOffset":66504
		},
		{
			"buffer":0,
			"byteLength":416,
			"byteOffset":66816
		},
		{
			"buffer":0,
			"byteLength":312,
			"byteOffset":67232
		},
		{
			"buffer":0,
			"byteLength":312,
			"byteOffset":67544
		},
		{
			"buffer":0,
			"byteLength":416,
			"byteOffset":67856
		},
		{
			"buffer":0,
			"byteLength":312,
			"byteOffset":68272
		},
		{
			"buffer":0,
			"byteLength":312,
			"byteOffset":68584
		},
		{
			"buffer":0,
			"byteLength":416,
			"byteOffset":68896
		},
		{
			"buffer":0,
			"byteLength":312,
			"byteOffset":69312
		},
		{
			"buffer":0,
			"byteLength":312,
			"byteOffset":69624
		},
		{
			"buffer":0,
			"byteLength":416,
			"byteOffset":69936
		},
		{
			"buffer":0,
			"byteLength":312,
			"byteOffset":70352
		}
	],
	"buffers":[
		{
			"byteLength":70664,
			"uri":"dolphin.bin"
		}
	]
}
