{
	"asset":{
		"generator":"Khronos glTF Blender I/O v3.5.30",
		"version":"2.0"
	},
	"scene":0,
	"scenes":[
		{
			"name":"Scene",
			"nodes":[
				14
			]
		}
	],
	"nodes":[
		{
			"name":"Tail",
			"rotation":[
				0.07611322402954102,
				-1.1751455364361618e-10,
				-7.616152153389066e-09,
				0.9970991611480713
			],
			"scale":[
				1,
				1,
				0.9999999403953552
			],
			"translation":[
				-2.9448998795089665e-11,
				1.962263822555542,
				1.8668915302555433e-08
			]
		},
		{
			"children":[
				0
			],
			"name":"Spine4",
			"rotation":[
				-0.015456242486834526,
				-2.69917599382552e-09,
				7.617486197375456e-09,
				0.9998805522918701
			],
			"scale":[
				1,
				0.9999999403953552,
				1
			],
			"translation":[
				-5.340014541665994e-10,
				1.716078519821167,
				-1.1176072511887014e-08
			]
		},
		{
			"children":[
				1
			],
			"name":"Spine3",
			"rotation":[
				-0.009646398946642876,
				0.00012689843424595892,
				-0.003023681463673711,
				0.9999489188194275
			],
			"scale":[
				1,
				1,
				0.9999999403953552
			],
			"translation":[
				-7.530616130679846e-10,
				1.6553819179534912,
				-7.43102646083571e-09
			]
		},
		{
			"children":[
				2
			],
			"name":"Spine2",
			"rotation":[
				0.019317997619509697,
				-0.00015613918367307633,
				0.0030223126523196697,
				0.9998088479042053
			],
			"scale":[
				0.9999999403953552,
				1.0000001192092896,
				1
			],
			"translation":[
				-4.656612873077393e-10,
				1.5576502084732056,
				-1.4086253941059113e-08
			]
		},
		{
			"name":"BottomFlipper.L",
			"rotation":[
				0.032126691192388535,
				0.014227159321308136,
				0.11399167031049728,
				0.9928601980209351
			],
			"scale":[
				1.0000001192092896,
				1.0000001192092896,
				1
			],
			"translation":[
				-5.960464477539063e-08,
				0.4259414076805115,
				-1.862645149230957e-07
			]
		},
		{
			"children":[
				4
			],
			"name":"MidFlipper.L",
			"rotation":[
				0.04719000309705734,
				-0.0648513212800026,
				-0.013615081086754799,
				0.9966855645179749
			],
			"scale":[
				0.9999999403953552,
				1.0000001192092896,
				1.0000001192092896
			],
			"translation":[
				-1.043081283569336e-07,
				0.6654723286628723,
				-2.9802322387695312e-08
			]
		},
		{
			"children":[
				5
			],
			"name":"TopFlipper.L",
			"rotation":[
				-0.3838259279727936,
				0.01056283712387085,
				-0.2634045481681824,
				0.8849769234657288
			],
			"scale":[
				0.9999999403953552,
				1,
				0.9999998807907104
			],
			"translation":[
				1.0709584951400757,
				0.8726632595062256,
				-0.8726563453674316
			]
		},
		{
			"name":"BottomFlipper.R",
			"rotation":[
				-0.027797169983386993,
				-0.015568509697914124,
				-0.20369952917099,
				0.9785149693489075
			],
			"scale":[
				1,
				0.9999998807907104,
				0.9999999403953552
			],
			"translation":[
				8.009374141693115e-08,
				0.5302322506904602,
				-5.774199962615967e-08
			]
		},
		{
			"children":[
				7
			],
			"name":"MidFlipper.R",
			"rotation":[
				0.11542017757892609,
				0.07896503806114197,
				-0.08583104610443115,
				0.9864460229873657
			],
			"scale":[
				0.9999999403953552,
				1,
				0.9999998807907104
			],
			"translation":[
				-2.9802322387695312e-08,
				0.8197444081306458,
				-5.960464477539063e-08
			]
		},
		{
			"children":[
				8
			],
			"name":"TopFlipper.R",
			"rotation":[
				-0.36520490050315857,
				-0.006806497927755117,
				0.34241747856140137,
				0.8656381368637085
			],
			"scale":[
				0.9999999403953552,
				1,
				1
			],
			"translation":[
				-0.9207653999328613,
				0.7845991849899292,
				-0.8410191535949707
			]
		},
		{
			"children":[
				3,
				6,
				9
			],
			"name":"Spine1",
			"rotation":[
				-0.7273682951927185,
				-5.8792958051518075e-18,
				5.982539939717307e-18,
				0.6862473487854004
			],
			"scale":[
				1,
				1.0000001192092896,
				1.0000001192092896
			],
			"translation":[
				0.0024281740188598633,
				0.5012310147285461,
				1.5354440212249756
			]
		},
		{
			"name":"Head",
			"rotation":[
				0.6672316789627075,
				1.2431241884769406e-06,
				1.1135820159324794e-06,
				0.7448502779006958
			],
			"translation":[
				0.0024281740188598633,
				0.6218117475509644,
				1.984605312347412
			]
		},
		{
			"children":[
				10,
				11
			],
			"name":"Root",
			"translation":[
				0,
				-0.5,
				0
			]
		},
		{
			"mesh":0,
			"name":"Whale",
			"skin":0
		},
		{
			"children":[
				13,
				12
			],
			"name":"Armature"
		}
	],
	"animations":[
		{
			"channels":[
				{
					"sampler":0,
					"target":{
						"node":12,
						"path":"translation"
					}
				},
				{
					"sampler":1,
					"target":{
						"node":12,
						"path":"rotation"
					}
				},
				{
					"sampler":2,
					"target":{
						"node":12,
						"path":"scale"
					}
				},
				{
					"sampler":3,
					"target":{
						"node":10,
						"path":"translation"
					}
				},
				{
					"sampler":4,
					"target":{
						"node":10,
						"path":"rotation"
					}
				},
				{
					"sampler":5,
					"target":{
						"node":10,
						"path":"scale"
					}
				},
				{
					"sampler":6,
					"target":{
						"node":3,
						"path":"translation"
					}
				},
				{
					"sampler":7,
					"target":{
						"node":3,
						"path":"rotation"
					}
				},
				{
					"sampler":8,
					"target":{
						"node":3,
						"path":"scale"
					}
				},
				{
					"sampler":9,
					"target":{
						"node":2,
						"path":"translation"
					}
				},
				{
					"sampler":10,
					"target":{
						"node":2,
						"path":"rotation"
					}
				},
				{
					"sampler":11,
					"target":{
						"node":2,
						"path":"scale"
					}
				},
				{
					"sampler":12,
					"target":{
						"node":1,
						"path":"translation"
					}
				},
				{
					"sampler":13,
					"target":{
						"node":1,
						"path":"rotation"
					}
				},
				{
					"sampler":14,
					"target":{
						"node":1,
						"path":"scale"
					}
				},
				{
					"sampler":15,
					"target":{
						"node":0,
						"path":"translation"
					}
				},
				{
					"sampler":16,
					"target":{
						"node":0,
						"path":"rotation"
					}
				},
				{
					"sampler":17,
					"target":{
						"node":0,
						"path":"scale"
					}
				},
				{
					"sampler":18,
					"target":{
						"node":6,
						"path":"translation"
					}
				},
				{
					"sampler":19,
					"target":{
						"node":6,
						"path":"rotation"
					}
				},
				{
					"sampler":20,
					"target":{
						"node":6,
						"path":"scale"
					}
				},
				{
					"sampler":21,
					"target":{
						"node":5,
						"path":"translation"
					}
				},
				{
					"sampler":22,
					"target":{
						"node":5,
						"path":"rotation"
					}
				},
				{
					"sampler":23,
					"target":{
						"node":5,
						"path":"scale"
					}
				},
				{
					"sampler":24,
					"target":{
						"node":4,
						"path":"translation"
					}
				},
				{
					"sampler":25,
					"target":{
						"node":4,
						"path":"rotation"
					}
				},
				{
					"sampler":26,
					"target":{
						"node":4,
						"path":"scale"
					}
				},
				{
					"sampler":27,
					"target":{
						"node":9,
						"path":"translation"
					}
				},
				{
					"sampler":28,
					"target":{
						"node":9,
						"path":"rotation"
					}
				},
				{
					"sampler":29,
					"target":{
						"node":9,
						"path":"scale"
					}
				},
				{
					"sampler":30,
					"target":{
						"node":8,
						"path":"translation"
					}
				},
				{
					"sampler":31,
					"target":{
						"node":8,
						"path":"rotation"
					}
				},
				{
					"sampler":32,
					"target":{
						"node":8,
						"path":"scale"
					}
				},
				{
					"sampler":33,
					"target":{
						"node":7,
						"path":"translation"
					}
				},
				{
					"sampler":34,
					"target":{
						"node":7,
						"path":"rotation"
					}
				},
				{
					"sampler":35,
					"target":{
						"node":7,
						"path":"scale"
					}
				},
				{
					"sampler":36,
					"target":{
						"node":11,
						"path":"translation"
					}
				},
				{
					"sampler":37,
					"target":{
						"node":11,
						"path":"rotation"
					}
				},
				{
					"sampler":38,
					"target":{
						"node":11,
						"path":"scale"
					}
				}
			],
			"name":"Swim",
			"samplers":[
				{
					"input":15,
					"interpolation":"LINEAR",
					"output":16
				},
				{
					"input":15,
					"interpolation":"LINEAR",
					"output":17
				},
				{
					"input":15,
					"interpolation":"LINEAR",
					"output":18
				},
				{
					"input":15,
					"interpolation":"LINEAR",
					"output":19
				},
				{
					"input":15,
					"interpolation":"LINEAR",
					"output":20
				},
				{
					"input":15,
					"interpolation":"LINEAR",
					"output":21
				},
				{
					"input":15,
					"interpolation":"LINEAR",
					"output":22
				},
				{
					"input":15,
					"interpolation":"LINEAR",
					"output":23
				},
				{
					"input":15,
					"interpolation":"LINEAR",
					"output":24
				},
				{
					"input":15,
					"interpolation":"LINEAR",
					"output":25
				},
				{
					"input":15,
					"interpolation":"LINEAR",
					"output":26
				},
				{
					"input":15,
					"interpolation":"LINEAR",
					"output":27
				},
				{
					"input":15,
					"interpolation":"LINEAR",
					"output":28
				},
				{
					"input":15,
					"interpolation":"LINEAR",
					"output":29
				},
				{
					"input":15,
					"interpolation":"LINEAR",
					"output":30
				},
				{
					"input":15,
					"interpolation":"LINEAR",
					"output":31
				},
				{
					"input":15,
					"interpolation":"LINEAR",
					"output":32
				},
				{
					"input":15,
					"interpolation":"LINEAR",
					"output":33
				},
				{
					"input":15,
					"interpolation":"LINEAR",
					"output":34
				},
				{
					"input":15,
					"interpolation":"LINEAR",
					"output":35
				},
				{
					"input":15,
					"interpolation":"LINEAR",
					"output":36
				},
				{
					"input":15,
					"interpolation":"LINEAR",
					"output":37
				},
				{
					"input":15,
					"interpolation":"LINEAR",
					"output":38
				},
				{
					"input":15,
					"interpolation":"LINEAR",
					"output":39
				},
				{
					"input":15,
					"interpolation":"LINEAR",
					"output":40
				},
				{
					"input":15,
					"interpolation":"LINEAR",
					"output":41
				},
				{
					"input":15,
					"interpolation":"LINEAR",
					"output":42
				},
				{
					"input":15,
					"interpolation":"LINEAR",
					"output":43
				},
				{
					"input":15,
					"interpolation":"LINEAR",
					"output":44
				},
				{
					"input":15,
					"interpolation":"LINEAR",
					"output":45
				},
				{
					"input":15,
					"interpolation":"LINEAR",
					"output":46
				},
				{
					"input":15,
					"interpolation":"LINEAR",
					"output":47
				},
				{
					"input":15,
					"interpolation":"LINEAR",
					"output":48
				},
				{
					"input":15,
					"interpolation":"LINEAR",
					"output":49
				},
				{
					"input":15,
					"interpolation":"LINEAR",
					"output":50
				},
				{
					"input":15,
					"interpolation":"LINEAR",
					"output":51
				},
				{
					"input":15,
					"interpolation":"LINEAR",
					"output":52
				},
				{
					"input":15,
					"interpolation":"LINEAR",
					"output":53
				},
				{
					"input":15,
					"interpolation":"LINEAR",
					"output":54
				}
			]
		}
	],
	"materials":[
		{
			"doubleSided":true,
			"name":"Top",
			"pbrMetallicRoughness":{
				"baseColorFactor":[
					0.18694664537906647,
					0.19071334600448608,
					0.3843749165534973,
					1
				],
				"metallicFactor":0,
				"roughnessFactor":0.5
			}
		},
		{
			"doubleSided":true,
			"name":"Bottom",
			"pbrMetallicRoughness":{
				"baseColorFactor":[
					0.581462562084198,
					0.35972103476524353,
					0.0824371725320816,
					1
				],
				"metallicFactor":0,
				"roughnessFactor":0.5
			}
		}
	],
	"meshes":[
		{
			"name":"Cylinder",
			"primitives":[
				{
					"attributes":{
						"POSITION":0,
						"NORMAL":1,
						"JOINTS_0":2,
						"JOINTS_1":3,
						"WEIGHTS_0":4,
						"WEIGHTS_1":5
					},
					"indices":6,
					"material":0
				},
				{
					"attributes":{
						"POSITION":7,
						"NORMAL":8,
						"JOINTS_0":9,
						"JOINTS_1":10,
						"WEIGHTS_0":11,
						"WEIGHTS_1":12
					},
					"indices":13,
					"material":1
				}
			]
		}
	],
	"skins":[
		{
			"inverseBindMatrices":14,
			"joints":[
				12,
				10,
				3,
				2,
				1,
				0,
				6,
				5,
				4,
				9,
				8,
				7,
				11
			],
			"name":"Armature"
		}
	],
	"accessors":[
		{
			"bufferView":0,
			"componentType":5126,
			"count":750,
			"max":[
				2.0312867164611816,
				1.091122031211853,
				3.526519775390625
			],
			"min":[
				-2.0312867164611816,
				-2.0941193103790283,
				-6.6581807136535645
			],
			"type":"VEC3"
		},
		{
			"bufferView":1,
			"componentType":5126,
			"count":750,
			"type":"VEC3"
		},
		{
			"bufferView":2,
			"componentType":5121,
			"count":750,
			"type":"VEC4"
		},
		{
			"bufferView":3,
			"componentType":5121,
			"count":750,
			"type":"VEC4"
		},
		{
			"bufferView":4,
			"componentType":5126,
			"count":750,
			"type":"VEC4"
		},
		{
			"bufferView":5,
			"componentType":5126,
			"count":750,
			"type":"VEC4"
		},
		{
			"bufferView":6,
			"componentType":5123,
			"count":1230,
			"type":"SCALAR"
		},
		{
			"bufferView":7,
			"componentType":5126,
			"count":90,
			"max":[
				0.8072249889373779,
				0.29002735018730164,
				3.5360970497131348
			],
			"min":[
				-0.8072249889373779,
				-0.9836481809616089,
				0.06283903121948242
			],
			"type":"VEC3"
		},
		{
			"bufferView":8,
			"componentType":5126,
			"count":90,
			"type":"VEC3"
		},
		{
			"bufferView":9,
			"componentType":5121,
			"count":90,
			"type":"VEC4"
		},
		{
			"bufferView":10,
			"componentType":5121,
			"count":90,
			"type":"VEC4"
		},
		{
			"bufferView":11,
			"componentType":5126,
			"count":90,
			"type":"VEC4"
		},
		{
			"bufferView":12,
			"componentType":5126,
			"count":90,
			"type":"VEC4"
		},
		{
			"bufferView":13,
			"componentType":5123,
			"count":126,
			"type":"SCALAR"
		},
		{
			"bufferView":14,
			"componentType":5126,
			"count":13,
			"type":"MAT4"
		},
		{
			"bufferView":15,
			"componentType":5126,
			"count":68,
			"max":[
				2.7916666666666665
			],
			"min":[
				0
			],
			"type":"SCALAR"
		},
		{
			"bufferView":16,
			"componentType":5126,
			"count":68,
			"type":"VEC3"
		},
		{
			"bufferView":17,
			"componentType":5126,
			"count":68,
			"type":"VEC4"
		},
		{
			"bufferView":18,
			"componentType":5126,
			"count":68,
			"type":"VEC3"
		},
		{
			"bufferView":19,
			"componentType":5126,
			"count":68,
			"type":"VEC3"
		},
		{
			"bufferView":20,
			"componentType":5126,
			"count":68,
			"type":"VEC4"
		},
		{
			"bufferView":21,
			"componentType":5126,
			"count":68,
			"type":"VEC3"
		},
		{
			"bufferView":22,
			"componentType":5126,
			"count":68,
			"type":"VEC3"
		},
		{
			"bufferView":23,
			"componentType":5126,
			"count":68,
			"type":"VEC4"
		},
		{
			"bufferView":24,
			"componentType":5126,
			"count":68,
			"type":"VEC3"
		},
		{
			"bufferView":25,
			"componentType":5126,
			"count":68,
			"type":"VEC3"
		},
		{
			"bufferView":26,
			"componentType":5126,
			"count":68,
			"type":"VEC4"
		},
		{
			"bufferView":27,
			"componentType":5126,
			"count":68,
			"type":"VEC3"
		},
		{
			"bufferView":28,
			"componentType":5126,
			"count":68,
			"type":"VEC3"
		},
		{
			"bufferView":29,
			"componentType":5126,
			"count":68,
			"type":"VEC4"
		},
		{
			"bufferView":30,
			"componentType":5126,
			"count":68,
			"type":"VEC3"
		},
		{
			"bufferView":31,
			"componentType":5126,
			"count":68,
			"type":"VEC3"
		},
		{
			"bufferView":32,
			"componentType":5126,
			"count":68,
			"type":"VEC4"
		},
		{
			"bufferView":33,
			"componentType":5126,
			"count":68,
			"type":"VEC3"
		},
		{
			"bufferView":34,
			"componentType":5126,
			"count":68,
			"type":"VEC3"
		},
		{
			"bufferView":35,
			"componentType":5126,
			"count":68,
			"type":"VEC4"
		},
		{
			"bufferView":36,
			"componentType":5126,
			"count":68,
			"type":"VEC3"
		},
		{
			"bufferView":37,
			"componentType":5126,
			"count":68,
			"type":"VEC3"
		},
		{
			"bufferView":38,
			"componentType":5126,
			"count":68,
			"type":"VEC4"
		},
		{
			"bufferView":39,
			"componentType":5126,
			"count":68,
			"type":"VEC3"
		},
		{
			"bufferView":40,
			"componentType":5126,
			"count":68,
			"type":"VEC3"
		},
		{
			"bufferView":41,
			"componentType":5126,
			"count":68,
			"type":"VEC4"
		},
		{
			"bufferView":42,
			"componentType":5126,
			"count":68,
			"type":"VEC3"
		},
		{
			"bufferView":43,
			"componentType":5126,
			"count":68,
			"type":"VEC3"
		},
		{
			"bufferView":44,
			"componentType":5126,
			"count":68,
			"type":"VEC4"
		},
		{
			"bufferView":45,
			"componentType":5126,
			"count":68,
			"type":"VEC3"
		},
		{
			"bufferView":46,
			"componentType":5126,
			"count":68,
			"type":"VEC3"
		},
		{
			"bufferView":47,
			"componentType":5126,
			"count":68,
			"type":"VEC4"
		},
		{
			"bufferView":48,
			"componentType":5126,
			"count":68,
			"type":"VEC3"
		},
		{
			"bufferView":49,
			"componentType":5126,
			"count":68,
			"type":"VEC3"
		},
		{
			"bufferView":50,
			"componentType":5126,
			"count":68,
			"type":"VEC4"
		},
		{
			"bufferView":51,
			"componentType":5126,
			"count":68,
			"type":"VEC3"
		},
		{
			"bufferView":52,
			"componentType":5126,
			"count":68,
			"type":"VEC3"
		},
		{
			"bufferView":53,
			"componentType":5126,
			"count":68,
			"type":"VEC4"
		},
		{
			"bufferView":54,
			"componentType":5126,
			"count":68,
			"type":"VEC3"
		}
	],
	"bufferViews":[
		{
			"buffer":0,
			"byteLength":9000,
			"byteOffset":0,
			"target":34962
		},
		{
			"buffer":0,
			"byteLength":9000,
			"byteOffset":9000,
			"target":34962
		},
		{
			"buffer":0,
			"byteLength":3000,
			"byteOffset":18000,
			"target":34962
		},
		{
			"buffer":0,
			"byteLength":3000,
			"byteOffset":21000,
			"target":34962
		},
		{
			"buffer":0,
			"byteLength":12000,
			"byteOffset":24000,
			"target":34962
		},
		{
			"buffer":0,
			"byteLength":12000,
			"byteOffset":36000,
			"target":34962
		},
		{
			"buffer":0,
			"byteLength":2460,
			"byteOffset":48000,
			"target":34963
		},
		{
			"buffer":0,
			"byteLength":1080,
			"byteOffset":50460,
			"target":34962
		},
		{
			"buffer":0,
			"byteLength":1080,
			"byteOffset":51540,
			"target":34962
		},
		{
			"buffer":0,
			"byteLength":360,
			"byteOffset":52620,
			"target":34962
		},
		{
			"buffer":0,
			"byteLength":360,
			"byteOffset":52980,
			"target":34962
		},
		{
			"buffer":0,
			"byteLength":1440,
			"byteOffset":53340,
			"target":34962
		},
		{
			"buffer":0,
			"byteLength":1440,
			"byteOffset":54780,
			"target":34962
		},
		{
			"buffer":0,
			"byteLength":252,
			"byteOffset":56220,
			"target":34963
		},
		{
			"buffer":0,
			"byteLength":832,
			"byteOffset":56472
		},
		{
			"buffer":0,
			"byteLength":272,
			"byteOffset":57304
		},
		{
			"buffer":0,
			"byteLength":816,
			"byteOffset":57576
		},
		{
			"buffer":0,
			"byteLength":1088,
			"byteOffset":58392
		},
		{
			"buffer":0,
			"byteLength":816,
			"byteOffset":59480
		},
		{
			"buffer":0,
			"byteLength":816,
			"byteOffset":60296
		},
		{
			"buffer":0,
			"byteLength":1088,
			"byteOffset":61112
		},
		{
			"buffer":0,
			"byteLength":816,
			"byteOffset":62200
		},
		{
			"buffer":0,
			"byteLength":816,
			"byteOffset":63016
		},
		{
			"buffer":0,
			"byteLength":1088,
			"byteOffset":63832
		},
		{
			"buffer":0,
			"byteLength":816,
			"byteOffset":64920
		},
		{
			"buffer":0,
			"byteLength":816,
			"byteOffset":65736
		},
		{
			"buffer":0,
			"byteLength":1088,
			"byteOffset":66552
		},
		{
			"buffer":0,
			"byteLength":816,
			"byteOffset":67640
		},
		{
			"buffer":0,
			"byteLength":816,
			"byteOffset":68456
		},
		{
			"buffer":0,
			"byteLength":1088,
			"byteOffset":69272
		},
		{
			"buffer":0,
			"byteLength":816,
			"byteOffset":70360
		},
		{
			"buffer":0,
			"byteLength":816,
			"byteOffset":71176
		},
		{
			"buffer":0,
			"byteLength":1088,
			"byteOffset":71992
		},
		{
			"buffer":0,
			"byteLength":816,
			"byteOffset":73080
		},
		{
			"buffer":0,
			"byteLength":816,
			"byteOffset":73896
		},
		{
			"buffer":0,
			"byteLength":1088,
			"byteOffset":74712
		},
		{
			"buffer":0,
			"byteLength":816,
			"byteOffset":75800
		},
		{
			"buffer":0,
			"byteLength":816,
			"byteOffset":76616
		},
		{
			"buffer":0,
			"byteLength":1088,
			"byteOffset":77432
		},
		{
			"buffer":0,
			"byteLength":816,
			"byteOffset":78520
		},
		{
			"buffer":0,
			"byteLength":816,
			"byteOffset":79336
		},
		{
			"buffer":0,
			"byteLength":1088,
			"byteOffset":80152
		},
		{
			"buffer":0,
			"byteLength":816,
			"byteOffset":81240
		},
		{
			"buffer":0,
			"byteLength":816,
			"byteOffset":82056
		},
		{
			"buffer":0,
			"byteLength":1088,
			"byteOffset":82872
		},
		{
			"buffer":0,
			"byteLength":816,
			"byteOffset":83960
		},
		{
			"buffer":0,
			"byteLength":816,
			"byteOffset":84776
		},
		{
			"buffer":0,
			"byteLength":1088,
			"byteOffset":85592
		},
		{
			"buffer":0,
			"byteLength":816,
			"byteOffset":86680
		},
		{
			"buffer":0,
			"byteLength":816,
			"byteOffset":87496
		},
		{
			"buffer":0,
			"byteLength":1088,
			"byteOffset":88312
		},
		{
			"buffer":0,
			"byteLength":816,
			"byteOffset":89400
		},
		{
			"buffer":0,
			"byteLength":816,
			"byteOffset":90216
		},
		{
			"buffer":0,
			"byteLength":1088,
			"byteOffset":91032
		},
		{
			"buffer":0,
			"byteLength":816,
			"byteOffset":92120
		}
	],
	"buffers":[
		{
			"byteLength":92936,
			"uri":"whale.bin"
		}
	]
}
