<svg width="40" height="40" viewBox="0 0 40 40" fill="none" xmlns="http://www.w3.org/2000/svg">
<g clip-path="url(#clip0_64_33)">
<path fill-rule="evenodd" clip-rule="evenodd" d="M16.4706 25.8823V30.5882C16.4706 31.4627 17.391 32.0316 18.1732 31.6405L20 30.7271L21.8268 31.6405C22.609 32.0316 23.5293 31.4628 23.5293 30.5883V25.8824H25.8823C26.5321 25.8824 27.0588 26.4091 27.0588 27.0589V38.8236C27.0588 39.4734 26.5321 40.0001 25.8823 40.0001H14.1176C13.4679 40.0001 12.9411 39.4734 12.9411 38.8236V27.0588C12.9411 26.4091 13.4679 25.8823 14.1176 25.8823H16.4706ZM18.8235 25.8823H21.1765V28.6847L20.5261 28.3595C20.3628 28.2778 20.1827 28.2353 20 28.2353C19.8174 28.2353 19.6372 28.2778 19.4739 28.3595L18.8236 28.6847V25.8823H18.8235ZM23.8433 24.1177H16.1567L6.28981 15.5963C5.96036 15.3117 5.82724 14.8842 5.90302 14.4852C5.89056 14.417 5.88395 14.3479 5.88325 14.2785C5.88263 14.2249 5.88239 14.1713 5.88239 14.1177C5.88231 6.3207 12.203 0 20 0C27.7969 0 34.1176 6.3207 34.1176 14.1177C34.1176 14.1713 34.1173 14.2249 34.1168 14.2785C34.116 14.3498 34.1092 14.4188 34.097 14.4852C34.1728 14.8842 34.0397 15.3116 33.7102 15.5963L23.8433 24.1177ZM22.8166 14.8341C21.9646 14.3683 21.0023 14.1177 20 14.1177C18.9976 14.1177 18.0354 14.3683 17.1833 14.8341L20 22.4792L22.8166 14.8341ZM14.9004 15.4439C14.8841 15.4321 14.8681 15.42 14.8524 15.4073C13.8164 14.5769 12.5331 14.1177 11.1765 14.1177C10.3327 14.1177 9.51708 14.2951 8.77083 14.63L17.3211 22.0144L14.9004 15.4439ZM31.2291 14.63C30.4829 14.2952 29.6672 14.1177 28.8235 14.1177C27.4668 14.1177 26.1836 14.5769 25.1475 15.4073C25.1318 15.42 25.1158 15.4322 25.0995 15.4439L22.6788 22.0143L31.2291 14.63Z" fill="#364362"/>
</g>
<defs>
<clipPath id="clip0_64_33">
<rect width="40" height="40" fill="white"/>
</clipPath>
</defs>
</svg>
