<svg width="40" height="40" viewBox="0 0 40 40" fill="none" xmlns="http://www.w3.org/2000/svg">
<path d="M31.1019 29.2517C31.2491 29.252 31.395 29.2233 31.5311 29.1671C31.6671 29.1109 31.7908 29.0284 31.8949 28.9243C31.999 28.8202 32.0815 28.6965 32.1377 28.5604C32.1939 28.4243 32.2226 28.2785 32.2223 28.1313V6.12042C32.2223 5.82327 32.1043 5.53828 31.8941 5.32816C31.684 5.11804 31.399 5 31.1019 5H11.9925C9.78926 5.00821 8.00411 6.78926 8 8.99253V31.0075C8 33.2107 9.78926 35 11.9925 35H31.1019C31.3988 34.9992 31.6834 34.881 31.8933 34.671C32.1033 34.461 32.2216 34.1765 32.2223 33.8796C32.2223 33.2606 31.7208 32.7509 31.1019 32.7509H30.9263V29.2517H31.1019ZM25.6589 12.4883H14.5634C14.4161 12.4886 14.2703 12.4599 14.1342 12.4037C13.9981 12.3475 13.8745 12.265 13.7704 12.1609C13.6663 12.0568 13.5837 11.9331 13.5276 11.7971C13.4714 11.661 13.4426 11.5151 13.4429 11.3679C13.4429 10.7575 13.9451 10.2475 14.5634 10.2475H25.6589C25.9559 10.2482 26.2404 10.3665 26.4504 10.5765C26.6603 10.7864 26.7786 11.071 26.7794 11.3679C26.7797 11.5151 26.7509 11.661 26.6948 11.7971C26.6386 11.9331 26.5561 12.0568 26.4519 12.1609C26.3478 12.265 26.2242 12.3475 26.0881 12.4037C25.952 12.4599 25.8062 12.4886 25.6589 12.4883ZM28.6855 32.7551H11.9925C11.7627 32.7556 11.535 32.7108 11.3225 32.6232C11.11 32.5356 10.9169 32.407 10.7541 32.2447C10.5914 32.0823 10.4623 31.8895 10.3743 31.6772C10.2862 31.4649 10.2408 31.2373 10.2408 31.0075C10.2408 30.0377 11.0268 29.2517 11.9925 29.2517H28.6855V32.7551Z" fill="#364362"/>
</svg>
