<svg width="59" height="52" viewBox="0 0 59 52" fill="none" xmlns="http://www.w3.org/2000/svg">
<circle cx="21.5" cy="30.5" r="21.5" fill="url(#paint0_linear_120_2)"/>
<path d="M53 38H17C16.4696 38 15.9609 38.2107 15.5858 38.5858C15.2107 38.9609 15 39.4696 15 40C15 40.5304 15.2107 41.0391 15.5858 41.4142C15.9609 41.7893 16.4696 42 17 42H53C53.5304 42 54.0391 41.7893 54.4142 41.4142C54.7893 41.0391 55 40.5304 55 40C55 39.4696 54.7893 38.9609 54.4142 38.5858C54.0391 38.2107 53.5304 38 53 38ZM35 4C34.4696 4 33.9609 4.21071 33.5858 4.58579C33.2107 4.96086 33 5.46957 33 6V27.18L26.42 20.58C26.0434 20.2034 25.5326 19.9918 25 19.9918C24.4674 19.9918 23.9566 20.2034 23.58 20.58C23.2034 20.9566 22.9918 21.4674 22.9918 22C22.9918 22.5326 23.2034 23.0434 23.58 23.42L33.58 33.42C33.7659 33.6075 33.9871 33.7562 34.2308 33.8578C34.4746 33.9593 34.736 34.0116 35 34.0116C35.264 34.0116 35.5254 33.9593 35.7692 33.8578C36.0129 33.7562 36.2341 33.6075 36.42 33.42L46.42 23.42C46.6065 23.2335 46.7544 23.0121 46.8553 22.7685C46.9562 22.5249 47.0082 22.2637 47.0082 22C47.0082 21.7363 46.9562 21.4751 46.8553 21.2315C46.7544 20.9879 46.6065 20.7665 46.42 20.58C46.2335 20.3935 46.0121 20.2456 45.7685 20.1447C45.5249 20.0438 45.2637 19.9918 45 19.9918C44.7363 19.9918 44.4751 20.0438 44.2315 20.1447C43.9879 20.2456 43.7665 20.3935 43.58 20.58L37 27.18V6C37 5.46957 36.7893 4.96086 36.4142 4.58579C36.0391 4.21071 35.5304 4 35 4Z" fill="#386EE9"/>
<defs>
<linearGradient id="paint0_linear_120_2" x1="43" y1="30.5" x2="0" y2="30.5" gradientUnits="userSpaceOnUse">
<stop stop-color="#202736" stop-opacity="0"/>
<stop offset="1" stop-color="#202736"/>
</linearGradient>
</defs>
</svg>
