<svg width="40" height="40" viewBox="0 0 40 40" fill="none" xmlns="http://www.w3.org/2000/svg">
<g clip-path="url(#clip0_64_23)">
<path d="M33.8618 7.28297C31.2685 6.09261 28.5317 5.24375 25.7199 4.75765C25.6944 4.7529 25.668 4.75632 25.6445 4.76743C25.621 4.77854 25.6016 4.79677 25.589 4.81953C25.2374 5.44492 24.848 6.2607 24.5752 6.90195C21.5008 6.44164 18.442 6.44164 15.4306 6.90195C15.1578 6.24648 14.7542 5.44492 14.401 4.81953C14.3879 4.79725 14.3685 4.77943 14.3451 4.76839C14.3218 4.75735 14.2956 4.75361 14.2701 4.75765C11.4133 5.24969 8.67936 6.11156 6.12826 7.28297C6.10606 7.29238 6.08734 7.30846 6.07467 7.32898C0.889043 15.0762 -0.531582 22.6331 0.165293 30.0962C0.168418 30.1327 0.188965 30.1677 0.217324 30.1899C3.63865 32.7025 6.95287 34.2278 10.2055 35.2389C10.2307 35.2465 10.2577 35.2461 10.2828 35.2379C10.3079 35.2297 10.3299 35.214 10.3458 35.1929C11.1151 34.1422 11.801 33.0343 12.389 31.8692C12.4237 31.801 12.3906 31.72 12.3197 31.693C11.2318 31.2804 10.1959 30.7772 9.19944 30.2059C9.12061 30.1598 9.11428 30.0471 9.18686 29.9931C9.39713 29.836 9.60374 29.6741 9.80654 29.5074C9.82433 29.4928 9.84586 29.4833 9.8687 29.4803C9.89154 29.4772 9.9148 29.4805 9.93584 29.4899C16.4821 32.4787 23.5692 32.4787 30.0382 29.4899C30.0593 29.4799 30.0828 29.4761 30.1059 29.4789C30.1291 29.4817 30.151 29.491 30.169 29.5058C30.3721 29.6733 30.5792 29.8358 30.7903 29.993C30.8628 30.047 30.858 30.1598 30.7793 30.2058C29.7828 30.7883 28.7469 31.2803 27.6575 31.6914C27.6407 31.6978 27.6255 31.7077 27.6128 31.7204C27.6001 31.7331 27.5903 31.7483 27.5839 31.7651C27.5775 31.7819 27.5747 31.7998 27.5757 31.8178C27.5767 31.8357 27.5815 31.8532 27.5898 31.8691C28.1905 33.0326 28.8763 34.1405 29.6315 35.1912C29.663 35.2357 29.7197 35.2548 29.7718 35.2388C33.0401 34.2278 36.3544 32.7024 39.7757 30.1898C39.7904 30.1791 39.8027 30.1653 39.8116 30.1494C39.8206 30.1336 39.8261 30.116 39.8277 30.0978C40.6618 21.4696 38.4308 13.9747 33.9137 7.33054C33.9026 7.309 33.8842 7.29212 33.8618 7.28297ZM13.3668 25.552C11.3959 25.552 9.77194 23.7426 9.77194 21.5204C9.77194 19.2983 11.3644 17.4888 13.3668 17.4888C15.3848 17.4888 16.9931 19.3141 16.9615 21.5204C16.9615 23.7426 15.369 25.552 13.3668 25.552ZM26.658 25.552C24.6872 25.552 23.0632 23.7426 23.0632 21.5204C23.0632 19.2983 24.6556 17.4888 26.658 17.4888C28.6761 17.4888 30.2843 19.3141 30.2528 21.5204C30.2528 23.7426 28.6762 25.552 26.658 25.552Z" fill="#364362"/>
</g>
<defs>
<clipPath id="clip0_64_23">
<rect width="40" height="40" fill="white"/>
</clipPath>
</defs>
</svg>
