<svg width="32" height="32" viewBox="0 0 32 32" fill="none" xmlns="http://www.w3.org/2000/svg">
<path fill-rule="evenodd" clip-rule="evenodd" d="M15.9988 27C14.7188 27 13.6521 26.12 13.3588 24.9333H18.6388C18.3455 26.12 17.2788 27 15.9988 27ZM14.8655 6.14667C14.8655 5.52 15.3721 5 15.9988 5C16.6255 5 17.1455 5.52 17.1455 6.14667V6.36C16.7721 6.30667 16.3855 6.28 15.9988 6.28C15.6121 6.28 15.2388 6.30667 14.8655 6.36V6.14667ZM25.6921 20.0667L25.1188 18.8667C24.7721 18.12 24.5855 17.28 24.5855 16.44L24.5721 14.8533C24.5721 11.2267 22.3188 8.13333 19.1455 6.88V6.14667C19.1455 4.41333 17.7321 3 15.9988 3C14.2655 3 12.8654 4.41333 12.8654 6.14667V6.88C9.67878 8.13333 7.42545 11.2267 7.42545 14.8533V16.44C7.42545 17.28 7.23878 18.12 6.87878 18.8667L6.31878 20.0667C5.81211 21.1333 5.89211 22.36 6.51878 23.36C7.15878 24.3467 8.22545 24.9333 9.41211 24.9333H11.3321C11.6654 27.2267 13.6121 29 15.9988 29C18.3855 29 20.3455 27.2267 20.6655 24.9333H22.5988C23.7721 24.9333 24.8521 24.3467 25.4788 23.3467C26.1055 22.36 26.1855 21.1333 25.6921 20.0667Z" fill="#ADB0C4"/>
</svg>
