<svg width="32" height="32" viewBox="0 0 32 32" fill="none" xmlns="http://www.w3.org/2000/svg">
<path d="M16.2293 19.5754C18.6787 19.5754 20.6693 17.5834 20.6693 15.134C20.6693 12.6847 18.6787 10.6927 16.2293 10.6927C13.78 10.6927 11.7894 12.6847 11.7894 15.134C11.7894 17.5834 13.78 19.5754 16.2293 19.5754Z" fill="#ADB0C4"/>
<path fill-rule="evenodd" clip-rule="evenodd" d="M16.2005 29C9.03252 29 3.20052 23.168 3.20052 16C3.20052 8.832 9.03252 3 16.2005 3C23.3685 3 29.2005 8.832 29.2005 16C29.2005 23.168 23.3685 29 16.2005 29ZM16.2005 5C10.1352 5 5.20052 9.93467 5.20052 16C5.20052 19.5543 6.8951 22.7204 9.51877 24.7327C10.2868 22.7517 12.4439 21.1197 16.2296 21.1197C20 21.1197 22.154 22.7328 22.9299 24.6959C25.5264 22.682 27.2005 19.5328 27.2005 16C27.2005 9.93467 22.2659 5 16.2005 5Z" fill="#ADB0C4"/>
</svg>
