<svg width="40" height="40" viewBox="0 0 40 40" fill="none" xmlns="http://www.w3.org/2000/svg">
<path d="M9.68258 30.9799L9.67285 30.996" stroke="url(#paint0_linear_221_745)" stroke-width="1.5" stroke-linecap="round" stroke-linejoin="round"/>
<path d="M5.53706 24.6599L5.52734 24.676" stroke="url(#paint1_linear_221_745)" stroke-width="1.5" stroke-linecap="round" stroke-linejoin="round"/>
<path d="M5.13345 17.0427L5.12372 17.0588" stroke="url(#paint2_linear_221_745)" stroke-width="1.5" stroke-linecap="round" stroke-linejoin="round"/>
<path d="M8.54165 10.1335L8.53192 10.1497" stroke="url(#paint3_linear_221_745)" stroke-width="1.5" stroke-linecap="round" stroke-linejoin="round"/>
<path d="M14.9023 5.79755L14.8926 5.81376" stroke="url(#paint4_linear_221_745)" stroke-width="1.5" stroke-linecap="round" stroke-linejoin="round"/>
<path d="M19.9018 5C28.1868 5.01135 34.8922 11.7362 34.8808 20.021C34.8695 28.306 28.1447 35.0113 19.8598 35C17.9673 34.9967 16.1576 34.6448 14.4922 34.0027" stroke="url(#paint5_linear_221_745)" stroke-width="1.5" stroke-linecap="round" stroke-linejoin="round"/>
<defs>
<linearGradient id="paint0_linear_221_745" x1="9.67285" y1="30.9799" x2="9.68258" y2="30.9799" gradientUnits="userSpaceOnUse">
<stop stop-color="#423BE5"/>
<stop offset="1" stop-color="#CE938E"/>
</linearGradient>
<linearGradient id="paint1_linear_221_745" x1="5.52734" y1="24.6599" x2="5.53706" y2="24.6599" gradientUnits="userSpaceOnUse">
<stop stop-color="#423BE5"/>
<stop offset="1" stop-color="#CE938E"/>
</linearGradient>
<linearGradient id="paint2_linear_221_745" x1="5.12372" y1="17.0427" x2="5.13345" y2="17.0427" gradientUnits="userSpaceOnUse">
<stop stop-color="#423BE5"/>
<stop offset="1" stop-color="#CE938E"/>
</linearGradient>
<linearGradient id="paint3_linear_221_745" x1="8.53192" y1="10.1335" x2="8.54165" y2="10.1335" gradientUnits="userSpaceOnUse">
<stop stop-color="#423BE5"/>
<stop offset="1" stop-color="#CE938E"/>
</linearGradient>
<linearGradient id="paint4_linear_221_745" x1="14.8926" y1="5.79755" x2="14.9023" y2="5.79755" gradientUnits="userSpaceOnUse">
<stop stop-color="#423BE5"/>
<stop offset="1" stop-color="#CE938E"/>
</linearGradient>
<linearGradient id="paint5_linear_221_745" x1="14.4922" y1="5" x2="34.8808" y2="5" gradientUnits="userSpaceOnUse">
<stop stop-color="#423BE5"/>
<stop offset="1" stop-color="#CE938E"/>
</linearGradient>
</defs>
</svg>
