<svg width="60" height="53" viewBox="0 0 60 53" fill="none" xmlns="http://www.w3.org/2000/svg">
<circle cx="21.5" cy="31.5" r="21.5" fill="url(#paint0_linear_122_3)"/>
<g clip-path="url(#clip0_122_3)">
<path d="M42.4445 40.0762C42.0804 40.1669 41.7136 40.2464 41.3446 40.3145C40.3848 40.493 39.7502 41.4161 39.9278 42.3768C40.0116 42.8311 40.2703 43.2345 40.6483 43.5001C40.8408 43.6361 41.0587 43.7321 41.289 43.7824C41.5192 43.8328 41.7573 43.8364 41.989 43.7932C42.4286 43.7117 42.8656 43.6168 43.2994 43.5087C44.2472 43.2728 44.8246 42.3126 44.5881 41.3652C44.3523 40.417 43.3929 39.8401 42.4445 40.0762ZM55.525 16.3673C55.6436 16.7267 55.8748 17.0384 56.1842 17.2562C56.6272 17.5683 57.2069 17.6733 57.7601 17.4903C58.6876 17.1824 59.1901 16.1822 58.8833 15.2552C58.7428 14.8309 58.5893 14.4109 58.4232 13.996C58.0603 13.0889 57.0315 12.6473 56.124 13.0101C55.2174 13.3728 54.7756 14.4019 55.1387 15.3092C55.2782 15.6579 55.407 16.0108 55.525 16.3673ZM48.1922 37.5507C47.8788 37.7578 47.5592 37.9553 47.2337 38.1429C46.3873 38.6311 46.0974 39.7131 46.5854 40.5591C46.7133 40.7814 46.8882 40.9732 47.0977 41.1211C47.6434 41.505 48.3844 41.5625 49.0014 41.2071C49.3887 40.9838 49.7692 40.7487 50.1422 40.5023C50.957 39.964 51.1812 38.8666 50.6427 38.0514C50.1042 37.236 49.0072 37.0121 48.1922 37.5507ZM59.9831 21.3076C59.9446 20.3313 59.1223 19.5714 58.1458 19.6096C57.1704 19.6481 56.41 20.4706 56.4483 21.4465C56.4629 21.8197 56.4667 22.1984 56.4581 22.5711C56.4444 23.1834 56.7438 23.7291 57.2092 24.0571C57.4961 24.2593 57.8368 24.3713 58.1877 24.3788C59.1639 24.4005 59.973 23.6261 59.9947 22.6494C60.0044 22.204 60.0007 21.7527 59.9831 21.3076ZM55.2363 32.8975C54.4534 32.3102 53.3459 32.4696 52.7595 33.2511C52.5342 33.5513 52.2997 33.8446 52.0564 34.1305C51.4237 34.8739 51.513 35.9906 52.2565 36.6238C52.2988 36.6597 52.3417 36.6928 52.3861 36.7238C53.1252 37.2448 54.1524 37.1251 54.7499 36.4239C55.0404 36.0825 55.3203 35.7323 55.5893 35.3738C56.1757 34.5924 56.017 33.484 55.2363 32.8975ZM57.8364 26.5034C56.9043 26.2112 55.9116 26.73 55.6195 27.6622C55.5071 28.0206 55.3839 28.3755 55.2501 28.7265C54.9564 29.4979 55.2378 30.3467 55.8829 30.8016C56.0037 30.8867 56.1349 30.9563 56.2731 31.0087C57.1857 31.357 58.2077 30.8991 58.5556 29.9861C58.7145 29.5686 58.861 29.1465 58.995 28.7204C59.2868 27.788 58.7683 26.7957 57.8364 26.5034ZM34.7273 40.3304C33.1586 40.0498 31.6333 39.5651 30.1903 38.8886C30.1733 38.8797 30.1581 38.8696 30.1402 38.8614C29.8002 38.7016 29.4649 38.5318 29.1348 38.3524C29.1337 38.3511 29.1316 38.3502 29.1298 38.3495C28.5234 38.0154 27.936 37.6483 27.37 37.2497C19.0493 31.3883 17.0487 19.8504 22.9104 11.5298C24.185 9.72119 25.7274 8.21231 27.4471 7.0164C27.4682 7.00164 27.4894 6.98698 27.5104 6.97213C33.5701 2.79686 41.7981 2.51548 48.2325 6.80595L46.8506 8.80269C46.4664 9.35846 46.7027 9.76347 47.3753 9.70293L53.3782 9.16551C54.0516 9.10498 54.4544 8.52244 54.2732 7.87209L52.6613 2.06413C52.4808 1.41302 52.0188 1.33508 51.6342 1.89076L50.249 3.89223C45.5271 0.722469 39.8635 -0.486207 34.2422 0.488565C33.6795 0.586201 33.1207 0.705464 32.5672 0.846089C32.563 0.846845 32.5596 0.847318 32.5561 0.848075C32.5349 0.853277 32.5133 0.860182 32.4926 0.865951C27.6452 2.11076 23.4159 4.93794 20.3981 8.97171C20.3726 9.00188 20.3464 9.03139 20.3224 9.06421C20.2216 9.20024 20.1224 9.33749 20.0249 9.47593C19.8648 9.70332 19.7091 9.93377 19.5579 10.1671C19.5391 10.1951 19.5247 10.2236 19.5082 10.2519C17.0179 14.111 15.8167 18.5725 16.0227 23.1145C16.0231 23.1295 16.0223 23.1445 16.0227 23.1598C16.0431 23.6062 16.0774 24.0519 16.1256 24.4962C16.1281 24.5247 16.1345 24.5518 16.1393 24.5804C16.1885 25.0282 16.2515 25.4743 16.3283 25.9182C17.1175 30.4713 19.2653 34.5683 22.4836 37.7562C22.4911 37.7637 22.4989 37.7719 22.5064 37.7796C22.5091 37.7825 22.512 37.784 22.5146 37.7868C23.3875 38.648 24.33 39.4356 25.3325 40.1417C27.9827 42.0092 30.9338 43.2436 34.1031 43.8123C35.0647 43.9851 35.9833 43.345 36.1558 42.3838C36.3282 41.422 35.6886 40.5027 34.7273 40.3304Z" fill="#386EE9"/>
<path d="M36.9146 7.86914C36.1236 7.86914 35.4829 8.51041 35.4829 9.30028V23.5584L48.5231 30.2994C48.7257 30.4045 48.9506 30.4593 49.1788 30.4592C49.6967 30.4592 50.197 30.1772 50.4513 29.6851C50.8141 28.9827 50.5396 28.1198 49.8372 27.7571L38.3447 21.8156V9.30028C38.3446 8.51041 37.7047 7.86914 36.9146 7.86914Z" fill="#386EE9"/>
</g>
<defs>
<linearGradient id="paint0_linear_122_3" x1="43" y1="31.5" x2="0" y2="31.5" gradientUnits="userSpaceOnUse">
<stop stop-color="#202736" stop-opacity="0"/>
<stop offset="1" stop-color="#202736"/>
</linearGradient>
<clipPath id="clip0_122_3">
<rect width="44" height="44" fill="white" transform="translate(16)"/>
</clipPath>
</defs>
</svg>
