<svg width="40" height="40" viewBox="0 0 40 40" fill="none" xmlns="http://www.w3.org/2000/svg">
<path d="M31.9665 11.8867L24.9565 4.71C24.1032 3.855 22.9065 3.34333 21.5398 3.34333H11.4515C8.88818 3.17166 6.66651 5.39333 6.66651 7.95667V31.8817C6.66541 32.5105 6.78849 33.1333 7.02867 33.7145C7.26885 34.2956 7.62142 34.8236 8.06615 35.2682C8.51087 35.7128 9.039 36.0652 9.62023 36.3051C10.2015 36.5451 10.8244 36.668 11.4532 36.6667H28.5465C29.1753 36.668 29.7982 36.5451 30.3795 36.3051C30.9607 36.0652 31.4888 35.7128 31.9335 35.2682C32.3783 34.8236 32.7308 34.2956 32.971 33.7145C33.2112 33.1333 33.3343 32.5105 33.3332 31.8817V15.135C33.3332 13.9383 32.8198 12.7417 31.9665 11.8867ZM14.8715 16.8433H19.9998C20.6832 16.8433 21.3665 17.3567 21.3665 18.21C21.3665 19.065 20.8548 19.5767 19.9998 19.5767H14.8715C14.6914 19.5791 14.5125 19.5455 14.3456 19.4777C14.1787 19.4099 14.027 19.3093 13.8996 19.1819C13.7722 19.0545 13.6717 18.9028 13.6039 18.7359C13.536 18.569 13.5024 18.3902 13.5048 18.21C13.5048 17.355 14.1882 16.8433 14.8715 16.8433ZM25.1282 26.4133H14.8715C14.1882 26.4133 13.5048 25.9 13.5048 25.0467C13.5048 24.1933 14.0165 23.68 14.8715 23.68H25.1282C25.8115 23.68 26.4948 24.1917 26.4948 25.0467C26.4948 25.9017 25.8115 26.4133 25.1282 26.4133Z" fill="#364362"/>
</svg>
