<svg width="59" height="52" viewBox="0 0 59 52" fill="none" xmlns="http://www.w3.org/2000/svg">
<circle cx="21.5" cy="30.5" r="21.5" fill="url(#paint0_linear_122_4)"/>
<path d="M17 37.9999C16.4696 37.9999 15.9609 38.2106 15.5858 38.5857C15.2107 38.9607 15 39.4694 15 39.9999C15 40.5303 15.2107 41.039 15.5858 41.4141C15.9609 41.7892 16.4696 41.9999 17 41.9999H53C53.5304 41.9999 54.0391 41.7892 54.4142 41.4141C54.7893 41.039 55 40.5303 55 39.9999C55 39.4694 54.7893 38.9607 54.4142 38.5857C54.0391 38.2106 53.5304 37.9999 53 37.9999H17ZM35 33.9999C35.5304 33.9999 36.0391 33.7892 36.4142 33.4141C36.7893 33.039 37 32.5303 37 31.9999V10.8199L43.58 17.4199C43.7659 17.6073 43.9871 17.7561 44.2308 17.8577C44.4746 17.9592 44.736 18.0115 45 18.0115C45.264 18.0115 45.5254 17.9592 45.7692 17.8577C46.0129 17.7561 46.2341 17.6073 46.42 17.4199C46.6075 17.234 46.7562 17.0127 46.8578 16.769C46.9593 16.5253 47.0116 16.2639 47.0116 15.9999C47.0116 15.7359 46.9593 15.4744 46.8578 15.2307C46.7562 14.987 46.6075 14.7658 46.42 14.5799L36.42 4.57988C36.2341 4.39242 36.0129 4.24363 35.7692 4.1421C35.5254 4.04056 35.264 3.98828 35 3.98828C34.736 3.98828 34.4746 4.04056 34.2308 4.1421C33.9871 4.24363 33.7659 4.39242 33.58 4.57988L23.58 14.5799C23.2034 14.9565 22.9918 15.4673 22.9918 15.9999C22.9918 16.5325 23.2034 17.0433 23.58 17.4199C23.9566 17.7965 24.4674 18.0081 25 18.0081C25.5326 18.0081 26.0434 17.7965 26.42 17.4199L33 10.8199V31.9999C33 32.5303 33.2107 33.039 33.5858 33.4141C33.9609 33.7892 34.4696 33.9999 35 33.9999Z" fill="#386EE9"/>
<defs>
<linearGradient id="paint0_linear_122_4" x1="43" y1="30.5" x2="0" y2="30.5" gradientUnits="userSpaceOnUse">
<stop stop-color="#202736" stop-opacity="0"/>
<stop offset="1" stop-color="#202736"/>
</linearGradient>
</defs>
</svg>
